<svg id="Layer_1" data-name="Layer 1" xmlns="http://www.w3.org/2000/svg" width="900" height="170" viewBox="0 0 900 170"><defs><style>.cls-1{fill:#c76c3f;}</style></defs><path class="cls-1" d="M50.29,79.58,19.74,22.87V80.45c0,1.07-.29,2.24-2.82,2.24-2.33,0-2.62-1.17-2.62-2.24V13c0-2.14,1-3.31,2.53-3.31a2.91,2.91,0,0,1,2.82,1.56l33.65,63L89.1,11.1a2.49,2.49,0,0,1,2.63-1.37c1.46,0,2.14,1.17,2.14,3v67.7c0,1.17-.29,2.24-2.63,2.24-2.53,0-2.82-1.07-2.82-2.24V22.57L56,79.58c-.78,1.26-1.56,2.14-2.92,2.14A3.25,3.25,0,0,1,50.29,79.58Z"/><path class="cls-1" d="M152.42,77.63a2.53,2.53,0,0,1,1.65,2.53,2.4,2.4,0,0,1-1.65,2.53H114A1.58,1.58,0,0,1,112.34,81V22.38A1.53,1.53,0,0,1,114,20.73h36.08a2.34,2.34,0,0,1,1.66,2.43,2.57,2.57,0,0,1-1.66,2.62H117.89V55.65H145a2.57,2.57,0,0,1,1.65,2.62A2.4,2.4,0,0,1,145,60.8H117.89V77.63Z"/><path class="cls-1" d="M173.13,21.8l41,51.26V22.28c0-.68.68-1.55,2.43-1.55s2.43.87,2.43,1.55v59c0,1-.78,1.46-2,1.46a3,3,0,0,1-2.63-1.56L172.55,29.77V81c0,.77-.58,1.65-2.43,1.65s-2.43-.78-2.43-1.65V22.38c0-.78.77-1.65,2.72-1.65A3.32,3.32,0,0,1,173.13,21.8Z"/><path class="cls-1" d="M256.59,25.69V81c0,.87-.68,1.65-2.82,1.65S251,81.91,251,81V25.69H232.27a2.4,2.4,0,0,1-1.65-2.53,2.33,2.33,0,0,1,1.65-2.43h43a2.33,2.33,0,0,1,1.65,2.43,2.4,2.4,0,0,1-1.65,2.53Z"/><path class="cls-1" d="M288.49,68.59l-5.35,11.67c-.78,1.75-1.46,2.43-3.4,2.43a2.13,2.13,0,0,1-2.34-2,2.66,2.66,0,0,1,.29-1.26L304.64,21.8c.49-1,1.07-2.14,2.53-2.14s1.94,1.16,2.43,2.23l27.33,57.59a2.59,2.59,0,0,1,.3,1.26,2.12,2.12,0,0,1-2.34,2A3,3,0,0,1,332,80.84l-5.74-12.25Zm2.43-5.16H323.8L307.27,28.22Z"/><path class="cls-1" d="M389.94,77.63a2.53,2.53,0,0,1,1.66,2.53,2.4,2.4,0,0,1-1.66,2.53H351.52A1.58,1.58,0,0,1,349.87,81V22.28c0-.87.68-1.55,2.72-1.55,2.24,0,2.82.58,2.82,1.55V77.63Z"/><path class="cls-1" d="M454.92,78.31c12.74,0,22.08-6,22.08-15.27,0-10.41-10.61-12.64-21.6-16.24C443.83,43,432,40.57,432,27.15c0-10.7,8.56-18.39,24.41-18.39,14,0,21.11,6.91,21.11,14.5,0,4.57-2.62,7.39-5.15,7.39-1.07,0-2.05-.49-2.05-1.75,0-1.56,2-2.73,2-5.55,0-5-5.35-9.24-15.86-9.24-11.57,0-19.06,3.89-19.06,11.77,0,9.05,6.42,11.29,20.13,15.47,12.07,3.69,25,7,25,20.81,0,13-11.38,21.5-27.33,21.5-15.17,0-25.88-5.54-25.88-17.8,0-5.74,2.83-8.07,5.16-8.07,1.46,0,2.24.58,2.24,1.55,0,1.27-2.05,2-2.05,6.52C434.58,73.94,442.56,78.31,454.92,78.31Z"/><path class="cls-1" d="M547.42,22.28c0-.87.39-1.55,2.53-1.55s2.53.87,2.53,1.55V62.65c0,11-10.22,20.91-26.37,20.91-16.63,0-26.16-9.92-26.16-20.91V22.28c0-.78.68-1.55,2.72-1.55,2.24,0,2.82.68,2.82,1.55V62.46c0,8.75,6.81,16.14,20.62,16.14,13.53,0,21.31-7.39,21.31-16.14Z"/><path class="cls-1" d="M575.43,21.8l41,51.26V22.28c0-.68.68-1.55,2.43-1.55s2.43.87,2.43,1.55v59c0,1-.78,1.46-2,1.46a3,3,0,0,1-2.63-1.56L574.84,29.77V81c0,.77-.58,1.65-2.43,1.65S570,81.91,570,81V22.38c0-.78.78-1.65,2.72-1.65A3.36,3.36,0,0,1,575.43,21.8Z"/><path class="cls-1" d="M640.4,82.69A1.58,1.58,0,0,1,638.75,81V22.38a1.53,1.53,0,0,1,1.65-1.65h16c21.21,0,36.87,7.78,36.87,30.25,0,17.22-9.05,31.71-34.82,31.71Zm18-5c22.56,0,29.18-11.87,29.18-26.75,0-19.17-12.26-25.29-31.23-25.29H644.29v52Z"/><path class="cls-1" d="M709.26,22.28c0-.78.68-1.65,2.73-1.65,2.24,0,2.82.87,2.82,1.65V54.77h40.46V22.28c0-.78.69-1.65,2.73-1.65,2.24,0,2.82.87,2.82,1.65V81c0,.77-.58,1.65-2.82,1.65-2,0-2.73-.88-2.73-1.65V59.83H714.81V81c0,.77-.58,1.65-2.82,1.65-2,0-2.73-.88-2.73-1.65Z"/><path class="cls-1" d="M818.4,77.63a2.53,2.53,0,0,1,1.65,2.53,2.4,2.4,0,0,1-1.65,2.53H780A1.58,1.58,0,0,1,778.32,81V22.38A1.53,1.53,0,0,1,780,20.73h36.08a2.34,2.34,0,0,1,1.66,2.43,2.57,2.57,0,0,1-1.66,2.62H783.87V55.65H811a2.57,2.57,0,0,1,1.65,2.62A2.4,2.4,0,0,1,811,60.8H783.87V77.63Z"/><path class="cls-1" d="M835.32,82.69A1.58,1.58,0,0,1,833.67,81V22.38a1.53,1.53,0,0,1,1.65-1.65h15.95c21.21,0,36.87,7.78,36.87,30.25,0,17.22-9,31.71-34.82,31.71Zm18-5c22.56,0,29.18-11.87,29.18-26.75,0-19.17-12.26-25.29-31.23-25.29H839.21v52Z"/></svg>