<svg id="Layer_1" data-name="Layer 1" xmlns="http://www.w3.org/2000/svg" width="630" height="170" viewBox="0 0 630 170"><defs><style>.cls-1{fill:#c76c3f;}</style></defs><path class="cls-1" d="M14.06,11.68A1.84,1.84,0,0,1,16,9.73H58a2.61,2.61,0,0,1,2.23,2.63A2.53,2.53,0,0,1,58,15.08H19.89V52.15H50.34a2.5,2.5,0,0,1,2.24,2.62,2.68,2.68,0,0,1-2.24,2.82H19.89V80.45c0,1.36-.38,2.24-3.21,2.24-1.94,0-2.62-.88-2.62-2.24Z"/><path class="cls-1" d="M70.38,51.85c0-19.06,14.88-32.19,30.83-32.19S132,32.79,132,51.85c0,18.88-14,31.71-30.74,31.71S70.38,70.73,70.38,51.85Zm56.12,0c0-16.44-11.57-27.14-25.29-27.14S75.92,35.41,75.92,51.85c0,16.15,11.67,26.66,25.29,26.66S126.5,68,126.5,51.85Z"/><path class="cls-1" d="M194.2,77.63c.68,0,1,1.27,1,1.85,0,2.14-3.3,3.21-5.44,3.21C180.1,82.69,176.5,67,164.63,62a49.18,49.18,0,0,1-6.52.39c-2.24,0-2.82-1.26-2.82-2.53,0-1.85.58-2.14,1.75-2.14,14.3,0,27-5.35,27-18.19,0-11.77-9-13.81-21.2-13.81h-9.34V81c0,1-.58,1.65-2.82,1.65-2,0-2.72-.58-2.72-1.65V22.38a1.53,1.53,0,0,1,1.65-1.65h13.42c14.59,0,26.75,4.28,26.75,18.58,0,11.09-8,18.09-18.28,21.2,9.33,5.74,12.35,17.41,20.33,17.41A12.34,12.34,0,0,0,194.2,77.63Z"/><path class="cls-1" d="M213.07,68.59l-5.35,11.67c-.78,1.75-1.46,2.43-3.41,2.43a2.12,2.12,0,0,1-2.33-2,2.66,2.66,0,0,1,.29-1.26L229.21,21.8c.49-1,1.08-2.14,2.53-2.14s1.95,1.16,2.44,2.23l27.33,57.59a2.66,2.66,0,0,1,.29,1.26,2.12,2.12,0,0,1-2.33,2,3,3,0,0,1-2.92-1.85l-5.74-12.25Zm2.43-5.16h32.88L231.84,28.22Z"/><path class="cls-1" d="M279.89,21.8l40.95,51.26V22.28c0-.68.68-1.55,2.43-1.55s2.44.87,2.44,1.55v59c0,1-.78,1.46-2,1.46A3,3,0,0,1,321,81.13L279.31,29.77V81c0,.77-.59,1.65-2.44,1.65s-2.43-.78-2.43-1.65V22.38c0-.78.78-1.65,2.73-1.65A3.35,3.35,0,0,1,279.89,21.8Z"/><path class="cls-1" d="M344.86,82.69A1.58,1.58,0,0,1,343.21,81V22.38a1.53,1.53,0,0,1,1.65-1.65h16c21.2,0,36.86,7.78,36.86,30.25,0,17.22-9,31.71-34.82,31.71Zm18-5C385.43,77.73,392,65.86,392,51c0-19.17-12.26-25.29-31.22-25.29H348.75v52Z"/><path class="cls-1" d="M459.93,77.63c.68,0,1,1.27,1,1.85,0,2.14-3.31,3.21-5.45,3.21-9.63,0-13.23-15.66-25.1-20.72a49.18,49.18,0,0,1-6.52.39c-2.23,0-2.82-1.26-2.82-2.53,0-1.85.59-2.14,1.75-2.14,14.3,0,27.05-5.35,27.05-18.19,0-11.77-8.95-13.81-21.21-13.81h-9.34V81c0,1-.58,1.65-2.82,1.65-2,0-2.72-.58-2.72-1.65V22.38a1.53,1.53,0,0,1,1.65-1.65H428.8c14.6,0,26.76,4.28,26.76,18.58,0,11.09-8,18.09-18.29,21.2,9.34,5.74,12.35,17.41,20.33,17.41A12.34,12.34,0,0,0,459.93,77.63Z"/><path class="cls-1" d="M478.12,81c0,.77-.59,1.65-2.82,1.65-2.05,0-2.73-.88-2.73-1.65V22.28c0-.87.68-1.55,2.73-1.55,2.23,0,2.82.58,2.82,1.55Z"/><path class="cls-1" d="M501.07,21.8l41,51.26V22.28c0-.68.68-1.55,2.43-1.55s2.43.87,2.43,1.55v59c0,1-.78,1.46-2,1.46a3,3,0,0,1-2.63-1.56L500.49,29.77V81c0,.77-.58,1.65-2.43,1.65s-2.43-.78-2.43-1.65V22.38c0-.78.77-1.65,2.72-1.65A3.32,3.32,0,0,1,501.07,21.8Z"/><path class="cls-1" d="M568.67,53c0,17.61,11.29,25.68,26,25.68,11.09,0,18.29-7,18.29-10.5V59.73H600.68a2.75,2.75,0,0,1,0-5h16.05a1.58,1.58,0,0,1,1.65,1.65V68.78c0,5.84-10.7,14.88-24,14.88-16.63,0-31.42-10.6-31.42-30.64,0-23.34,16.44-33.36,32-33.36,12.74,0,21,7.39,21,16.14,0,4.19-1.66,6.42-3.7,6.42-1.46,0-2.53-.58-2.53-1.75s.88-1.65.88-4.08c0-6.91-5.55-11.68-15.66-11.68C581.51,24.71,568.67,31.91,568.67,53Z"/></svg>