<svg id="Layer_1" data-name="Layer 1" xmlns="http://www.w3.org/2000/svg" width="790" height="170" viewBox="0 0 790 170"><defs><style>.cls-1{fill:#c76c3f;}</style></defs><path class="cls-1" d="M35.41,78.31c12.74,0,22.08-6,22.08-15.27,0-10.41-10.6-12.64-21.59-16.24C24.32,43,12.45,40.57,12.45,27.15c0-10.7,8.56-18.39,24.42-18.39,14,0,21.11,6.91,21.11,14.5,0,4.57-2.63,7.39-5.16,7.39-1.07,0-2-.49-2-1.75,0-1.56,1.94-2.73,1.94-5.55,0-5-5.34-9.24-15.85-9.24C25.29,14.11,17.8,18,17.8,25.88c0,9.05,6.42,11.29,20.14,15.47,12.06,3.69,25,7,25,20.81,0,13-11.38,21.5-27.34,21.5-15.17,0-25.87-5.54-25.87-17.8,0-5.74,2.82-8.07,5.15-8.07,1.46,0,2.24.58,2.24,1.55,0,1.27-2,2-2,6.52C15.08,73.94,23.06,78.31,35.41,78.31Z"/><path class="cls-1" d="M120.52,77.63a2.53,2.53,0,0,1,1.65,2.53,2.4,2.4,0,0,1-1.65,2.53H82.1A1.58,1.58,0,0,1,80.44,81V22.38a1.53,1.53,0,0,1,1.66-1.65h36.08a2.34,2.34,0,0,1,1.66,2.43,2.57,2.57,0,0,1-1.66,2.62H86V55.65h27.14a2.57,2.57,0,0,1,1.65,2.62,2.4,2.4,0,0,1-1.65,2.53H86V77.63Z"/><path class="cls-1" d="M175.86,77.63a2.53,2.53,0,0,1,1.66,2.53,2.4,2.4,0,0,1-1.66,2.53H137.44A1.58,1.58,0,0,1,135.79,81V22.28c0-.87.68-1.55,2.72-1.55,2.24,0,2.82.58,2.82,1.55V77.63Z"/><path class="cls-1" d="M182.18,22.57,206.89,75.1,231.6,22.28a2.57,2.57,0,0,1,2.53-1.55c1.55,0,2.43.77,2.43,1.84a2.68,2.68,0,0,1-.29,1.27L208.64,82.69c-.29.58-.87.87-1.94.87s-1.56-.29-1.85-.87L177.22,23.84a2.42,2.42,0,0,1-.29-1.36c0-.78.68-1.75,2.53-1.75A2.53,2.53,0,0,1,182.18,22.57Z"/><path class="cls-1" d="M254.65,50.88,284.22,21.5a2.52,2.52,0,0,1,1.75-.77,2.69,2.69,0,0,1,2.82,2.53,2.76,2.76,0,0,1-.78,1.65l-24.41,24c11.08,7.29,24.41,28.4,30.83,28.4a12.16,12.16,0,0,0,2.63-.29c1.26,0,1.75,1.17,1.75,2.33,0,1.85-2,3.31-5.06,3.31-9.14,0-24.8-24.32-34.05-29.86l-5,5V81c0,.77-.59,1.65-2.82,1.65-2.05,0-2.73-.88-2.73-1.65V22.28c0-.87.68-1.55,2.73-1.55,2.23,0,2.82.58,2.82,1.55Z"/><path class="cls-1" d="M322.05,60.8,309.31,81.43A2.26,2.26,0,0,1,307,82.69c-1.55,0-2.33-.88-2.33-2a2.66,2.66,0,0,1,.29-1.26L340.24,22c.39-.68.88-1.26,1.66-1.26H378a2.33,2.33,0,0,1,1.65,2.43A2.57,2.57,0,0,1,378,25.78h-32.2V55.65h27.14a2.57,2.57,0,0,1,1.65,2.62,2.4,2.4,0,0,1-1.65,2.53H345.79V77.63h34.53A2.53,2.53,0,0,1,382,80.16a2.33,2.33,0,0,1-1.65,2.53H341.9A1.58,1.58,0,0,1,340.24,81V60.8Zm18.19-4.86V31.33L325.07,55.94Z"/><path class="cls-1" d="M441.79,77.63c.68,0,1,1.27,1,1.85,0,2.14-3.3,3.21-5.44,3.21-9.63,0-13.23-15.66-25.1-20.72a49.18,49.18,0,0,1-6.52.39c-2.24,0-2.82-1.26-2.82-2.53,0-1.85.58-2.14,1.75-2.14,14.3,0,27-5.35,27-18.19,0-11.77-8.95-13.81-21.2-13.81h-9.34V81c0,1-.58,1.65-2.82,1.65-2,0-2.73-.58-2.73-1.65V22.38a1.54,1.54,0,0,1,1.66-1.65h13.42c14.59,0,26.75,4.28,26.75,18.58,0,11.09-8,18.09-18.29,21.2,9.34,5.74,12.36,17.41,20.34,17.41A12.34,12.34,0,0,0,441.79,77.63Z"/><path class="cls-1" d="M494.51,77.63a2.53,2.53,0,0,1,1.65,2.53,2.4,2.4,0,0,1-1.65,2.53H456.08A1.58,1.58,0,0,1,454.43,81V22.28c0-.87.68-1.55,2.73-1.55,2.23,0,2.82.58,2.82,1.55V77.63Z"/><path class="cls-1" d="M515.32,81c0,.77-.58,1.65-2.82,1.65-2,0-2.72-.88-2.72-1.65V22.28c0-.87.68-1.55,2.72-1.55,2.24,0,2.82.58,2.82,1.55Z"/><path class="cls-1" d="M537.11,53c0,17.61,11.28,25.68,26,25.68,11.09,0,18.29-7,18.29-10.5V59.73H569.11a2.76,2.76,0,0,1,0-5h16a1.59,1.59,0,0,1,1.66,1.65V68.78c0,5.84-10.7,14.88-24,14.88-16.64,0-31.42-10.6-31.42-30.64,0-23.34,16.44-33.36,32-33.36,12.75,0,21,7.39,21,16.14,0,4.19-1.65,6.42-3.69,6.42-1.46,0-2.53-.58-2.53-1.75s.87-1.65.87-4.08c0-6.91-5.54-11.68-15.66-11.68C550,24.71,537.11,31.91,537.11,53Z"/><path class="cls-1" d="M602.86,22.28c0-.78.68-1.65,2.72-1.65,2.24,0,2.82.87,2.82,1.65V54.77h40.47V22.28c0-.78.68-1.65,2.72-1.65,2.24,0,2.83.87,2.83,1.65V81c0,.77-.59,1.65-2.83,1.65-2,0-2.72-.88-2.72-1.65V59.83H608.4V81c0,.77-.58,1.65-2.82,1.65-2,0-2.72-.88-2.72-1.65Z"/><path class="cls-1" d="M712,77.63a2.53,2.53,0,0,1,1.65,2.53A2.4,2.4,0,0,1,712,82.69H673.57A1.58,1.58,0,0,1,671.92,81V22.38a1.53,1.53,0,0,1,1.65-1.65h36.09a2.33,2.33,0,0,1,1.65,2.43,2.57,2.57,0,0,1-1.65,2.62h-32.2V55.65H704.6a2.57,2.57,0,0,1,1.66,2.62,2.4,2.4,0,0,1-1.66,2.53H677.46V77.63Z"/><path class="cls-1" d="M728.92,82.69A1.58,1.58,0,0,1,727.26,81V22.38a1.53,1.53,0,0,1,1.66-1.65h16c21.2,0,36.87,7.78,36.87,30.25,0,17.22-9,31.71-34.83,31.71Zm18-5c22.57,0,29.18-11.87,29.18-26.75,0-19.17-12.25-25.29-31.22-25.29H732.81v52Z"/></svg>