<svg id="Layer_1" data-name="Layer 1" xmlns="http://www.w3.org/2000/svg" width="580" height="170" viewBox="0 0 580 170"><defs><style>.cls-1{fill:#c76c3f;}</style></defs><path class="cls-1" d="M56.81,33.27c0-14.59-11.29-18.19-27.82-18.19H18.29V80.45s0,2.24-2.92,2.24-2.92-2.24-2.92-2.24V11.68a1.84,1.84,0,0,1,2-1.95H29c19.84,0,33.65,6,33.65,23.74,0,20.13-18.19,27.92-36.77,27.92-2.62,0-3.4-1-3.4-2.53,0-1.85.78-2.63,3.31-2.63C41.05,56.23,56.81,50.88,56.81,33.27Z"/><path class="cls-1" d="M76.74,51.85c0-19.06,14.89-32.19,30.84-32.19s30.74,13.13,30.74,32.19c0,18.88-14,31.71-30.74,31.71S76.74,70.73,76.74,51.85Zm56.13,0c0-16.44-11.57-27.14-25.29-27.14S82.29,35.41,82.29,51.85C82.29,68,94,78.51,107.58,78.51S132.87,68,132.87,51.85Z"/><path class="cls-1" d="M174.79,78.7c11.09,0,18.48-5.06,18.48-12.55,0-16.53-38.71-9.82-38.71-29.57,0-10,8.75-16.92,21.79-16.92,10.79,0,18.19,5.44,18.19,11.86,0,3.89-3.21,6.52-5,6.52-1.45,0-1.94-.68-1.94-1.36,0-1.17,1.46-1.56,1.46-4.87,0-4.18-4.86-7.39-12.74-7.39C168.08,24.42,160,28,160,35.61c0,16.24,38.72,9.43,38.72,29.77,0,9.92-8.37,18.28-23.74,18.28-13.52,0-22.56-4.67-22.56-13.42,0-5.55,3.6-8,5.15-8a1.75,1.75,0,0,1,1.85,1.66c0,1.16-1.75,2.72-1.75,5.35C157.67,75.2,164.19,78.7,174.79,78.7Z"/><path class="cls-1" d="M219.82,81c0,.77-.58,1.65-2.82,1.65-2,0-2.72-.88-2.72-1.65V22.28c0-.87.68-1.55,2.72-1.55,2.24,0,2.82.58,2.82,1.55Z"/><path class="cls-1" d="M257.47,25.69V81c0,.87-.68,1.65-2.82,1.65s-2.73-.78-2.73-1.65V25.69H233.15a2.4,2.4,0,0,1-1.66-2.53,2.34,2.34,0,0,1,1.66-2.43h43a2.34,2.34,0,0,1,1.66,2.43,2.4,2.4,0,0,1-1.66,2.53Z"/><path class="cls-1" d="M295,81c0,.77-.58,1.65-2.82,1.65-2,0-2.72-.88-2.72-1.65V22.28c0-.87.68-1.55,2.72-1.55,2.24,0,2.82.58,2.82,1.55Z"/><path class="cls-1" d="M312.81,22.57,337.52,75.1l24.71-52.82a2.54,2.54,0,0,1,2.52-1.55c1.56,0,2.44.77,2.44,1.84a2.61,2.61,0,0,1-.3,1.27L339.27,82.69c-.29.58-.88.87-1.95.87s-1.55-.29-1.84-.87L307.85,23.84a2.42,2.42,0,0,1-.29-1.36c0-.78.68-1.75,2.53-1.75A2.54,2.54,0,0,1,312.81,22.57Z"/><path class="cls-1" d="M385.27,81c0,.77-.58,1.65-2.82,1.65-2,0-2.72-.88-2.72-1.65V22.28c0-.87.68-1.55,2.72-1.55,2.24,0,2.82.58,2.82,1.55Z"/><path class="cls-1" d="M422.92,25.69V81c0,.87-.68,1.65-2.82,1.65s-2.73-.78-2.73-1.65V25.69H398.6a2.4,2.4,0,0,1-1.66-2.53,2.34,2.34,0,0,1,1.66-2.43h43a2.34,2.34,0,0,1,1.66,2.43,2.4,2.4,0,0,1-1.66,2.53Z"/><path class="cls-1" d="M495,77.63a2.53,2.53,0,0,1,1.66,2.53A2.4,2.4,0,0,1,495,82.69H456.57A1.58,1.58,0,0,1,454.92,81V22.38a1.53,1.53,0,0,1,1.65-1.65h36.09a2.33,2.33,0,0,1,1.65,2.43,2.57,2.57,0,0,1-1.65,2.62h-32.2V55.65H487.6a2.57,2.57,0,0,1,1.66,2.62,2.4,2.4,0,0,1-1.66,2.53H460.46V77.63Z"/><path class="cls-1" d="M530.4,25.69V81c0,.87-.68,1.65-2.82,1.65s-2.73-.78-2.73-1.65V25.69H506.08a2.4,2.4,0,0,1-1.66-2.53,2.34,2.34,0,0,1,1.66-2.43h43a2.34,2.34,0,0,1,1.66,2.43,2.4,2.4,0,0,1-1.66,2.53Z"/></svg>