<svg id="Layer_1" data-name="Layer 1" xmlns="http://www.w3.org/2000/svg" width="790" height="170" viewBox="0 0 790 170"><defs><style>.cls-1{fill:#c76c3f;}</style></defs><path class="cls-1" d="M59.09,80.45s0,2.24-2.92,2.24-2.91-2.24-2.91-2.24V12s0-2.24,2.91-2.24S59.09,12,59.09,12Z"/><path class="cls-1" d="M83,21.8l41,51.26V22.28c0-.68.68-1.55,2.43-1.55s2.44.87,2.44,1.55v59c0,1-.78,1.46-2,1.46a3,3,0,0,1-2.62-1.56L82.44,29.77V81c0,.77-.59,1.65-2.44,1.65s-2.43-.78-2.43-1.65V22.38c0-.78.78-1.65,2.73-1.65A3.35,3.35,0,0,1,83,21.8Z"/><path class="cls-1" d="M148,82.69A1.58,1.58,0,0,1,146.34,81V22.38A1.53,1.53,0,0,1,148,20.73h16c21.2,0,36.86,7.78,36.86,30.25,0,17.22-9,31.71-34.82,31.71Zm18-5c22.57,0,29.18-11.87,29.18-26.75,0-19.17-12.26-25.29-31.22-25.29H151.88v52Z"/><path class="cls-1" d="M263.06,77.63c.68,0,1,1.27,1,1.85,0,2.14-3.31,3.21-5.45,3.21C249,82.69,245.36,67,233.49,62a49.18,49.18,0,0,1-6.52.39c-2.23,0-2.82-1.26-2.82-2.53,0-1.85.59-2.14,1.75-2.14,14.3,0,27-5.35,27-18.19,0-11.77-8.95-13.81-21.21-13.81H222.4V81c0,1-.58,1.65-2.82,1.65-2,0-2.72-.58-2.72-1.65V22.38a1.53,1.53,0,0,1,1.65-1.65h13.42c14.6,0,26.76,4.28,26.76,18.58,0,11.09-8,18.09-18.29,21.2,9.34,5.74,12.35,17.41,20.33,17.41A12.34,12.34,0,0,0,263.06,77.63Z"/><path class="cls-1" d="M315.78,77.63a2.53,2.53,0,0,1,1.65,2.53,2.4,2.4,0,0,1-1.65,2.53H277.36A1.58,1.58,0,0,1,275.7,81V22.38a1.53,1.53,0,0,1,1.66-1.65h36.09a2.33,2.33,0,0,1,1.65,2.43,2.57,2.57,0,0,1-1.65,2.62h-32.2V55.65h27.14A2.57,2.57,0,0,1,310,58.27a2.4,2.4,0,0,1-1.65,2.53H281.25V77.63Z"/><path class="cls-1" d="M362.85,50.88,392.42,21.5a2.56,2.56,0,0,1,1.76-.77A2.69,2.69,0,0,1,397,23.26a2.76,2.76,0,0,1-.78,1.65l-24.42,24c11.09,7.29,24.42,28.4,30.84,28.4a12,12,0,0,0,2.62-.29c1.27,0,1.76,1.17,1.76,2.33,0,1.85-2,3.31-5.06,3.31-9.15,0-24.81-24.32-34-29.86l-5.06,5V81c0,.77-.58,1.65-2.82,1.65-2,0-2.72-.88-2.72-1.65V22.28c0-.87.68-1.55,2.72-1.55,2.24,0,2.82.58,2.82,1.55Z"/><path class="cls-1" d="M410.9,51.85c0-19.06,14.89-32.19,30.84-32.19s30.74,13.13,30.74,32.19c0,18.88-14,31.71-30.74,31.71S410.9,70.73,410.9,51.85Zm56.13,0c0-16.44-11.58-27.14-25.29-27.14s-25.29,10.7-25.29,27.14c0,16.15,11.67,26.66,25.29,26.66S467,68,467,51.85Z"/><path class="cls-1" d="M519.84,80.35,493.58,32.69V81c0,1-.39,1.65-2.53,1.65S488.52,82,488.52,81V22.38c0-1.07,1.17-1.65,2.43-1.65,1.46,0,2.43.38,2.92,1.26l28.5,52,30-52.14a2.83,2.83,0,0,1,2.44-1.16c1.16,0,2.23.48,2.23,1.46V81c0,1.07-.68,1.65-2.72,1.65-2.24,0-2.82-.49-2.82-1.65V33.37L524,80.35a2.29,2.29,0,0,1-4.19,0Z"/><path class="cls-1" d="M580.05,81.13c0,.78-.58,1.66-2.82,1.66-2,0-2.73-.88-2.73-1.66V22.38a1.54,1.54,0,0,1,1.66-1.65h11.28c18.1,0,30.55,5.05,30.55,20.13,0,16.25-15.66,23.74-31.52,23.74-2.24,0-2.82-1.17-2.82-2.44,0-1.55.58-2.52,2.72-2.52,12.84,0,26.07-4.87,26.07-19,0-11.68-10.21-14.89-25-14.89h-7.39Z"/><path class="cls-1" d="M634.52,68.59l-5.35,11.67c-.78,1.75-1.46,2.43-3.41,2.43a2.12,2.12,0,0,1-2.33-2,2.66,2.66,0,0,1,.29-1.26L650.67,21.8c.48-1,1.07-2.14,2.53-2.14s1.94,1.16,2.43,2.23L683,79.48a2.66,2.66,0,0,1,.29,1.26,2.12,2.12,0,0,1-2.33,2A3,3,0,0,1,678,80.84l-5.74-12.25ZM637,63.43h32.88L653.29,28.22Z"/><path class="cls-1" d="M715.74,78.7c11.09,0,18.48-5.06,18.48-12.55,0-16.53-38.72-9.82-38.72-29.57,0-10,8.76-16.92,21.79-16.92,10.8,0,18.19,5.44,18.19,11.86,0,3.89-3.21,6.52-5,6.52-1.46,0-1.94-.68-1.94-1.36,0-1.17,1.46-1.56,1.46-4.87,0-4.18-4.87-7.39-12.75-7.39C709,24.42,701,28,701,35.61c0,16.24,38.72,9.43,38.72,29.77,0,9.92-8.37,18.28-23.74,18.28-13.52,0-22.57-4.67-22.57-13.42,0-5.55,3.6-8,5.16-8a1.75,1.75,0,0,1,1.85,1.66c0,1.16-1.75,2.72-1.75,5.35C698.62,75.2,705.13,78.7,715.74,78.7Z"/></svg>