<svg id="Layer_1" data-name="Layer 1" xmlns="http://www.w3.org/2000/svg" width="750" height="170" viewBox="0 0 750 170"><defs><style>.cls-1{fill:#c76c3f;}</style></defs><path class="cls-1" d="M36.23,78.31c12.74,0,22.08-6,22.08-15.27,0-10.41-10.61-12.64-21.6-16.24C25.14,43,13.27,40.57,13.27,27.15c0-10.7,8.56-18.39,24.41-18.39,14,0,21.11,6.91,21.11,14.5,0,4.57-2.62,7.39-5.15,7.39-1.07,0-2-.49-2-1.75,0-1.56,1.95-2.73,1.95-5.55,0-5-5.35-9.24-15.86-9.24-11.57,0-19.06,3.89-19.06,11.77,0,9.05,6.42,11.29,20.13,15.47,12.07,3.69,25,7,25,20.81,0,13-11.38,21.5-27.33,21.5-15.18,0-25.88-5.54-25.88-17.8,0-5.74,2.83-8.07,5.16-8.07,1.46,0,2.24.58,2.24,1.55,0,1.27-2.05,2-2.05,6.52C15.89,73.94,23.87,78.31,36.23,78.31Z"/><path class="cls-1" d="M121.33,77.63A2.53,2.53,0,0,1,123,80.16a2.4,2.4,0,0,1-1.66,2.53H82.91A1.58,1.58,0,0,1,81.26,81V22.38a1.53,1.53,0,0,1,1.65-1.65H119a2.33,2.33,0,0,1,1.65,2.43A2.57,2.57,0,0,1,119,25.78H86.8V55.65h27.14a2.57,2.57,0,0,1,1.66,2.62,2.4,2.4,0,0,1-1.66,2.53H86.8V77.63Z"/><path class="cls-1" d="M176.68,77.63a2.53,2.53,0,0,1,1.65,2.53,2.4,2.4,0,0,1-1.65,2.53H138.25A1.58,1.58,0,0,1,136.6,81V22.28c0-.87.68-1.55,2.72-1.55,2.24,0,2.83.58,2.83,1.55V77.63Z"/><path class="cls-1" d="M183,22.57,207.7,75.1l24.71-52.82a2.57,2.57,0,0,1,2.53-1.55c1.56,0,2.43.77,2.43,1.84a2.68,2.68,0,0,1-.29,1.27L209.46,82.69c-.3.58-.88.87-2,.87s-1.56-.29-1.85-.87L178,23.84a2.36,2.36,0,0,1-.3-1.36c0-.78.69-1.75,2.53-1.75A2.55,2.55,0,0,1,183,22.57Z"/><path class="cls-1" d="M297.39,22.28c0-.87.39-1.55,2.53-1.55s2.52.87,2.52,1.55V62.65c0,11-10.21,20.91-26.36,20.91-16.63,0-26.16-9.92-26.16-20.91V22.28c0-.78.68-1.55,2.72-1.55,2.24,0,2.82.68,2.82,1.55V62.46c0,8.75,6.81,16.14,20.62,16.14,13.52,0,21.31-7.39,21.31-16.14Z"/><path class="cls-1" d="M321.6,82.69A1.58,1.58,0,0,1,320,81V22.38a1.53,1.53,0,0,1,1.65-1.65h15.95c21.21,0,36.87,7.78,36.87,30.25,0,17.22-9.05,31.71-34.82,31.71Zm18-5c22.56,0,29.18-11.87,29.18-26.75,0-19.17-12.26-25.29-31.23-25.29H325.49v52Z"/><path class="cls-1" d="M389.4,22.57,414.1,75.1l24.71-52.82a2.57,2.57,0,0,1,2.53-1.55c1.56,0,2.43.77,2.43,1.84a2.68,2.68,0,0,1-.29,1.27L415.85,82.69c-.29.58-.87.87-1.94.87s-1.56-.29-1.85-.87L384.44,23.84a2.36,2.36,0,0,1-.3-1.36c0-.78.68-1.75,2.53-1.75A2.55,2.55,0,0,1,389.4,22.57Z"/><path class="cls-1" d="M461.86,81c0,.77-.58,1.65-2.82,1.65-2,0-2.72-.88-2.72-1.65V22.28c0-.87.68-1.55,2.72-1.55,2.24,0,2.82.58,2.82,1.55Z"/><path class="cls-1" d="M484.91,50.88,514.48,21.5a2.56,2.56,0,0,1,1.76-.77,2.69,2.69,0,0,1,2.82,2.53,2.76,2.76,0,0,1-.78,1.65l-24.42,24c11.09,7.29,24.42,28.4,30.84,28.4a12,12,0,0,0,2.62-.29c1.27,0,1.76,1.17,1.76,2.33,0,1.85-2.05,3.31-5.06,3.31-9.15,0-24.81-24.32-34-29.86l-5.06,5V81c0,.77-.58,1.65-2.82,1.65-2,0-2.72-.88-2.72-1.65V22.28c0-.87.68-1.55,2.72-1.55,2.24,0,2.82.58,2.82,1.55Z"/><path class="cls-1" d="M579.85,77.63a2.53,2.53,0,0,1,1.65,2.53,2.4,2.4,0,0,1-1.65,2.53H541.42A1.58,1.58,0,0,1,539.77,81V22.28c0-.87.68-1.55,2.72-1.55,2.24,0,2.83.58,2.83,1.55V77.63Z"/><path class="cls-1" d="M600.66,81c0,.77-.58,1.65-2.82,1.65-2,0-2.73-.88-2.73-1.65V22.28c0-.87.69-1.55,2.73-1.55,2.24,0,2.82.58,2.82,1.55Z"/><path class="cls-1" d="M623.61,21.8l41,51.26V22.28c0-.68.68-1.55,2.43-1.55s2.43.87,2.43,1.55v59c0,1-.78,1.46-2,1.46a3,3,0,0,1-2.63-1.56L623,29.77V81c0,.77-.58,1.65-2.43,1.65s-2.43-.78-2.43-1.65V22.38c0-.78.78-1.65,2.72-1.65A3.32,3.32,0,0,1,623.61,21.8Z"/><path class="cls-1" d="M691.21,53c0,17.61,11.29,25.68,26,25.68,11.09,0,18.28-7,18.28-10.5V59.73H723.22a2.75,2.75,0,0,1,0-5h16a1.58,1.58,0,0,1,1.65,1.65V68.78c0,5.84-10.7,14.88-24,14.88-16.64,0-31.42-10.6-31.42-30.64,0-23.34,16.43-33.36,32-33.36,12.74,0,21,7.39,21,16.14,0,4.19-1.65,6.42-3.7,6.42-1.46,0-2.53-.58-2.53-1.75s.88-1.65.88-4.08c0-6.91-5.54-11.68-15.66-11.68C704.05,24.71,691.21,31.91,691.21,53Z"/></svg>