<svg id="Layer_1" data-name="Layer 1" xmlns="http://www.w3.org/2000/svg" width="420" height="170" viewBox="0 0 420 170"><defs><style>.cls-1{fill:#c76c3f;}</style></defs><path class="cls-1" d="M11.62,22.57,36.33,75.1,61,22.28a2.57,2.57,0,0,1,2.53-1.55c1.56,0,2.43.77,2.43,1.84a2.68,2.68,0,0,1-.29,1.27L38.08,82.69c-.29.58-.87.87-1.94.87s-1.56-.29-1.85-.87L6.66,23.84a2.42,2.42,0,0,1-.29-1.36c0-.78.68-1.75,2.53-1.75A2.53,2.53,0,0,1,11.62,22.57Z"/><path class="cls-1" d="M86,60.8,73.29,81.43A2.25,2.25,0,0,1,71,82.69c-1.56,0-2.34-.88-2.34-2a2.59,2.59,0,0,1,.3-1.26L104.23,22c.39-.68.87-1.26,1.65-1.26H142a2.33,2.33,0,0,1,1.65,2.43A2.57,2.57,0,0,1,142,25.78h-32.2V55.65h27.14a2.57,2.57,0,0,1,1.65,2.62,2.4,2.4,0,0,1-1.65,2.53H109.77V77.63H144.3A2.53,2.53,0,0,1,146,80.16a2.32,2.32,0,0,1-1.66,2.53H105.88A1.58,1.58,0,0,1,104.23,81V60.8Zm18.19-4.86V31.33L89.05,55.94Z"/><path class="cls-1" d="M205.77,77.63c.69,0,1,1.27,1,1.85,0,2.14-3.31,3.21-5.45,3.21-9.63,0-13.23-15.66-25.1-20.72a49,49,0,0,1-6.51.39c-2.24,0-2.82-1.26-2.82-2.53,0-1.85.58-2.14,1.75-2.14,14.3,0,27-5.35,27-18.19,0-11.77-8.95-13.81-21.21-13.81h-9.34V81c0,1-.58,1.65-2.82,1.65-2,0-2.72-.58-2.72-1.65V22.38a1.53,1.53,0,0,1,1.65-1.65h13.43c14.59,0,26.75,4.28,26.75,18.58,0,11.09-8,18.09-18.29,21.2,9.34,5.74,12.35,17.41,20.33,17.41A12.34,12.34,0,0,0,205.77,77.63Z"/><path class="cls-1" d="M220.07,82.69A1.58,1.58,0,0,1,218.42,81V22.38a1.53,1.53,0,0,1,1.65-1.65h16c21.21,0,36.87,7.78,36.87,30.25,0,17.22-9.05,31.71-34.83,31.71Zm18-5c22.57,0,29.19-11.87,29.19-26.75,0-19.17-12.26-25.29-31.23-25.29H224v52Z"/><path class="cls-1" d="M294.48,81c0,.77-.59,1.65-2.82,1.65-2.05,0-2.73-.88-2.73-1.65V22.28c0-.87.68-1.55,2.73-1.55,2.23,0,2.82.58,2.82,1.55Z"/><path class="cls-1" d="M352.06,77.63a2.53,2.53,0,0,1,1.66,2.53,2.4,2.4,0,0,1-1.66,2.53H313.64A1.58,1.58,0,0,1,312,81V22.38a1.53,1.53,0,0,1,1.65-1.65h36.09a2.33,2.33,0,0,1,1.65,2.43,2.57,2.57,0,0,1-1.65,2.62h-32.2V55.65h27.14a2.57,2.57,0,0,1,1.65,2.62,2.4,2.4,0,0,1-1.65,2.53H317.53V77.63Z"/><path class="cls-1" d="M413.54,77.63c.68,0,1,1.27,1,1.85,0,2.14-3.31,3.21-5.45,3.21C399.43,82.69,395.83,67,384,62a49,49,0,0,1-6.51.39c-2.24,0-2.82-1.26-2.82-2.53,0-1.85.58-2.14,1.75-2.14,14.3,0,27-5.35,27-18.19,0-11.77-8.95-13.81-21.21-13.81h-9.33V81c0,1-.59,1.65-2.83,1.65-2,0-2.72-.58-2.72-1.65V22.38A1.53,1.53,0,0,1,369,20.73h13.43c14.59,0,26.75,4.28,26.75,18.58,0,11.09-8,18.09-18.29,21.2,9.34,5.74,12.35,17.41,20.33,17.41A12.65,12.65,0,0,0,413.54,77.63Z"/></svg>