<svg id="Layer_1" data-name="Layer 1" xmlns="http://www.w3.org/2000/svg" width="410" height="170" viewBox="0 0 410 170"><defs><style>.cls-1{fill:#c76c3f;}</style></defs><path class="cls-1" d="M52.59,77.34A2.34,2.34,0,0,1,54.83,80c0,2.72-2.24,2.72-2.24,2.72H11.93a1.84,1.84,0,0,1-1.95-2V12s0-2.24,2.92-2.24S15.82,12,15.82,12V77.34Z"/><path class="cls-1" d="M107.54,77.63a2.53,2.53,0,0,1,1.66,2.53,2.4,2.4,0,0,1-1.66,2.53H69.12A1.58,1.58,0,0,1,67.47,81V22.38a1.53,1.53,0,0,1,1.65-1.65h36.09a2.33,2.33,0,0,1,1.65,2.43,2.57,2.57,0,0,1-1.65,2.62H73V55.65h27.14a2.57,2.57,0,0,1,1.66,2.62,2.4,2.4,0,0,1-1.66,2.53H73V77.63Z"/><path class="cls-1" d="M124.46,82.69A1.58,1.58,0,0,1,122.81,81V22.38a1.53,1.53,0,0,1,1.65-1.65h16c21.2,0,36.87,7.78,36.87,30.25,0,17.22-9,31.71-34.83,31.71Zm18-5c22.57,0,29.18-11.87,29.18-26.75,0-19.17-12.25-25.29-31.22-25.29H128.36v52Z"/><path class="cls-1" d="M233.41,77.63a2.53,2.53,0,0,1,1.65,2.53,2.4,2.4,0,0,1-1.65,2.53H195A1.58,1.58,0,0,1,193.33,81V22.38A1.53,1.53,0,0,1,195,20.73h36.09a2.34,2.34,0,0,1,1.66,2.43,2.57,2.57,0,0,1-1.66,2.62h-32.2V55.65H226a2.57,2.57,0,0,1,1.66,2.62A2.4,2.4,0,0,1,226,60.8H198.87V77.63Z"/><path class="cls-1" d="M288.75,77.63a2.53,2.53,0,0,1,1.65,2.53,2.4,2.4,0,0,1-1.65,2.53H250.33A1.58,1.58,0,0,1,248.67,81V22.28c0-.87.68-1.55,2.73-1.55,2.23,0,2.82.58,2.82,1.55V77.63Z"/><path class="cls-1" d="M323.67,78.7c11.09,0,18.48-5.06,18.48-12.55,0-16.53-38.72-9.82-38.72-29.57,0-10,8.76-16.92,21.79-16.92,10.8,0,18.19,5.44,18.19,11.86,0,3.89-3.21,6.52-5,6.52-1.46,0-1.94-.68-1.94-1.36,0-1.17,1.46-1.56,1.46-4.87,0-4.18-4.87-7.39-12.75-7.39-8.26,0-16.34,3.6-16.34,11.19,0,16.24,38.72,9.43,38.72,29.77,0,9.92-8.37,18.28-23.74,18.28-13.52,0-22.57-4.67-22.57-13.42,0-5.55,3.6-8,5.16-8a1.75,1.75,0,0,1,1.85,1.66c0,1.16-1.75,2.72-1.75,5.35C306.55,75.2,313.06,78.7,323.67,78.7Z"/><path class="cls-1" d="M403.23,77.63a2.53,2.53,0,0,1,1.66,2.53,2.4,2.4,0,0,1-1.66,2.53H364.81A1.58,1.58,0,0,1,363.16,81V22.38a1.53,1.53,0,0,1,1.65-1.65H400.9a2.33,2.33,0,0,1,1.65,2.43,2.57,2.57,0,0,1-1.65,2.62H368.7V55.65h27.14a2.57,2.57,0,0,1,1.65,2.62,2.4,2.4,0,0,1-1.65,2.53H368.7V77.63Z"/></svg>