<svg id="Layer_1" data-name="Layer 1" xmlns="http://www.w3.org/2000/svg" width="350" height="170" viewBox="0 0 350 170"><defs><style>.cls-1{fill:#c76c3f;}</style></defs><path class="cls-1" d="M16.07,81.13c0,.78-.59,1.66-2.82,1.66-2.05,0-2.73-.88-2.73-1.66V22.38a1.53,1.53,0,0,1,1.66-1.65H23.46C41.55,20.73,54,25.78,54,40.86,54,57.11,38.34,64.6,22.49,64.6c-2.24,0-2.82-1.17-2.82-2.44,0-1.55.58-2.52,2.72-2.52,12.84,0,26.07-4.87,26.07-19,0-11.68-10.21-14.89-25-14.89H16.07Z"/><path class="cls-1" d="M67.13,51.85C67.13,32.79,82,19.66,98,19.66s30.74,13.13,30.74,32.19c0,18.88-14,31.71-30.74,31.71S67.13,70.73,67.13,51.85Zm56.13,0c0-16.44-11.58-27.14-25.29-27.14S72.68,35.41,72.68,51.85C72.68,68,84.35,78.51,98,78.51S123.26,68,123.26,51.85Z"/><path class="cls-1" d="M187.55,25.78l19.07,49.71,18.58-53a2.36,2.36,0,0,1,2.53-1.75c2,0,2.53.68,2.53,1.55a4.76,4.76,0,0,1-.3,1.17L209.24,81.91a2.67,2.67,0,0,1-2.62,1.65,2.81,2.81,0,0,1-2.73-1.45l-19.65-50-19,50a2.66,2.66,0,0,1-2.63,1.45c-1.56,0-2.24-.29-2.72-1.65L139,23.74a4.86,4.86,0,0,1-.29-1.36c0-1.46,1.46-1.65,2.72-1.65,1.85,0,2.44.58,2.82,1.75L162.94,75.3l18.87-49.52c.2-.58,1.17-.87,2.53-.87S187.26,25,187.55,25.78Z"/><path class="cls-1" d="M282.87,77.63a2.53,2.53,0,0,1,1.66,2.53,2.4,2.4,0,0,1-1.66,2.53H244.45A1.58,1.58,0,0,1,242.8,81V22.38a1.53,1.53,0,0,1,1.65-1.65h36.09a2.33,2.33,0,0,1,1.65,2.43,2.57,2.57,0,0,1-1.65,2.62h-32.2V55.65h27.14a2.57,2.57,0,0,1,1.65,2.62,2.4,2.4,0,0,1-1.65,2.53H248.34V77.63Z"/><path class="cls-1" d="M344.35,77.63c.68,0,1,1.27,1,1.85,0,2.14-3.31,3.21-5.45,3.21-9.63,0-13.23-15.66-25.1-20.72a49,49,0,0,1-6.51.39c-2.24,0-2.82-1.26-2.82-2.53,0-1.85.58-2.14,1.75-2.14,14.3,0,27-5.35,27-18.19,0-11.77-9-13.81-21.21-13.81h-9.33V81c0,1-.59,1.65-2.83,1.65-2,0-2.72-.58-2.72-1.65V22.38a1.53,1.53,0,0,1,1.65-1.65h13.43C327.81,20.73,340,25,340,39.31c0,11.09-8,18.09-18.29,21.2C331,66.25,334,77.92,342,77.92A12.65,12.65,0,0,0,344.35,77.63Z"/></svg>