<svg xmlns="http://www.w3.org/2000/svg" width="420" height="420" viewBox="0 0 420 420"><defs><style>.cls-1{fill:#add3e0;}.cls-2,.cls-3{fill:none;stroke:#749cae;stroke-miterlimit:10;}.cls-2{stroke-width:20px;}.cls-3{stroke-width:19px;}</style></defs><g id="Layer_3" data-name="Layer 3"><circle class="cls-1" cx="212.78" cy="209.92" r="198.51"/><circle class="cls-2" cx="210" cy="210" r="198.51"/><path class="cls-3" d="M178,372c-45.33-8.77-79.54-43.41-86.24-85.08-7.15-44.59,20.32-77.7,24-81.95,34.72-40.48,97.4-42.77,137.6-21,38.86,21,38.47,55.91,77.22,71,29.23,11.36,58.92,3.2,79.68-5.66"/><path class="cls-3" d="M150.33,362.86c48.37,22.19,98.84,7.62,117.36-24.95,13.79-24.26,14.12-66-13-84.64-28.41-19.54-75.68-6.11-84.48,20.4-7,21,8.86,54.53,30.19,55.27,14.66.51,30.8-14.51,36.74-37.09"/></g></svg>