<svg xmlns="http://www.w3.org/2000/svg" width="1080" height="1080" viewBox="0 0 1080 1080"><defs><style>.cls-1{opacity:0.3;}.cls-2,.cls-3,.cls-5{fill:none;stroke-miterlimit:10;}.cls-2,.cls-3{stroke:#1d1d1b;}.cls-2{stroke-width:11px;}.cls-3{stroke-width:3px;}.cls-4{fill:#010101;}.cls-5{stroke:#010101;stroke-width:2px;}</style></defs><g id="Layer_2" data-name="Layer 2"><g class="cls-1"><circle class="cls-2" cx="539.74" cy="570.08" r="198.51"/><path class="cls-2" d="M341.22,570.08c55.59-40.78,95.84-44,122.45-39.23,68.27,12.18,87.21,84,157.76,97.69,45,8.73,86.83-10.8,115.05-28.53"/><path class="cls-2" d="M348.55,623.68c33-27.53,82.15-59.12,132.9-49,58.92,11.75,75.52,71,132.6,79.59C658.63,661,701.76,632.8,736.48,600"/><path class="cls-2" d="M367.11,668.16c26.05-24.38,63.08-50.22,105.32-47.11,60.22,4.43,81.53,65.68,135.11,69.72,28,2.11,71-10.79,128.94-90.76"/><path class="cls-2" d="M475.43,757.94c-23.49-6.84-40.24-24.3-42.47-44.07-2.45-21.58,12.63-43.75,30.59-50.78,44-17.23,84,64.52,144,64.19,31.54-.17,75.78-23,128.94-127.27"/><path class="cls-2" d="M485.73,761.18c15.35,4.42,31-2.11,37.4-14.5,6.59-12.81,3.25-31.91-9.35-37.41-11.73-5.11-29.29,2.52-31.33,14-1.79,10.1,8.39,23,15.9,21.51,4.94-1,8.78-8.17,9.82-17.3"/></g></g><g id="Layer_1" data-name="Layer 1"><circle class="cls-3" cx="536.96" cy="564.68" r="198.51"/><path class="cls-4" d="M262.26,523.59c-.79,7.91,2.82,16.06,15.66,17.34,10.75,1.07,16.34-5.66,17.2-14.32A15.65,15.65,0,0,0,291,514.8a1.21,1.21,0,0,1-.4-1.1,1.15,1.15,0,0,1,1.27-1.08,3.45,3.45,0,0,1,1.7,1.08,17.34,17.34,0,0,1,4.24,13.38c-1,10.2-8.13,18-20.22,16.83-14-1.4-19-11.24-18.1-20.6.72-7.21,5.06-11.9,10.28-11.38,2.24.22,3.93,1.44,3.82,2.59-.08.74-.53,1.2-1.17,1.14a7.83,7.83,0,0,0-2.54-.76C265.74,514.34,262.79,518.26,262.26,523.59Z"/><path class="cls-4" d="M305.53,447.61l11,5.88s1,.55.31,1.87-1.72.78-1.72.78l-31.06-16.57s-1-.55-.3-1.87,1.72-.78,1.72-.78l17.6,9.39,11.54-21.61L297,415.3s-1-.54-.3-1.86,1.72-.78,1.72-.78l31.05,16.57s1,.54.31,1.87-1.72.78-1.72.78l-11-5.89Z"/><path class="cls-4" d="M366.12,374.21l2.18,7.87c.13.54.22,1.05-.74,1.85a1.14,1.14,0,0,1-1.73-.06,1.45,1.45,0,0,1-.21-.48l-9.91-36.87c-.26-1-.35-1.6.58-2.37a1.93,1.93,0,0,1,2.32-.17l34.54,16.54a2.39,2.39,0,0,1,.57.44c.19.23.6.73-.4,1.56a1.74,1.74,0,0,1-1.95.39L384,359.32Zm-.8-2.91,16-13.3-22.73-11.08Z"/><path class="cls-4" d="M470.09,323.27c.38-.12.77.28.91.71.42,1.28-.93,2.62-2.78,3.22-4.33,1.41-10.18-6.83-16.54-8.11a26.69,26.69,0,0,1-4.54,1.9c-1.28.42-1.82.07-2.06-.69-.36-1.1,0-1.41.62-1.63,8-2.61,14.71-8.28,12.38-15.41-2.27-6.94-8.17-6.64-16.82-3.81l-3.8,1.24,10.44,31.94s.35,1.09-1.07,1.56-1.79-.63-1.79-.63l-11-33.6a1,1,0,0,1,.64-1.26l5.71-1.87c10.26-3.35,17.73-3.05,20.55,5.6,1.93,5.89-1.09,11.14-6.13,14.73,5.86,2,10.55,7.81,13.55,6.83A12,12,0,0,0,470.09,323.27Z"/><path class="cls-4" d="M551.07,317.2a1.2,1.2,0,0,1,1.1,1.39c-.06,1.4-1.21,1.35-1.21,1.35l-20.88-.81a.94.94,0,0,1-1-1l1.37-35.32s0-1.15,1.55-1.1,1.45,1.21,1.45,1.21l-1.3,33.57Z"/><path class="cls-4" d="M612.55,313.79c4.54-10.57,15.68-14.33,24.55-10.52s13.81,14.47,9.27,25-15.14,14.34-24.46,10.34S608.06,324.26,612.55,313.79Zm31.06,13.34c3.91-9.1.21-18-7.6-21.33s-16.79.07-20.7,9.17,0,17.83,7.68,21.15S639.77,336.08,643.61,327.13Z"/><path class="cls-4" d="M719.19,362.58l-23.54,24s-.81.82-1.88-.23-.26-1.87-.26-1.87l23.54-24-8.1-8a1.2,1.2,0,0,1,.13-1.77,1.22,1.22,0,0,1,1.8-.19l18.34,18a1.4,1.4,0,0,1-1.93,2Z"/><path class="cls-4" d="M773.61,440l-30.38,14.34s-1,.49-1.68-.86.4-1.85.4-1.85l30.38-14.35-4.85-10.26a1.2,1.2,0,0,1,.73-1.62,1.23,1.23,0,0,1,1.76.45l11,23.24a1.21,1.21,0,0,1-.77,1.63,1.19,1.19,0,0,1-1.71-.46Z"/><path class="cls-4" d="M766.76,545.72A1.4,1.4,0,0,1,764,546l-1.9-22.88A.94.94,0,0,1,763,522l35.38-2.94a.94.94,0,0,1,1.08.91l1.79,21.43a1.3,1.3,0,0,1-1.25,1.26,1.37,1.37,0,0,1-1.54-1l-1.63-19.48-18.48,1.54,1.37,16.54a1.28,1.28,0,0,1-1.25,1.26,1.31,1.31,0,0,1-1.49-1l-1.38-16.55-10.61.89Z"/><path class="cls-4" d="M375.9,767.79,373,799.2l24.89-22.63a1.69,1.69,0,0,1,2-.37,1.13,1.13,0,0,1,.54,1.61,2.58,2.58,0,0,1-.68.78L372,803.85a1,1,0,0,1-1.36.15c-.49-.24-.87-.49-.8-1.07l2.91-32.46-24.31,21.68c-.42.41-.94.2-1.43,0s-.91-.52-.82-1.26L350,753.34a2,2,0,0,1,.21-.74,1.33,1.33,0,0,1,1.83-.53c.67.33,1,.9.87,2.06l-3.43,33.6,23.86-21.24a1.42,1.42,0,0,1,1.49-.09A1.75,1.75,0,0,1,375.9,767.79Z"/><path class="cls-4" d="M468.36,823.76l-4.19,7c-.3.47-.6.89-1.84.75a1.15,1.15,0,0,1-1.16-1.3,1.49,1.49,0,0,1,.21-.48l19.81-32.64c.56-.89.91-1.35,2.1-1.22a2,2,0,0,1,1.74,1.56l11.91,36.4a2.41,2.41,0,0,1,.06.71c0,.3-.1,1-1.39.8a1.74,1.74,0,0,1-1.63-1.14l-2.48-7.79Zm1.55-2.58,20.66,2.38-7.69-24.09Z"/><path class="cls-4" d="M580.22,817.27l2.58,12.23s.23,1.13-1.23,1.44-1.71-.82-1.71-.82l-7.25-34.44s-.24-1.12,1.23-1.43,1.71.81,1.71.81l4.11,19.52,24-5.05L599.52,790s-.24-1.12,1.23-1.43,1.7.82,1.7.82l7.25,34.44s.24,1.12-1.23,1.43-1.7-.82-1.7-.82l-2.58-12.23Z"/><path class="cls-4" d="M707.42,780.54a1.4,1.4,0,0,1,1.37,2.39l-18.16,10.35a1,1,0,0,1-1.37-.37L671.75,762.2s-.56-1,.74-1.74,1.87.25,1.87.25L691,789.9Z"/><circle class="cls-5" cx="763.52" cy="654.01" r="5.96"/><circle class="cls-5" cx="296.19" cy="656.59" r="5.96"/><path class="cls-3" d="M338.45,564.68c55.59-40.78,95.84-44,122.44-39.23,68.27,12.18,87.22,84,157.76,97.69,45,8.73,86.83-10.8,115.05-28.53"/><path class="cls-3" d="M345.77,618.28c33-27.53,82.15-59.12,132.9-49,58.93,11.75,75.53,71,132.6,79.59,44.59,6.71,87.71-21.46,122.43-54.25"/><path class="cls-3" d="M364.33,662.76c26.05-24.38,63.09-50.22,105.32-47.11,60.22,4.43,81.53,65.68,135.11,69.72,28,2.11,71-10.78,128.94-90.76"/><path class="cls-3" d="M472.65,752.54c-23.48-6.84-40.23-24.3-42.47-44.07-2.44-21.58,12.64-43.75,30.6-50.78,44-17.23,84,64.52,144,64.19,31.55-.17,75.79-23,128.94-127.27"/><path class="cls-3" d="M483,755.78c15.35,4.42,31-2.11,37.4-14.5,6.59-12.81,3.25-31.91-9.35-37.41-11.72-5.11-29.29,2.52-31.32,14-1.79,10.1,8.38,23,15.89,21.51,4.94-1,8.79-8.17,9.82-17.3"/></g></svg>