<svg xmlns="http://www.w3.org/2000/svg" width="750" height="750" viewBox="0 0 750 750"><defs><style>.cls-1{fill:#94c2d3;}.cls-2{fill:#add3e0;}.cls-3,.cls-4{fill:none;stroke-miterlimit:10;}.cls-3{stroke:#e2f2f7;stroke-width:4px;}.cls-4{stroke:#749cae;stroke-width:5px;}</style></defs><g id="Layer_1" data-name="Layer 1"><circle class="cls-1" cx="377.64" cy="374.92" r="198.51"/><path class="cls-2" d="M416.86,569.82c-69.45,15.22-126-16.41-137.32-23.07C187,492.39,179.6,384.17,179.13,374.92A135.78,135.78,0,0,1,220,343.25s30.19-15.14,66.26-14.26c80.79,2,108.53,92.24,184.53,100.65,23.6,2.62,58.56-1.91,104.43-37.7C558.11,482.22,495.62,552.55,416.86,569.82Z"/><path class="cls-3" d="M176.35,375c55.59-40.77,95.84-44,122.44-39.23,67.58,12.06,86.41,83.67,157.77,97.69,42.65,8.38,82.42-8,110.56-24.25"/><path class="cls-3" d="M183.67,428.6c33-27.53,82.15-59.12,132.9-49,58.81,11.72,75.43,71,132.6,79.58,46.54,7,89.75-24.07,118-50"/><path class="cls-3" d="M202.23,473.08c26.05-24.37,63.09-50.22,105.33-47.11,60.09,4.42,81.4,66,135.11,69.72,27.55,1.9,69.19-10.9,124.45-86.48"/><path class="cls-3" d="M310.56,558.76c-23.49-6.66-40.24-23.67-42.48-42.93-2.44-21,12.64-42.6,30.6-49.46,44.27-16.89,84,63.25,144,62.53,30.6-.37,73.44-22,124.45-119.69"/><path class="cls-3" d="M310.56,558.76c19.65,8.91,40.5,2.44,47.7-11,6.26-11.66,3.48-31-9.35-36.43-11.73-5-29.29,2.45-31.33,13.66-1.79,9.83,8.39,22.39,15.9,21,4.93-1,8.78-8,9.82-16.85"/><circle class="cls-4" cx="374.86" cy="375" r="198.51"/></g></svg>