<svg xmlns="http://www.w3.org/2000/svg" width="750" height="750" viewBox="0 0 750 750"><defs><style>.cls-1{opacity:0.3;}.cls-2,.cls-3,.cls-5{fill:none;stroke-miterlimit:10;}.cls-2,.cls-3{stroke:#1d1d1b;}.cls-2{stroke-width:11px;}.cls-3{stroke-width:3px;}.cls-4{fill:#010101;}.cls-5{stroke:#010101;stroke-width:2px;}</style></defs><g id="Layer_2" data-name="Layer 2"><g class="cls-1"><circle class="cls-2" cx="377.95" cy="397.41" r="198.51"/><path class="cls-2" d="M179.43,397.41c55.59-40.77,95.84-44,122.45-39.23,68.27,12.19,87.21,84,157.76,97.69,45,8.73,86.83-10.8,115.05-28.53"/><path class="cls-2" d="M186.76,451c33-27.52,82.15-59.11,132.9-49,58.92,11.74,75.52,71,132.6,79.59,44.58,6.71,87.71-21.47,122.43-54.26"/><path class="cls-2" d="M205.32,495.49c26.05-24.37,63.08-50.21,105.32-47.11,60.22,4.43,81.53,65.68,135.11,69.73,28,2.11,71-10.79,128.94-90.77"/><path class="cls-2" d="M313.64,585.28c-23.49-6.85-40.24-24.31-42.47-44.08-2.45-21.57,12.63-43.74,30.59-50.78,44-17.22,84,64.52,144,64.2,31.54-.18,75.78-23,128.94-127.28"/><path class="cls-2" d="M323.94,588.51c15.35,4.42,31-2.11,37.4-14.5,6.59-12.8,3.25-31.91-9.35-37.4-11.72-5.12-29.29,2.51-31.33,14-1.79,10.09,8.39,23,15.9,21.5,4.94-1,8.79-8.16,9.82-17.3"/></g></g><g id="Layer_1" data-name="Layer 1"><circle class="cls-3" cx="375.17" cy="392.01" r="198.51"/><path class="cls-4" d="M100.47,350.92c-.79,7.91,2.82,16.06,15.66,17.34,10.75,1.07,16.34-5.66,17.2-14.31a15.66,15.66,0,0,0-4.09-11.82,1.19,1.19,0,0,1-.4-1.09,1.15,1.15,0,0,1,1.27-1.08,3.44,3.44,0,0,1,1.7,1.07,17.38,17.38,0,0,1,4.24,13.39c-1,10.2-8.13,18-20.22,16.83-14-1.4-19-11.25-18.1-20.6.72-7.22,5.06-11.91,10.28-11.39,2.24.23,3.93,1.45,3.82,2.59-.08.75-.53,1.21-1.17,1.14s-.65-.56-2.54-.75C104,341.67,101,345.6,100.47,350.92Z"/><path class="cls-4" d="M143.74,274.94l11,5.89s1,.54.31,1.86-1.72.79-1.72.79l-31-16.58s-1-.54-.31-1.86,1.72-.79,1.72-.79l17.6,9.4L152.85,252l-17.61-9.39s-1-.54-.3-1.87,1.72-.78,1.72-.78l31.05,16.58s1,.54.31,1.86-1.72.78-1.72.78l-11-5.88Z"/><path class="cls-4" d="M204.33,201.54l2.18,7.87c.13.55.22,1.05-.74,1.85a1.14,1.14,0,0,1-1.73,0,1.45,1.45,0,0,1-.21-.48l-9.91-36.88c-.26-1-.35-1.59.58-2.36a2,2,0,0,1,2.32-.18l34.54,16.54a2.39,2.39,0,0,1,.57.44c.19.23.6.73-.4,1.57a1.73,1.73,0,0,1-1.95.38l-7.34-3.59Zm-.8-2.91,16-13.29L196.8,174.26Z"/><path class="cls-4" d="M308.3,150.61c.38-.13.77.27.91.7.42,1.28-.93,2.62-2.78,3.23-4.33,1.41-10.18-6.83-16.54-8.12a26.69,26.69,0,0,1-4.54,1.9c-1.28.42-1.82.07-2.06-.69-.36-1.09,0-1.41.62-1.62,8-2.61,14.71-8.28,12.38-15.41-2.27-6.94-8.17-6.64-16.82-3.82l-3.8,1.25L286.11,160s.35,1.09-1.07,1.56-1.78-.63-1.78-.63l-11-33.61a1,1,0,0,1,.64-1.26l5.71-1.86c10.26-3.36,17.73-3.06,20.55,5.59,1.93,5.89-1.09,11.14-6.12,14.73,5.85,2,10.54,7.81,13.54,6.84A13.48,13.48,0,0,0,308.3,150.61Z"/><path class="cls-4" d="M389.28,144.53a1.2,1.2,0,0,1,1.1,1.39c-.06,1.4-1.2,1.36-1.2,1.36l-20.89-.81a1,1,0,0,1-1-1l1.37-35.32s.05-1.15,1.55-1.09,1.45,1.21,1.45,1.21l-1.3,33.57Z"/><path class="cls-4" d="M450.77,141.12c4.53-10.56,15.67-14.33,24.54-10.52s13.81,14.48,9.27,25S469.44,170,460.12,166,446.27,151.6,450.77,141.12Zm31.05,13.34c3.91-9.1.21-18-7.6-21.33s-16.79.08-20.7,9.18,0,17.83,7.68,21.14S478,163.42,481.82,154.46Z"/><path class="cls-4" d="M557.4,189.92l-23.54,24s-.81.82-1.88-.23-.26-1.87-.26-1.87l23.54-24-8.1-8a1.2,1.2,0,0,1,.13-1.77,1.23,1.23,0,0,1,1.8-.19l18.34,18a1.22,1.22,0,0,1-.16,1.8,1.2,1.2,0,0,1-1.77.16Z"/><path class="cls-4" d="M611.82,267.37l-30.38,14.35s-1,.49-1.68-.87.4-1.85.4-1.85l30.38-14.34-4.85-10.27a1.19,1.19,0,0,1,.74-1.61,1.21,1.21,0,0,1,1.75.44l11,23.24a1.22,1.22,0,0,1-.77,1.64,1.2,1.2,0,0,1-1.71-.47Z"/><path class="cls-4" d="M605,373.05a1.31,1.31,0,0,1-1.3,1.27,1.3,1.3,0,0,1-1.44-1l-1.9-22.87a.94.94,0,0,1,.91-1.08l35.38-2.95a1,1,0,0,1,1.08.91l1.79,21.43a1.29,1.29,0,0,1-1.25,1.26,1.37,1.37,0,0,1-1.54-1l-1.63-19.49L616.59,351,618,367.56a1.27,1.27,0,0,1-1.25,1.25,1.31,1.31,0,0,1-1.49-1l-1.37-16.54-10.62.88Z"/><path class="cls-4" d="M214.11,595.12l-2.89,31.42,24.89-22.63a1.7,1.7,0,0,1,2-.38,1.14,1.14,0,0,1,.53,1.62,2.73,2.73,0,0,1-.68.78l-27.78,25.26a1,1,0,0,1-1.36.15c-.49-.25-.87-.5-.8-1.08L211,597.8l-24.31,21.69c-.42.4-.94.2-1.43,0s-.91-.52-.82-1.25l3.77-37.52a2,2,0,0,1,.21-.74,1.33,1.33,0,0,1,1.83-.53c.67.34,1,.9.87,2.06l-3.43,33.6,23.86-21.24a1.42,1.42,0,0,1,1.49-.08A1.72,1.72,0,0,1,214.11,595.12Z"/><path class="cls-4" d="M306.57,651.1l-4.18,7c-.31.47-.61.89-1.85.75a1.15,1.15,0,0,1-1.16-1.29,1.38,1.38,0,0,1,.21-.48l19.81-32.64c.56-.9.91-1.36,2.1-1.22a1.93,1.93,0,0,1,1.74,1.56l11.91,36.4a2.6,2.6,0,0,1,.07.71c0,.3-.11.94-1.4.79a1.73,1.73,0,0,1-1.63-1.14l-2.48-7.78Zm1.55-2.59,20.66,2.38-7.69-24.09Z"/><path class="cls-4" d="M418.43,644.61,421,656.84s.23,1.12-1.23,1.43-1.71-.82-1.71-.82L410.82,623s-.24-1.12,1.23-1.43,1.71.82,1.71.82l4.11,19.52,24-5-4.11-19.52s-.24-1.13,1.23-1.43,1.7.81,1.7.81l7.25,34.44s.24,1.13-1.23,1.44-1.7-.82-1.7-.82l-2.58-12.23Z"/><path class="cls-4" d="M545.64,607.88a1.19,1.19,0,0,1,1.66.6,1.22,1.22,0,0,1-.3,1.79l-18.16,10.35a1,1,0,0,1-1.37-.38L510,589.53s-.57-1,.73-1.74,1.87.25,1.87.25l16.64,29.2Z"/><circle class="cls-5" cx="601.73" cy="481.35" r="5.96"/><circle class="cls-5" cx="134.4" cy="483.92" r="5.96"/><path class="cls-3" d="M176.66,392c55.59-40.77,95.84-44,122.44-39.23,68.27,12.19,87.22,84,157.76,97.69,45,8.74,86.83-10.79,115-28.53"/><path class="cls-3" d="M184,445.61c33-27.52,82.15-59.11,132.9-49,58.93,11.74,75.53,71,132.6,79.59,44.59,6.71,87.71-21.47,122.43-54.26"/><path class="cls-3" d="M202.54,490.09c26.05-24.37,63.09-50.21,105.32-47.11,60.23,4.43,81.53,65.68,135.12,69.73,28,2.11,71-10.79,128.93-90.77"/><path class="cls-3" d="M310.86,579.88c-23.48-6.85-40.23-24.31-42.47-44.08C266,514.23,281,492.06,299,485c43.95-17.22,84,64.52,144,64.2,31.54-.18,75.78-23.05,128.93-127.28"/><path class="cls-3" d="M321.16,583.11c15.35,4.42,31-2.11,37.41-14.49,6.59-12.81,3.24-31.92-9.36-37.41-11.72-5.12-29.28,2.51-31.32,14-1.79,10.09,8.38,23,15.89,21.5,4.94-1,8.79-8.16,9.82-17.3"/></g></svg>