<svg xmlns="http://www.w3.org/2000/svg" width="1080" height="1080" viewBox="0 0 1080 1080"><defs><style>.cls-1{fill:#94c2d3;}.cls-2{fill:#add3e0;}.cls-3,.cls-4{fill:none;stroke-miterlimit:10;}.cls-3{stroke:#e2f2f7;stroke-width:4px;}.cls-4{stroke:#749cae;stroke-width:5px;}</style></defs><g id="Layer_1" data-name="Layer 1"><circle class="cls-1" cx="539.73" cy="564.59" r="198.51"/><path class="cls-2" d="M579,759.49c-69.45,15.23-126-16.41-137.31-23.07-92.56-54.35-99.94-162.58-100.42-171.83a135.91,135.91,0,0,1,40.89-31.66s30.2-15.14,66.27-14.26c80.79,2,108.52,92.23,184.53,100.65,23.6,2.62,58.56-1.92,104.42-37.71C720.21,671.89,657.71,742.22,579,759.49Z"/><path class="cls-3" d="M338.45,564.68c55.59-40.78,95.84-44,122.44-39.23,67.57,12.06,86.41,83.67,157.76,97.69,42.65,8.38,82.42-8,110.57-24.25"/><path class="cls-3" d="M345.77,618.28c33-27.53,82.15-59.12,132.9-49,58.81,11.72,75.43,71,132.6,79.59,46.54,7,89.75-24.08,118-50"/><path class="cls-3" d="M364.33,662.76c26.05-24.38,63.09-50.22,105.32-47.11,60.1,4.42,81.41,66,135.11,69.72,27.55,1.9,69.19-10.9,124.46-86.48"/><path class="cls-3" d="M472.65,748.44c-23.48-6.67-40.23-23.67-42.47-42.93-2.44-21,12.64-42.61,30.59-49.46,44.27-16.89,84,63.25,144,62.53,30.6-.37,73.44-22,124.46-119.69"/><path class="cls-3" d="M472.65,748.44c19.65,8.9,40.5,2.43,47.7-11,6.27-11.66,3.49-31-9.35-36.43-11.72-5-29.29,2.44-31.32,13.66-1.79,9.83,8.38,22.39,15.89,20.95,4.94-.95,8.79-8,9.82-16.85"/><circle class="cls-4" cx="536.96" cy="564.68" r="198.51"/></g></svg>