<svg xmlns="http://www.w3.org/2000/svg" width="1070" height="1070" viewBox="0 0 1070 1070"><defs><style>.cls-1{fill:#add3e0;}.cls-1,.cls-2,.cls-3{opacity:0.29;}.cls-2,.cls-4{fill:none;stroke:#749cae;stroke-miterlimit:10;}.cls-2{stroke-width:20px;}.cls-4{stroke-width:19px;}</style></defs><g id="Layer_3" data-name="Layer 3"><circle class="cls-1" cx="542.28" cy="534.78" r="520.59"/><circle class="cls-2" cx="535" cy="535" r="520.59"/><g class="cls-3"><path class="cls-4" d="M451,959.72c-118.87-23-208.6-113.83-226.15-223.12C206,619.69,278.08,532.84,287.63,521.7c91.06-106.17,255.42-112.16,360.84-55.14C750.38,521.69,749.35,613.17,851,652.67c76.66,29.79,154.52,8.38,209-14.85"/><path class="cls-4" d="M378.52,935.86c126.86,58.19,259.19,20,307.76-65.43,36.18-63.61,37-173-34.17-222-74.53-51.24-198.49-16-221.56,53.51-18.31,55.16,23.24,143,79.17,144.94,38.45,1.33,80.78-38,96.36-97.27"/></g></g></svg>