<svg id="Layer_1" data-name="Layer 1" xmlns="http://www.w3.org/2000/svg" width="1230" height="1000" viewBox="0 0 1230 1000"><defs><style>.cls-1{fill:#7b99aa;opacity:0.44;}.cls-1,.cls-2{isolation:isolate;}.cls-3{fill:#3e3e3e;}.cls-10,.cls-11,.cls-12,.cls-4,.cls-5,.cls-6,.cls-7,.cls-8,.cls-9{fill:none;}.cls-10,.cls-11,.cls-4,.cls-5,.cls-6,.cls-7,.cls-8,.cls-9{stroke:#3e3e3e;}.cls-4{stroke-miterlimit:4;stroke-width:3px;}.cls-5{stroke-miterlimit:4;stroke-width:3px;}.cls-6{stroke-miterlimit:4;stroke-width:3px;}.cls-7{stroke-miterlimit:4;stroke-width:3px;}.cls-8{stroke-width:3px;}.cls-9{stroke-width:3px;}.cls-10{stroke-width:3px;}.cls-11{stroke-width:3px;}.cls-12{stroke:#000;stroke-miterlimit:10;stroke-width:4px;}</style></defs><ellipse id="Ellipse_24" data-name="Ellipse 24" class="cls-1" cx="181.33" cy="136.07" rx="155.5" ry="128"/><g id="Positiv_foarndring" data-name="Positiv foarndring" class="cls-2"><g class="cls-2"><path class="cls-3" d="M83.66,45.21c0-6.75-5.22-8.42-12.87-8.42h-5V67s0,1-1.35,1-1.35-1-1.35-1V35.22a.85.85,0,0,1,.9-.9h6.75c9.18,0,15.57,2.79,15.57,11,0,9.31-8.41,12.91-17,12.91-1.21,0-1.57-.45-1.57-1.17s.36-1.21,1.53-1.21C76.37,55.83,83.66,53.35,83.66,45.21Z"/><path class="cls-3" d="M92.89,53.8a14.25,14.25,0,1,1,28.48,0c0,8.73-6.48,14.67-14.22,14.67S92.89,62.53,92.89,53.8Zm26,0c0-7.6-5.35-12.55-11.7-12.55s-11.7,5-11.7,12.55,5.4,12.33,11.7,12.33S118.85,61.27,118.85,53.8Z"/><path class="cls-3" d="M138.25,66.22c5.13,0,8.55-2.34,8.55-5.8,0-7.65-17.91-4.55-17.91-13.68,0-4.64,4.05-7.83,10.08-7.83,5,0,8.41,2.52,8.41,5.49a3,3,0,0,1-2.29,3c-.68,0-.9-.31-.9-.63,0-.54.67-.72.67-2.25,0-1.93-2.25-3.42-5.89-3.42-3.83,0-7.56,1.67-7.56,5.18,0,7.51,17.91,4.36,17.91,13.77,0,4.59-3.87,8.46-11,8.46-6.26,0-10.44-2.16-10.44-6.21,0-2.57,1.66-3.69,2.38-3.69a.81.81,0,0,1,.86.76c0,.54-.81,1.26-.81,2.48C130.33,64.6,133.34,66.22,138.25,66.22Z"/><path class="cls-3" d="M159.08,67.3c0,.36-.27.77-1.3.77s-1.26-.41-1.26-.77V40.12c0-.4.31-.72,1.26-.72s1.3.27,1.3.72Z"/><path class="cls-3" d="M176.5,41.7V67.3c0,.41-.32.77-1.31.77s-1.26-.36-1.26-.77V41.7h-8.68a1.11,1.11,0,0,1-.77-1.17,1.09,1.09,0,0,1,.77-1.13h19.89a1.09,1.09,0,0,1,.76,1.13,1.11,1.11,0,0,1-.76,1.17Z"/><path class="cls-3" d="M193.87,67.3c0,.36-.27.77-1.31.77s-1.26-.41-1.26-.77V40.12c0-.4.32-.72,1.26-.72s1.31.27,1.31.72Z"/><path class="cls-3" d="M202.1,40.26l11.43,24.3L225,40.12a1.19,1.19,0,0,1,1.17-.72c.72,0,1.12.36,1.12.86a1.22,1.22,0,0,1-.13.58L214.34,68.07c-.13.27-.4.4-.9.4s-.72-.13-.85-.4L199.81,40.84a1.08,1.08,0,0,1-.14-.63c0-.36.32-.81,1.17-.81A1.17,1.17,0,0,1,202.1,40.26Z"/></g><g class="cls-2"><path class="cls-3" d="M9,150.3c0,.36-.27.77-1.3.77s-1.26-.41-1.26-.77V123.17a.71.71,0,0,1,.76-.77H23.9a1.09,1.09,0,0,1,.77,1.13,1.11,1.11,0,0,1-.77,1.17H9v14.35H20.84a1.27,1.27,0,0,1,0,2.34H9Z"/><path class="cls-3" d="M29,136.8A14.53,14.53,0,0,1,43.3,121.91,14.49,14.49,0,0,1,57.52,136.8c0,8.73-6.48,14.67-14.22,14.67S29,145.53,29,136.8Zm26,0c0-7.6-5.36-12.55-11.7-12.55S31.6,129.2,31.6,136.8s5.4,12.33,11.7,12.33S55,144.27,55,136.8Z"/><path class="cls-3" d="M67.19,144.54l-2.47,5.4c-.36.81-.68,1.13-1.58,1.13a1,1,0,0,1-1.08-.9,1.22,1.22,0,0,1,.14-.59L74.66,122.9c.23-.45.5-1,1.17-1s.9.54,1.13,1L89.6,149.58a1.22,1.22,0,0,1,.14.59,1,1,0,0,1-1.08.9,1.39,1.39,0,0,1-1.35-.86l-2.66-5.67Zm1.13-2.38H83.53l-7.65-16.29Z"/><path class="cls-3" d="M117,148.73c.32,0,.45.58.45.85,0,1-1.53,1.49-2.52,1.49-4.45,0-6.12-7.25-11.61-9.59a21.71,21.71,0,0,1-3,.18c-1,0-1.31-.58-1.31-1.17,0-.85.27-1,.81-1,6.62,0,12.51-2.47,12.51-8.41,0-5.45-4.14-6.39-9.81-6.39H98.15v25.6c0,.45-.27.77-1.3.77s-1.26-.27-1.26-.77V123.17a.71.71,0,0,1,.76-.77h6.21c6.75,0,12.38,2,12.38,8.6,0,5.13-3.69,8.37-8.46,9.81,4.32,2.65,5.71,8.05,9.4,8.05A5.84,5.84,0,0,0,117,148.73Z"/><path class="cls-3" d="M125.33,122.9l19,23.71V123.12c0-.31.31-.72,1.12-.72s1.13.41,1.13.72v27.27c0,.45-.36.68-.95.68a1.37,1.37,0,0,1-1.21-.72l-19.31-23.76V150.3c0,.36-.27.77-1.12.77s-1.13-.36-1.13-.77V123.17c0-.36.36-.77,1.26-.77A1.54,1.54,0,0,1,125.33,122.9Z"/><path class="cls-3" d="M155.39,151.07a.73.73,0,0,1-.76-.77V123.17a.71.71,0,0,1,.76-.77h7.38c9.81,0,17,3.6,17,14,0,8-4.18,14.67-16.1,14.67Zm8.33-2.3c10.44,0,13.49-5.49,13.49-12.37,0-8.87-5.67-11.7-14.44-11.7h-5.58v24.07Z"/><path class="cls-3" d="M208.62,148.73c.32,0,.45.58.45.85,0,1-1.53,1.49-2.52,1.49-4.45,0-6.11-7.25-11.6-9.59a22,22,0,0,1-3,.18c-1,0-1.3-.58-1.3-1.17,0-.85.27-1,.81-1,6.61,0,12.51-2.47,12.51-8.41,0-5.45-4.14-6.39-9.81-6.39h-4.32v25.6c0,.45-.27.77-1.31.77s-1.26-.27-1.26-.77V123.17a.71.71,0,0,1,.77-.77h6.21c6.75,0,12.37,2,12.37,8.6,0,5.13-3.69,8.37-8.46,9.81,4.32,2.65,5.72,8.05,9.4,8.05A5.84,5.84,0,0,0,208.62,148.73Z"/><path class="cls-3" d="M217,150.3c0,.36-.27.77-1.3.77s-1.26-.41-1.26-.77V123.12c0-.4.31-.72,1.26-.72s1.3.27,1.3.72Z"/><path class="cls-3" d="M227.66,122.9l18.94,23.71V123.12c0-.31.32-.72,1.13-.72s1.12.41,1.12.72v27.27c0,.45-.36.68-.94.68a1.38,1.38,0,0,1-1.22-.72l-19.3-23.76V150.3c0,.36-.27.77-1.12.77s-1.13-.36-1.13-.77V123.17c0-.36.36-.77,1.26-.77A1.54,1.54,0,0,1,227.66,122.9Z"/><path class="cls-3" d="M258.93,137.34c0,8.15,5.22,11.88,12,11.88,5.13,0,8.46-3.24,8.46-4.86v-3.91h-5.67a1.27,1.27,0,0,1,0-2.34h7.42a.73.73,0,0,1,.77.76v5.76c0,2.7-4.95,6.89-11.12,6.89-7.69,0-14.53-4.91-14.53-14.18,0-10.8,7.6-15.43,14.8-15.43,5.9,0,9.72,3.42,9.72,7.47,0,1.93-.76,3-1.71,3-.67,0-1.17-.27-1.17-.81s.41-.77.41-1.89c0-3.2-2.57-5.4-7.25-5.4C264.87,124.25,258.93,127.58,258.93,137.34Z"/></g></g><ellipse id="Ellipse_25" data-name="Ellipse 25" class="cls-1" cx="1072.23" cy="283.34" rx="155.42" ry="127.97"/><g id="Selv-_Udvikling" data-name="Selv- Udvikling" class="cls-2"><g class="cls-2"><path class="cls-3" d="M976.91,213.35c5.89,0,10.21-2.79,10.21-7.07,0-4.81-4.9-5.85-10-7.51-5.35-1.76-10.84-2.88-10.84-9.09,0-5,4-8.51,11.29-8.51,6.48,0,9.77,3.2,9.77,6.71,0,2.11-1.22,3.42-2.39,3.42-.49,0-.94-.23-.94-.81s.9-1.26.9-2.57c0-2.29-2.48-4.27-7.34-4.27-5.35,0-8.82,1.8-8.82,5.44,0,4.19,3,5.22,9.32,7.16,5.58,1.71,11.56,3.24,11.56,9.63,0,6-5.26,9.94-12.64,9.94-7,0-12-2.56-12-8.23,0-2.66,1.3-3.74,2.38-3.74.68,0,1,.27,1,.72s-1,1-1,3C967.5,211.32,971.19,213.35,976.91,213.35Z"/><path class="cls-3" d="M1016.28,213a1.18,1.18,0,0,1,.77,1.17,1.11,1.11,0,0,1-.77,1.17H998.51a.73.73,0,0,1-.77-.76V187.47a.71.71,0,0,1,.77-.76h16.69a1.08,1.08,0,0,1,.77,1.12,1.2,1.2,0,0,1-.77,1.22h-14.89v13.81h12.55a1.2,1.2,0,0,1,.77,1.22,1.11,1.11,0,0,1-.77,1.17h-12.55V213Z"/><path class="cls-3" d="M1041.89,213a1.17,1.17,0,0,1,.76,1.17,1.11,1.11,0,0,1-.76,1.17h-17.78a.72.72,0,0,1-.76-.76V187.43c0-.41.31-.72,1.26-.72s1.3.27,1.3.72V213Z"/><path class="cls-3" d="M1044.81,187.56l11.43,24.3,11.43-24.43a1.18,1.18,0,0,1,1.17-.72c.72,0,1.13.36,1.13.85a1.22,1.22,0,0,1-.14.59l-12.78,27.22c-.13.27-.4.41-.9.41s-.72-.14-.85-.41l-12.78-27.22a1.08,1.08,0,0,1-.14-.63c0-.36.32-.81,1.17-.81A1.18,1.18,0,0,1,1044.81,187.56Z"/><path class="cls-3" d="M1080.63,200.88a1.16,1.16,0,0,1,1,1.22,1.18,1.18,0,0,1-1,1.26H1072a1.16,1.16,0,0,1-1-1.22,1.18,1.18,0,0,1,1-1.26Z"/></g><g class="cls-2"><path class="cls-3" d="M932.22,266.11c0-.68,0-1.49,1.22-1.49.94,0,1.26.68,1.26,1.49v21.37c0,6-5.18,11.34-14,11.34-9.09,0-13.86-5.35-13.86-11.34V266.11a1.35,1.35,0,0,1,1.31-1.49c1,0,1.39.5,1.39,1.49v21.37c0,4.82,3.51,8.87,11.16,8.87,7.16,0,11.47-4.05,11.47-8.87Z"/><path class="cls-3" d="M944,298.37a.73.73,0,0,1-.77-.76V270.47a.71.71,0,0,1,.77-.76h7.37c9.81,0,17.06,3.6,17.06,14,0,8-4.19,14.67-16.11,14.67Zm8.32-2.29c10.44,0,13.5-5.49,13.5-12.38,0-8.86-5.67-11.7-14.45-11.7h-5.57v24.08Z"/><path class="cls-3" d="M975.38,270.56l11.43,24.3,11.43-24.43a1.18,1.18,0,0,1,1.17-.72c.72,0,1.12.36,1.12.85a1.29,1.29,0,0,1-.13.59l-12.78,27.22c-.13.27-.41.41-.9.41s-.72-.14-.85-.41l-12.78-27.22a1.08,1.08,0,0,1-.14-.63c0-.36.32-.81,1.17-.81A1.18,1.18,0,0,1,975.38,270.56Z"/><path class="cls-3" d="M1008.91,297.61c0,.36-.28.76-1.31.76s-1.26-.4-1.26-.76V270.43c0-.41.32-.72,1.26-.72s1.31.27,1.31.72Z"/><path class="cls-3" d="M1019.57,283.66l13.68-13.59a1.15,1.15,0,0,1,.81-.36,1.24,1.24,0,0,1,1.3,1.17,1.27,1.27,0,0,1-.36.76l-11.29,11.12c5.13,3.37,11.29,13.14,14.26,13.14a5.51,5.51,0,0,0,1.22-.14c.58,0,.81.54.81,1.08,0,.86-1,1.53-2.34,1.53-4.23,0-11.48-11.25-15.75-13.81l-2.34,2.29v10.76c0,.36-.27.76-1.31.76s-1.26-.4-1.26-.76V270.43c0-.41.32-.72,1.26-.72s1.31.27,1.31.72Z"/><path class="cls-3" d="M1063.49,296a1.17,1.17,0,0,1,.76,1.17,1.11,1.11,0,0,1-.76,1.17h-17.78a.72.72,0,0,1-.76-.76V270.43c0-.41.31-.72,1.26-.72s1.3.27,1.3.72V296Z"/><path class="cls-3" d="M1073.12,297.61c0,.36-.27.76-1.31.76s-1.26-.4-1.26-.76V270.43c0-.41.32-.72,1.26-.72s1.31.27,1.31.72Z"/><path class="cls-3" d="M1083.74,270.2l18.94,23.72V270.43c0-.32.32-.72,1.13-.72s1.12.4,1.12.72V297.7c0,.45-.36.67-.94.67a1.38,1.38,0,0,1-1.22-.72l-19.3-23.76v23.72c0,.36-.27.76-1.13.76s-1.12-.36-1.12-.76V270.47c0-.36.36-.76,1.26-.76A1.58,1.58,0,0,1,1083.74,270.2Z"/><path class="cls-3" d="M1115,284.65c0,8.14,5.22,11.88,12,11.88,5.13,0,8.46-3.24,8.46-4.86v-3.92h-5.67a1.27,1.27,0,0,1,0-2.34h7.42a.74.74,0,0,1,.77.77v5.76c0,2.7-5,6.88-11.12,6.88-7.69,0-14.53-4.9-14.53-14.17,0-10.8,7.6-15.44,14.8-15.44,5.9,0,9.72,3.42,9.72,7.47,0,1.94-.76,3-1.71,3-.67,0-1.17-.27-1.17-.81s.41-.76.41-1.89c0-3.19-2.57-5.4-7.25-5.4C1121,271.55,1115,274.88,1115,284.65Z"/></g></g><ellipse id="Ellipse_26" data-name="Ellipse 26" class="cls-1" cx="207.33" cy="657.07" rx="155.5" ry="128"/><g id="Find_din_balance" data-name="Find din balance" class="cls-2"><g class="cls-2"><path class="cls-3" d="M54.33,556.22a.85.85,0,0,1,.9-.9H74.67a1.21,1.21,0,0,1,1,1.22,1.17,1.17,0,0,1-1,1.25H57v17.15H71.12a1.15,1.15,0,0,1,1,1.21,1.25,1.25,0,0,1-1,1.31H57V588c0,.63-.18,1-1.48,1-.9,0-1.22-.41-1.22-1Z"/><path class="cls-3" d="M84.08,588.3c0,.36-.27.77-1.31.77s-1.26-.41-1.26-.77V561.12c0-.4.32-.72,1.26-.72s1.31.27,1.31.72Z"/><path class="cls-3" d="M94.7,560.9l18.94,23.71V561.12c0-.31.32-.72,1.13-.72s1.12.41,1.12.72v27.27c0,.45-.36.68-.94.68a1.38,1.38,0,0,1-1.22-.72l-19.3-23.76V588.3c0,.36-.27.77-1.13.77s-1.12-.36-1.12-.77V561.17c0-.36.36-.77,1.26-.77A1.55,1.55,0,0,1,94.7,560.9Z"/><path class="cls-3" d="M124.76,589.07a.74.74,0,0,1-.77-.77V561.17a.71.71,0,0,1,.77-.77h7.38c9.81,0,17.05,3.6,17.05,14,0,8-4.18,14.67-16.11,14.67Zm8.32-2.3c10.44,0,13.5-5.49,13.5-12.37,0-8.87-5.67-11.7-14.44-11.7h-5.58v24.07Z"/><path class="cls-3" d="M169.53,589.07a.73.73,0,0,1-.76-.77V561.17a.71.71,0,0,1,.76-.77h7.38c9.81,0,17.05,3.6,17.05,14,0,8-4.18,14.67-16.1,14.67Zm8.33-2.3c10.43,0,13.5-5.49,13.5-12.37,0-8.87-5.67-11.7-14.45-11.7h-5.58v24.07Z"/><path class="cls-3" d="M204,588.3c0,.36-.26.77-1.3.77s-1.26-.41-1.26-.77V561.12c0-.4.31-.72,1.26-.72s1.3.27,1.3.72Z"/><path class="cls-3" d="M214.57,560.9l19,23.71V561.12c0-.31.31-.72,1.12-.72s1.13.41,1.13.72v27.27c0,.45-.36.68-1,.68a1.37,1.37,0,0,1-1.21-.72l-19.3-23.76V588.3c0,.36-.28.77-1.13.77s-1.12-.36-1.12-.77V561.17c0-.36.35-.77,1.26-.77A1.52,1.52,0,0,1,214.57,560.9Z"/></g><g class="cls-2"><path class="cls-3" d="M62.16,657A6.69,6.69,0,0,1,68,663.61c0,4.86-3.24,8.46-9.49,8.46H47a.73.73,0,0,1-.76-.77V644.17a.71.71,0,0,1,.76-.77h8.42c6.7,0,10.71,1.8,10.71,7.29C66.17,654.11,64.77,655.91,62.16,657Zm-13.32-.4h8.73c4.59,0,5.85-2.66,5.85-6,0-4-2.61-4.9-8-4.9H48.84Zm9.81,2.25H48.84v10.93h9c5.53,0,7.42-2.34,7.42-6C65.31,660.59,63.11,658.84,58.65,658.84Z"/><path class="cls-3" d="M77.28,665.54l-2.47,5.4c-.36.81-.68,1.13-1.58,1.13a1,1,0,0,1-1.08-.9,1.22,1.22,0,0,1,.14-.59L84.75,643.9c.23-.45.5-1,1.17-1s.9.54,1.13,1l12.64,26.64a1.22,1.22,0,0,1,.14.59,1,1,0,0,1-1.08.9,1.39,1.39,0,0,1-1.35-.86l-2.66-5.67Zm1.13-2.38H93.62L86,646.87Z"/><path class="cls-3" d="M124.22,669.73a1.16,1.16,0,0,1,.76,1.17,1.11,1.11,0,0,1-.76,1.17H106.44a.73.73,0,0,1-.76-.77V644.12c0-.4.31-.72,1.26-.72s1.3.27,1.3.72v25.61Z"/><path class="cls-3" d="M134.16,665.54l-2.47,5.4c-.36.81-.68,1.13-1.58,1.13a1,1,0,0,1-1.08-.9,1.22,1.22,0,0,1,.14-.59l12.46-26.68c.23-.45.5-1,1.17-1s.9.54,1.13,1l12.64,26.64a1.29,1.29,0,0,1,.13.59,1,1,0,0,1-1.07.9,1.39,1.39,0,0,1-1.35-.86l-2.66-5.67Zm1.13-2.38H150.5l-7.65-16.29Z"/><path class="cls-3" d="M165.08,643.9,184,667.61V644.12c0-.31.32-.72,1.13-.72s1.12.41,1.12.72v27.27c0,.45-.36.68-1,.68a1.37,1.37,0,0,1-1.21-.72l-19.3-23.76V671.3c0,.36-.27.77-1.13.77s-1.12-.36-1.12-.77V644.17c0-.36.36-.77,1.26-.77A1.55,1.55,0,0,1,165.08,643.9Z"/><path class="cls-3" d="M207.6,645.25c-5.9,0-11.34,3.33-11.34,12.82,0,8.42,5.53,12.11,11.65,12.11a11.54,11.54,0,0,0,8.87-3.74,1.12,1.12,0,0,1,.9-.4.88.88,0,0,1,.9,1,1.66,1.66,0,0,1-.5,1.17,14,14,0,0,1-10.17,4.32c-7.69,0-14.21-4.91-14.21-14.54,0-10.44,6.7-15.07,13.9-15.07,5.89,0,9.72,3.42,9.72,7.47,0,1.93-.9,3.06-1.89,3.06-.45,0-1.17-.14-1.17-.9,0-.41.45-.95.45-1.89C214.71,647.45,212,645.25,207.6,645.25Z"/><path class="cls-3" d="M244.41,669.73a1.16,1.16,0,0,1,.76,1.17,1.11,1.11,0,0,1-.76,1.17H226.64a.74.74,0,0,1-.77-.77V644.17a.71.71,0,0,1,.77-.77h16.69a1.09,1.09,0,0,1,.76,1.13,1.18,1.18,0,0,1-.76,1.21H228.44v13.82H241a1.18,1.18,0,0,1,.76,1.21,1.11,1.11,0,0,1-.76,1.17H228.44v7.79Z"/></g></g><ellipse id="Ellipse_27" data-name="Ellipse 27" class="cls-1" cx="1072.23" cy="863.96" rx="155.42" ry="127.97"/><g id="Opn책_dine_M책l" data-name="Opn책 dine M책l" class="cls-2"><g class="cls-2"><path class="cls-3" d="M933.22,765.28c0-10.35,7.87-17.41,16.56-17.41s16.55,7.06,16.55,17.41-7.42,17.24-16.55,17.24S933.22,775.54,933.22,765.28Zm30.41,0c0-8.91-6.21-14.94-13.85-14.94s-13.87,6-13.87,14.94S942.21,780,949.78,780,963.63,774.06,963.63,765.28Z"/><path class="cls-3" d="M977,781.35c0,.36-.27.76-1.31.76s-1.26-.4-1.26-.76V754.17a.71.71,0,0,1,.77-.77h5.22c8.37,0,14.13,2.34,14.13,9.32,0,7.51-7.25,11-14.58,11-1,0-1.31-.54-1.31-1.13s.27-1.17,1.26-1.17c5.94,0,12.06-2.25,12.06-8.77,0-5.4-4.72-6.89-11.56-6.89H977Z"/><path class="cls-3" d="M1003.82,753.9l18.94,23.71V754.12c0-.31.32-.72,1.13-.72s1.12.41,1.12.72v27.27c0,.45-.36.68-.94.68a1.38,1.38,0,0,1-1.22-.72l-19.3-23.76V781.3c0,.36-.27.77-1.13.77s-1.12-.36-1.12-.77V754.17c0-.36.36-.77,1.26-.77A1.55,1.55,0,0,1,1003.82,753.9Z"/><path class="cls-3" d="M1036,775.54l-2.47,5.4c-.36.81-.68,1.13-1.58,1.13a1,1,0,0,1-1.08-.9,1.22,1.22,0,0,1,.14-.59l12.46-26.68c.23-.45.5-1,1.17-1s.9.54,1.13,1l12.64,26.64a1.22,1.22,0,0,1,.14.59,1,1,0,0,1-1.08.9,1.39,1.39,0,0,1-1.35-.86l-2.66-5.67Zm1.13-2.38h15.21l-7.65-16.29Zm3.73-26a3.86,3.86,0,0,0,4,3.73,4,4,0,0,0,3.92-3.73,4,4,0,0,0-7.88,0Zm2.3,0a1.75,1.75,0,0,1,1.66-1.67,1.72,1.72,0,0,1,1.62,1.67,1.82,1.82,0,0,1-1.62,1.8A1.72,1.72,0,0,1,1043.15,747.15Z"/></g><g class="cls-2"><path class="cls-3" d="M897.17,865.07a.73.73,0,0,1-.76-.77V837.17a.71.71,0,0,1,.76-.77h7.38c9.81,0,17.05,3.6,17.05,14,0,8-4.18,14.67-16.11,14.67Zm8.32-2.3c10.44,0,13.5-5.49,13.5-12.37,0-8.87-5.67-11.7-14.44-11.7H899v24.07Z"/><path class="cls-3" d="M931.59,864.3c0,.36-.27.77-1.3.77s-1.26-.41-1.26-.77V837.12c0-.4.31-.72,1.26-.72s1.3.27,1.3.72Z"/><path class="cls-3" d="M942.21,836.9l18.95,23.71V837.12c0-.31.31-.72,1.12-.72s1.13.41,1.13.72v27.27c0,.45-.36.68-.95.68a1.37,1.37,0,0,1-1.21-.72L942,840.59V864.3c0,.36-.28.77-1.13.77s-1.12-.36-1.12-.77V837.17c0-.36.35-.77,1.25-.77A1.54,1.54,0,0,1,942.21,836.9Z"/><path class="cls-3" d="M990.05,862.73a1.16,1.16,0,0,1,.76,1.17,1.11,1.11,0,0,1-.76,1.17H972.27a.73.73,0,0,1-.76-.77V837.17a.71.71,0,0,1,.76-.77H989a1.09,1.09,0,0,1,.76,1.13,1.18,1.18,0,0,1-.76,1.21h-14.9v13.82h12.56a1.18,1.18,0,0,1,.76,1.21,1.11,1.11,0,0,1-.76,1.17H974.07v7.79Z"/><path class="cls-3" d="M1026.36,863.63l-14.13-26.24V864c0,.5-.13,1-1.3,1s-1.22-.54-1.22-1V832.85c0-1,.45-1.53,1.17-1.53a1.35,1.35,0,0,1,1.31.72l15.57,29.16L1044.32,832a1.14,1.14,0,0,1,1.21-.63c.68,0,1,.54,1,1.39V864c0,.54-.13,1-1.21,1s-1.31-.5-1.31-1V837.26l-15,26.37c-.36.58-.72,1-1.35,1A1.51,1.51,0,0,1,1026.36,863.63Z"/><path class="cls-3" d="M1058,858.54l-2.47,5.4c-.36.81-.68,1.13-1.58,1.13a1,1,0,0,1-1.08-.9,1.22,1.22,0,0,1,.14-.59l12.46-26.68c.23-.45.5-1,1.17-1s.9.54,1.13,1l12.64,26.64a1.22,1.22,0,0,1,.14.59,1,1,0,0,1-1.08.9,1.39,1.39,0,0,1-1.35-.86l-2.66-5.67Zm1.13-2.38h15.21l-7.65-16.29Zm3.73-26a3.86,3.86,0,0,0,4,3.73,4,4,0,0,0,3.92-3.73,4,4,0,0,0-7.88,0Zm2.3,0a1.75,1.75,0,0,1,1.66-1.67,1.72,1.72,0,0,1,1.62,1.67,1.82,1.82,0,0,1-1.62,1.8A1.72,1.72,0,0,1,1065.11,830.15Z"/><path class="cls-3" d="M1104.75,862.73a1.16,1.16,0,0,1,.77,1.17,1.11,1.11,0,0,1-.77,1.17H1087a.74.74,0,0,1-.77-.77V837.12c0-.4.32-.72,1.26-.72s1.31.27,1.31.72v25.61Z"/></g></g><g id="Group_26" data-name="Group 26"><path id="Path_30" data-name="Path 30" class="cls-4" d="M911.55,622.74c8.06-2.51,23-5.9,37.82-1.06,15.19,5,27.37,18.34,30.2,24.23,10.57,22-8.85,40.69-15.24,31.49-5.45-7.83-4.58-24.09,14.17-21.53,4.06.56,31.48,8.37,42.1,28.89,12.78,24.71,8.73,63.31,8.73,63.31"/><line id="Line_42" data-name="Line 42" class="cls-5" x1="1015.55" y1="739.79" x2="1029.45" y2="748.53"/><line id="Line_43" data-name="Line 43" class="cls-5" x1="1039.36" y1="737.7" x2="1029.45" y2="748.53"/></g><g id="Group_27" data-name="Group 27"><path id="Path_30-2" data-name="Path 30-2" class="cls-6" d="M873.32,477.72c-3.75-7.57-9.43-21.79-7-37.2,2.51-15.78,13.83-29.9,19.2-33.62,20.07-13.88,41.58,2.37,33.5,10.12-6.88,6.61-23.08,8.3-23.49-10.62-.09-4.11,3.34-32.42,21.94-46.11,22.42-16.5,61.18-18.54,61.18-18.54"/><line id="Line_42-2" data-name="Line 42-2" class="cls-7" x1="972.66" y1="356.66" x2="979.12" y2="341.56"/><line id="Line_43-2" data-name="Line 43-2" class="cls-7" x1="966.86" y1="333.46" x2="979.11" y2="341.56"/></g><g id="Group_28" data-name="Group 28"><path id="Path_30-3" data-name="Path 30-3" class="cls-8" d="M443.85,522.3c2.52,8.05,5.91,23,1.07,37.81-4.95,15.19-18.33,27.36-24.21,30.19-22,10.57-40.68-8.84-31.5-15.23,7.84-5.45,24.09-4.58,21.53,14.16-.55,4.07-8.36,31.48-28.87,42.09-24.71,12.79-63.3,8.74-63.3,8.74"/><line id="Line_42-3" data-name="Line 42-3" class="cls-9" x1="326.85" y1="626.29" x2="318.11" y2="640.18"/><line id="Line_43-3" data-name="Line 43-3" class="cls-9" x1="328.95" y1="650.09" x2="318.12" y2="640.18"/></g><g id="Group_29" data-name="Group 29"><path id="Path_30-4" data-name="Path 30-4" class="cls-10" d="M345.17,350c5.68-6.24,15.06-18.34,16.94-33.82,1.93-15.86-5.05-32.55-9.18-37.6-15.46-18.86-40.61-9.17-35,.5,4.79,8.25,19.89,14.33,25.49-3.73,1.22-3.93,5.73-32.07-8.38-50.36-17-22-53.67-34.67-53.67-34.67"/><line id="Line_42-4" data-name="Line 42-4" class="cls-11" x1="283.08" y1="206.26" x2="281.03" y2="189.97"/><line id="Line_43-4" data-name="Line 43-4" class="cls-11" x1="295.03" y1="185.57" x2="281.03" y2="189.97"/></g><circle class="cls-12" cx="655.29" cy="417.9" r="46.87"/><path class="cls-12" d="M561.55,540.93c2-10.11,7.59-29.92,24.74-43.29,15.87-12.37,33.25-12.37,68-12.37s52.16,0,68,12.37c17.15,13.37,22.73,33.18,24.74,43.29Z"/></svg>