<svg id="Layer_1" data-name="Layer 1" xmlns="http://www.w3.org/2000/svg" width="800" height="800" viewBox="0 0 800 800"><defs><style>.cls-1{fill:#7b99aa;isolation:isolate;opacity:0.44;}.cls-2{fill:none;stroke:#000;stroke-miterlimit:10;stroke-width:13px;}</style></defs><ellipse id="Ellipse_38" data-name="Ellipse 38" class="cls-1" cx="423.26" cy="416.98" rx="324.78" ry="330.65"/><path class="cls-2" d="M141,349.75c11.4-4.83,74.44-30.22,142,0a172.87,172.87,0,0,1,64.67,50.67,39.89,39.89,0,0,0,32.13,15.15l91.84-1.87a37.78,37.78,0,0,1,8.62.75,41.43,41.43,0,0,1,18.06,8.65C508,431.27,516,446,512.45,461c-4.06,16.91-21.85,29.64-42.59,28.39H313.69"/><path class="cls-2" d="M138.59,522.48c125.58,44,177.71,63.5,193.49,70.65,1.33.6,9.88,3.41,20.81,8.5a144.13,144.13,0,0,0,36.52,10.76c24.69,3.37,43.61-8.18,50.32-12.92a36.51,36.51,0,0,1,3.94-2.46l244.5-131.3c10.1-5.43,17.5-15.22,18.85-26.61a33.52,33.52,0,0,0-.55-11.27c-3.54-16.06-18.1-27-33.12-28.39-11.92-1.08-21.2,4.15-25.76,7.41a49.93,49.93,0,0,1-6.39,3.73C633,416,597.69,432.35,507.72,470.42"/><path class="cls-2" d="M493.52,129.7c5.46-6.8,28.16-33.44,66.25-37.86,9.06-1,30.72-3.26,52.06,9.46,37.42,22.32,37.87,69.07,37.85,71v.51c-.24,18.55-8.26,36.15-21.38,49.26L493.52,356.85"/><path class="cls-2" d="M493.52,129.7c-4.18-6-26.41-36.67-66.25-41.81-8.06-1-30.36-3.48-52.06,9.46-37.42,22.31-37.87,69.07-37.86,71,0,.18,0,.35,0,.52.12,9.2,2.42,26.15,21.37,49.26,14.54,17.72,63.64,69.26,134.79,134.78"/><rect class="cls-2" x="48.68" y="314.26" width="89.91" height="246.08" rx="17.35"/></svg>