<svg id="Layer_1" data-name="Layer 1" xmlns="http://www.w3.org/2000/svg" width="800" height="800" viewBox="0 0 800 800"><defs><style>.cls-1,.cls-2{fill:none;stroke:#7b99aa;stroke-linecap:round;stroke-linejoin:round;stroke-width:14px;}.cls-2,.cls-3{isolation:isolate;}.cls-2{opacity:0.96;}.cls-3{fill:#7b99aa;opacity:0.44;}</style></defs><g id="Group_4" data-name="Group 4"><path id="Path_5" data-name="Path 5" class="cls-1" d="M339.42,209c-32.1,0-58.13,20.57-58.13,58s54.25,73.46,100.76,112.11c46.5-38.66,101-74.23,101-112.11s-26-58-58.14-58C408,209,392.67,220.68,382,232.2c-10.61-11.45-25.76-23.2-42.62-23.2Z"/><ellipse id="Ellipse_1" data-name="Ellipse 1" class="cls-2" cx="383.6" cy="282.3" rx="162.25" ry="162.26"/></g><ellipse id="Ellipse_38" data-name="Ellipse 38" class="cls-3" cx="420.73" cy="312.38" rx="170.27" ry="173.35"/><path d="M189.4,550.91c0-9-7-11.22-17.16-11.22h-6.6V580s0,1.38-1.8,1.38S162,580,162,580V537.59a1.13,1.13,0,0,1,1.2-1.2h9c12.24,0,20.76,3.72,20.76,14.64,0,12.42-11.22,17.22-22.68,17.22-1.62,0-2.1-.6-2.1-1.56,0-1.14.48-1.62,2-1.62C179.68,565.07,189.4,561.77,189.4,550.91Z"/><path d="M201.7,562.37c0-11.76,9.18-19.86,19-19.86s19,8.1,19,19.86-8.64,19.56-19,19.56S201.7,574,201.7,562.37Zm34.62,0c0-10.14-7.14-16.74-15.6-16.74s-15.6,6.6-15.6,16.74c0,10,7.2,16.44,15.6,16.44S236.32,572.33,236.32,562.37Z"/><path d="M262.18,578.93c6.84,0,11.4-3.12,11.4-7.74,0-10.2-23.88-6.06-23.88-18.24,0-6.18,5.4-10.44,13.44-10.44,6.66,0,11.22,3.36,11.22,7.32,0,2.4-2,4-3.06,4-.9,0-1.2-.42-1.2-.84,0-.72.9-1,.9-3,0-2.58-3-4.56-7.86-4.56-5.1,0-10.08,2.22-10.08,6.9,0,10,23.88,5.82,23.88,18.36,0,6.12-5.16,11.28-14.64,11.28-8.34,0-13.92-2.88-13.92-8.28,0-3.42,2.22-4.92,3.18-4.92a1.08,1.08,0,0,1,1.14,1c0,.72-1.08,1.68-1.08,3.3C251.62,576.77,255.64,578.93,262.18,578.93Z"/><path d="M290,580.37c0,.48-.36,1-1.74,1s-1.68-.54-1.68-1V544.13c0-.54.42-1,1.68-1s1.74.36,1.74,1Z"/><path d="M313.18,546.23v34.14c0,.54-.42,1-1.74,1s-1.68-.48-1.68-1V546.23H298.18a1.48,1.48,0,0,1-1-1.56,1.45,1.45,0,0,1,1-1.5H324.7a1.45,1.45,0,0,1,1,1.5,1.48,1.48,0,0,1-1,1.56Z"/><path d="M336.34,580.37c0,.48-.36,1-1.74,1s-1.68-.54-1.68-1V544.13c0-.54.42-1,1.68-1s1.74.36,1.74,1Z"/><path d="M347.32,544.31l15.24,32.4,15.24-32.58a1.58,1.58,0,0,1,1.56-1c1,0,1.5.48,1.5,1.14a1.63,1.63,0,0,1-.18.78l-17,36.3c-.18.36-.54.54-1.2.54s-1-.18-1.14-.54l-17-36.3a1.48,1.48,0,0,1-.18-.84c0-.48.42-1.08,1.56-1.08A1.57,1.57,0,0,1,347.32,544.31Z"/><path d="M413.68,546.23v34.14c0,.54-.42,1-1.74,1s-1.68-.48-1.68-1V546.23H398.68a1.48,1.48,0,0,1-1-1.56,1.45,1.45,0,0,1,1-1.5H425.2a1.45,1.45,0,0,1,1,1.5,1.48,1.48,0,0,1-1,1.56Z"/><path d="M436.84,580.37c0,.48-.36,1-1.74,1s-1.68-.54-1.68-1V544.13c0-.54.42-1,1.68-1s1.74.36,1.74,1Z"/><path d="M472.36,578.27a1.56,1.56,0,0,1,1,1.56,1.48,1.48,0,0,1-1,1.56h-23.7a1,1,0,0,1-1-1V544.13c0-.54.42-1,1.68-1s1.74.36,1.74,1v34.14Z"/><path d="M481.42,563.09c0,10.86,7,15.84,16,15.84,6.84,0,11.28-4.32,11.28-6.48v-5.22h-7.56a1.7,1.7,0,0,1,0-3.12h9.9a1,1,0,0,1,1,1v7.68c0,3.6-6.6,9.18-14.82,9.18-10.26,0-19.38-6.54-19.38-18.9,0-14.4,10.14-20.58,19.74-20.58,7.86,0,13,4.56,13,10,0,2.58-1,4-2.28,4-.9,0-1.56-.36-1.56-1.08s.54-1,.54-2.52c0-4.26-3.42-7.2-9.66-7.2C489.34,545.63,481.42,550.07,481.42,563.09Z"/><path d="M525.4,572.69l-3.3,7.2c-.48,1.08-.9,1.5-2.1,1.5a1.31,1.31,0,0,1-1.44-1.2,1.63,1.63,0,0,1,.18-.78l16.62-35.58c.3-.6.66-1.32,1.56-1.32s1.2.72,1.5,1.38l16.86,35.52a1.63,1.63,0,0,1,.18.78,1.31,1.31,0,0,1-1.44,1.2,1.85,1.85,0,0,1-1.8-1.14l-3.54-7.56Zm1.5-3.18h20.28L537,547.79Z"/><path d="M566.62,543.83l25.26,31.62V544.13c0-.42.42-1,1.5-1s1.5.54,1.5,1v36.36c0,.6-.48.9-1.26.9a1.84,1.84,0,0,1-1.62-1l-25.74-31.68v31.62c0,.48-.36,1-1.5,1s-1.5-.48-1.5-1V544.19c0-.48.48-1,1.68-1A2.08,2.08,0,0,1,566.62,543.83Z"/><path d="M608.32,563.09c0,10.86,7,15.84,16,15.84,6.84,0,11.28-4.32,11.28-6.48v-5.22h-7.56a1.7,1.7,0,0,1,0-3.12H638a1,1,0,0,1,1,1v7.68c0,3.6-6.6,9.18-14.82,9.18-10.26,0-19.38-6.54-19.38-18.9,0-14.4,10.14-20.58,19.74-20.58,7.86,0,13,4.56,13,10,0,2.58-1,4-2.28,4-.9,0-1.56-.36-1.56-1.08s.54-1,.54-2.52c0-4.26-3.42-7.2-9.66-7.2C616.24,545.63,608.32,550.07,608.32,563.09Z"/><path d="M145.9,611.69V652s0,1.38-1.8,1.38-1.8-1.38-1.8-1.38V611.69H128.68a1.44,1.44,0,0,1-1.38-1.62c0-1.68,1.38-1.68,1.38-1.68h30.84s1.38,0,1.38,1.68a1.44,1.44,0,0,1-1.38,1.62Z"/><path d="M169.12,652.37c0,.48-.36,1-1.74,1s-1.68-.54-1.68-1V616.13c0-.54.42-1,1.68-1s1.74.36,1.74,1Z"/><path d="M204.64,650.27a1.56,1.56,0,0,1,1,1.56,1.48,1.48,0,0,1-1,1.56h-23.7a1,1,0,0,1-1-1V616.13c0-.54.42-1,1.68-1s1.74.36,1.74,1v34.14Z"/><path d="M258.16,616.13c0-.54.24-1,1.56-1s1.56.54,1.56,1V641c0,6.78-6.3,12.9-16.26,12.9-10.26,0-16.14-6.12-16.14-12.9v-24.9c0-.48.42-1,1.68-1s1.74.42,1.74,1v24.78c0,5.4,4.2,10,12.72,10,8.34,0,13.14-4.56,13.14-10Z"/><path d="M273.1,653.39a1,1,0,0,1-1-1V616.19a1,1,0,0,1,1-1h9.84c13.08,0,22.74,4.8,22.74,18.66,0,10.62-5.58,19.56-21.48,19.56Zm11.1-3.06c13.92,0,18-7.32,18-16.5,0-11.82-7.56-15.6-19.26-15.6H275.5v32.1Z"/><path d="M319,652.37c0,.48-.36,1-1.74,1s-1.68-.54-1.68-1V616.19a1,1,0,0,1,1-1h22.32a1.45,1.45,0,0,1,1,1.5,1.48,1.48,0,0,1-1,1.56H319v19.14h15.84a1.7,1.7,0,0,1,0,3.12H319Z"/><path d="M345.76,634.37c0-11.76,9.18-19.86,19-19.86s19,8.1,19,19.86-8.64,19.56-19,19.56S345.76,646,345.76,634.37Zm34.62,0c0-10.14-7.14-16.74-15.6-16.74s-15.6,6.6-15.6,16.74c0,10,7.2,16.44,15.6,16.44S380.38,644.33,380.38,634.37Z"/><path d="M422.14,650.27c.42,0,.6.78.6,1.14,0,1.32-2,2-3.36,2-5.94,0-8.16-9.66-15.48-12.78a30.12,30.12,0,0,1-4,.24c-1.38,0-1.74-.78-1.74-1.56,0-1.14.36-1.32,1.08-1.32,8.82,0,16.68-3.3,16.68-11.22,0-7.26-5.52-8.52-13.08-8.52h-5.76v34.14c0,.6-.36,1-1.74,1s-1.68-.36-1.68-1V616.19a1,1,0,0,1,1-1h8.28c9,0,16.5,2.64,16.5,11.46,0,6.84-4.92,11.16-11.28,13.08,5.76,3.54,7.62,10.74,12.54,10.74A7.61,7.61,0,0,0,422.14,650.27Z"/><path d="M431,653.39a1,1,0,0,1-1-1V616.19a1,1,0,0,1,1-1h9.84c13.08,0,22.74,4.8,22.74,18.66,0,10.62-5.58,19.56-21.48,19.56Zm11.1-3.06c13.92,0,18-7.32,18-16.5,0-11.82-7.56-15.6-19.26-15.6h-7.44v32.1Z"/><path d="M501.94,650.27c.42,0,.6.78.6,1.14,0,1.32-2,2-3.36,2-5.94,0-8.16-9.66-15.48-12.78a30.12,30.12,0,0,1-4,.24c-1.38,0-1.74-.78-1.74-1.56,0-1.14.36-1.32,1.08-1.32,8.82,0,16.68-3.3,16.68-11.22,0-7.26-5.52-8.52-13.08-8.52h-5.76v34.14c0,.6-.36,1-1.74,1s-1.68-.36-1.68-1V616.19a1,1,0,0,1,1-1h8.28c9,0,16.5,2.64,16.5,11.46,0,6.84-4.92,11.16-11.28,13.08,5.76,3.54,7.62,10.74,12.54,10.74A7.61,7.61,0,0,0,501.94,650.27Z"/><path d="M513.16,652.37c0,.48-.36,1-1.74,1s-1.68-.54-1.68-1V616.13c0-.54.42-1,1.68-1s1.74.36,1.74,1Z"/><path d="M527.32,615.83l25.26,31.62V616.13c0-.42.42-1,1.5-1s1.5.54,1.5,1v36.36c0,.6-.48.9-1.26.9a1.84,1.84,0,0,1-1.62-1L527,620.75v31.62c0,.48-.36,1-1.5,1s-1.5-.48-1.5-1V616.19c0-.48.48-1,1.68-1A2.08,2.08,0,0,1,527.32,615.83Z"/><path d="M569,635.09c0,10.86,7,15.84,16,15.84,6.84,0,11.28-4.32,11.28-6.48v-5.22h-7.56a1.7,1.7,0,0,1,0-3.12h9.9a1,1,0,0,1,1,1v7.68c0,3.6-6.6,9.18-14.82,9.18-10.26,0-19.38-6.54-19.38-18.9,0-14.4,10.14-20.58,19.74-20.58,7.86,0,13,4.56,13,10,0,2.58-1,4-2.28,4-.9,0-1.56-.36-1.56-1.08s.54-1,.54-2.52c0-4.26-3.42-7.2-9.66-7.2C576.94,617.63,569,622.07,569,635.09Z"/><path d="M634.3,650.27a1.56,1.56,0,0,1,1,1.56,1.48,1.48,0,0,1-1,1.56H610.6a1,1,0,0,1-1-1V616.19a1,1,0,0,1,1-1h22.26a1.45,1.45,0,0,1,1,1.5,1.59,1.59,0,0,1-1,1.62H613v18.42h16.74a1.59,1.59,0,0,1,1,1.62,1.48,1.48,0,0,1-1,1.56H613v10.38Z"/><path d="M672.22,650.27c.42,0,.6.78.6,1.14,0,1.32-2,2-3.36,2-5.94,0-8.16-9.66-15.48-12.78a30.12,30.12,0,0,1-4,.24c-1.38,0-1.74-.78-1.74-1.56,0-1.14.36-1.32,1.08-1.32,8.82,0,16.68-3.3,16.68-11.22,0-7.26-5.52-8.52-13.08-8.52h-5.76v34.14c0,.6-.36,1-1.74,1s-1.68-.36-1.68-1V616.19a1,1,0,0,1,1-1H653c9,0,16.5,2.64,16.5,11.46,0,6.84-4.92,11.16-11.28,13.08,5.76,3.54,7.62,10.74,12.54,10.74A7.61,7.61,0,0,0,672.22,650.27Z"/></svg>