<svg id="Layer_1" data-name="Layer 1" xmlns="http://www.w3.org/2000/svg" width="800" height="800" viewBox="0 0 800 800"><defs><style>.cls-1,.cls-2{fill:none;stroke:#7b99aa;stroke-linecap:round;stroke-linejoin:round;stroke-width:14px;}.cls-2,.cls-3{isolation:isolate;}.cls-2{opacity:0.96;}.cls-3{fill:#7b99aa;opacity:0.44;}</style></defs><g id="Group_4" data-name="Group 4"><path id="Path_5" data-name="Path 5" class="cls-1" d="M331.88,135.65c-41.75,0-75.59,26.74-75.59,75.4s70.54,95.52,131,145.78c60.46-50.27,131.33-96.52,131.33-145.78s-33.84-75.4-75.59-75.4c-22,0-41.93,15.19-55.74,30.16-13.81-14.89-33.5-30.16-55.43-30.16Z"/><ellipse id="Ellipse_1" data-name="Ellipse 1" class="cls-2" cx="389.32" cy="230.95" rx="210.97" ry="210.98"/></g><ellipse id="Ellipse_38" data-name="Ellipse 38" class="cls-3" cx="437.6" cy="270.08" rx="221.4" ry="225.4"/><path d="M256.05,560.62c0-7.5-5.8-9.35-14.3-9.35h-5.5v33.6s0,1.15-1.5,1.15-1.5-1.15-1.5-1.15V549.52a.94.94,0,0,1,1-1h7.5c10.2,0,17.3,3.1,17.3,12.2,0,10.35-9.35,14.35-18.9,14.35-1.35,0-1.75-.5-1.75-1.3s.4-1.35,1.7-1.35C248,572.42,256.05,569.67,256.05,560.62Z"/><path d="M266.3,570.17a16.14,16.14,0,0,1,15.85-16.55c8.2,0,15.8,6.75,15.8,16.55s-7.2,16.3-15.8,16.3S266.3,579.87,266.3,570.17Zm28.85,0c0-8.45-5.95-13.95-13-13.95s-13,5.5-13,13.95,6,13.7,13,13.7S295.15,578.47,295.15,570.17Z"/><path d="M316.7,584c5.7,0,9.5-2.6,9.5-6.45,0-8.5-19.9-5-19.9-15.2,0-5.15,4.5-8.7,11.2-8.7,5.55,0,9.35,2.8,9.35,6.1,0,2-1.65,3.35-2.55,3.35s-1-.35-1-.7c0-.6.75-.8.75-2.5,0-2.15-2.5-3.8-6.55-3.8-4.25,0-8.4,1.85-8.4,5.75,0,8.35,19.9,4.85,19.9,15.3,0,5.1-4.3,9.4-12.2,9.4-6.95,0-11.6-2.4-11.6-6.9,0-2.85,1.85-4.1,2.65-4.1a.9.9,0,0,1,.95.85c0,.6-.9,1.4-.9,2.75C307.9,582.17,311.25,584,316.7,584Z"/><path d="M339.85,585.17c0,.4-.3.85-1.45.85s-1.4-.45-1.4-.85V555c0-.45.35-.8,1.4-.8s1.45.3,1.45.8Z"/><path d="M359.2,556.72v28.45c0,.45-.35.85-1.45.85s-1.4-.4-1.4-.85V556.72H346.7a1.23,1.23,0,0,1-.85-1.3,1.21,1.21,0,0,1,.85-1.25h22.1a1.21,1.21,0,0,1,.85,1.25,1.23,1.23,0,0,1-.85,1.3Z"/><path d="M378.5,585.17c0,.4-.3.85-1.45.85s-1.4-.45-1.4-.85V555c0-.45.35-.8,1.4-.8s1.45.3,1.45.8Z"/><path d="M387.65,555.12l12.7,27L413.05,555a1.32,1.32,0,0,1,1.3-.8c.8,0,1.25.4,1.25,1a1.36,1.36,0,0,1-.15.65L401.25,586c-.15.3-.45.45-1,.45s-.8-.15-.95-.45l-14.2-30.25a1.24,1.24,0,0,1-.15-.7c0-.4.35-.9,1.3-.9A1.31,1.31,0,0,1,387.65,555.12Z"/><path d="M443,556.72v28.45c0,.45-.35.85-1.45.85s-1.4-.4-1.4-.85V556.72h-9.65a1.23,1.23,0,0,1-.85-1.3,1.21,1.21,0,0,1,.85-1.25h22.1a1.21,1.21,0,0,1,.85,1.25,1.23,1.23,0,0,1-.85,1.3Z"/><path d="M462.25,585.17c0,.4-.3.85-1.45.85s-1.4-.45-1.4-.85V555c0-.45.35-.8,1.4-.8s1.45.3,1.45.8Z"/><path d="M491.85,583.42a1.3,1.3,0,0,1,.85,1.3,1.23,1.23,0,0,1-.85,1.3H472.1a.81.81,0,0,1-.85-.85V555c0-.45.35-.8,1.4-.8s1.45.3,1.45.8v28.45Z"/><path d="M499.4,570.77c0,9.05,5.8,13.2,13.35,13.2,5.7,0,9.4-3.6,9.4-5.4v-4.35h-6.3a1.42,1.42,0,0,1,0-2.6h8.25a.81.81,0,0,1,.85.85v6.4c0,3-5.5,7.65-12.35,7.65-8.55,0-16.15-5.45-16.15-15.75,0-12,8.45-17.15,16.45-17.15,6.55,0,10.8,3.8,10.8,8.3,0,2.15-.85,3.3-1.9,3.3-.75,0-1.3-.3-1.3-.9s.45-.85.45-2.1c0-3.55-2.85-6-8.05-6C506,556.22,499.4,559.92,499.4,570.77Z"/><path d="M536.05,578.77l-2.75,6c-.4.9-.75,1.25-1.75,1.25a1.09,1.09,0,0,1-1.2-1,1.36,1.36,0,0,1,.15-.65l13.85-29.65c.25-.5.55-1.1,1.3-1.1s1,.6,1.25,1.15L561,584.37a1.36,1.36,0,0,1,.15.65,1.09,1.09,0,0,1-1.2,1,1.54,1.54,0,0,1-1.5-.95l-2.95-6.3Zm1.25-2.65h16.9L545.7,558Z"/><path d="M570.4,554.72l21.05,26.35V555c0-.35.35-.8,1.25-.8s1.25.45,1.25.8v30.3c0,.5-.4.75-1.05.75a1.53,1.53,0,0,1-1.35-.8l-21.45-26.4v26.35c0,.4-.3.85-1.25.85s-1.25-.4-1.25-.85V555c0-.4.4-.85,1.4-.85A1.73,1.73,0,0,1,570.4,554.72Z"/><path d="M605.15,570.77c0,9.05,5.8,13.2,13.35,13.2,5.7,0,9.4-3.6,9.4-5.4v-4.35h-6.3a1.42,1.42,0,0,1,0-2.6h8.25a.81.81,0,0,1,.85.85v6.4c0,3-5.5,7.65-12.35,7.65-8.55,0-16.15-5.45-16.15-15.75,0-12,8.45-17.15,16.45-17.15,6.55,0,10.8,3.8,10.8,8.3,0,2.15-.85,3.3-1.9,3.3-.75,0-1.3-.3-1.3-.9s.45-.85.45-2.1c0-3.55-2.85-6-8.05-6C611.75,556.22,605.15,559.92,605.15,570.77Z"/><path d="M219.8,611.27v33.6s0,1.15-1.5,1.15-1.5-1.15-1.5-1.15v-33.6H205.45a1.2,1.2,0,0,1-1.15-1.35c0-1.4,1.15-1.4,1.15-1.4h25.7s1.15,0,1.15,1.4a1.2,1.2,0,0,1-1.15,1.35Z"/><path d="M239.15,645.17c0,.4-.3.85-1.45.85s-1.4-.45-1.4-.85V615c0-.45.35-.8,1.4-.8s1.45.3,1.45.8Z"/><path d="M268.75,643.42a1.3,1.3,0,0,1,.85,1.3,1.23,1.23,0,0,1-.85,1.3H249a.81.81,0,0,1-.85-.85V615c0-.45.35-.8,1.4-.8s1.45.3,1.45.8v28.45Z"/><path d="M313.35,615c0-.45.2-.8,1.3-.8s1.3.45,1.3.8v20.75c0,5.65-5.25,10.75-13.55,10.75-8.55,0-13.45-5.1-13.45-10.75V615c0-.4.35-.8,1.4-.8s1.45.35,1.45.8v20.65c0,4.5,3.5,8.3,10.6,8.3s11-3.8,11-8.3Z"/><path d="M325.8,646a.81.81,0,0,1-.85-.85V615a.79.79,0,0,1,.85-.85H334c10.9,0,18.95,4,18.95,15.55,0,8.85-4.65,16.3-17.9,16.3Zm9.25-2.55c11.6,0,15-6.1,15-13.75,0-9.85-6.3-13-16.05-13h-6.2v26.75Z"/><path d="M364.05,645.17c0,.4-.3.85-1.45.85s-1.4-.45-1.4-.85V615a.79.79,0,0,1,.85-.85h18.6a1.21,1.21,0,0,1,.85,1.25,1.23,1.23,0,0,1-.85,1.3h-16.6v15.95h13.2a1.42,1.42,0,0,1,0,2.6h-13.2Z"/><path d="M386.35,630.17a16.14,16.14,0,0,1,15.85-16.55c8.2,0,15.8,6.75,15.8,16.55s-7.2,16.3-15.8,16.3S386.35,639.87,386.35,630.17Zm28.85,0c0-8.45-5.95-13.95-13-13.95s-13,5.5-13,13.95,6,13.7,13,13.7S415.2,638.47,415.2,630.17Z"/><path d="M450,643.42c.35,0,.5.65.5,1,0,1.1-1.7,1.65-2.8,1.65-4.95,0-6.8-8-12.9-10.65a25.1,25.1,0,0,1-3.35.2c-1.15,0-1.45-.65-1.45-1.3,0-.95.3-1.1.9-1.1,7.35,0,13.9-2.75,13.9-9.35,0-6.05-4.6-7.1-10.9-7.1h-4.8v28.45c0,.5-.3.85-1.45.85s-1.4-.3-1.4-.85V615a.79.79,0,0,1,.85-.85H434c7.5,0,13.75,2.2,13.75,9.55,0,5.7-4.1,9.3-9.4,10.9,4.8,3,6.35,9,10.45,9A6.34,6.34,0,0,0,450,643.42Z"/><path d="M457.35,646a.81.81,0,0,1-.85-.85V615a.79.79,0,0,1,.85-.85h8.2c10.9,0,18.95,4,18.95,15.55,0,8.85-4.65,16.3-17.9,16.3Zm9.25-2.55c11.6,0,15-6.1,15-13.75,0-9.85-6.3-13-16.05-13h-6.2v26.75Z"/><path d="M516.5,643.42c.35,0,.5.65.5,1,0,1.1-1.7,1.65-2.8,1.65-5,0-6.8-8-12.9-10.65a25.1,25.1,0,0,1-3.35.2c-1.15,0-1.45-.65-1.45-1.3,0-.95.3-1.1.9-1.1,7.35,0,13.9-2.75,13.9-9.35,0-6.05-4.6-7.1-10.9-7.1h-4.8v28.45c0,.5-.3.85-1.45.85s-1.4-.3-1.4-.85V615a.79.79,0,0,1,.85-.85h6.9c7.5,0,13.75,2.2,13.75,9.55,0,5.7-4.1,9.3-9.4,10.9,4.8,3,6.35,9,10.45,9A6.34,6.34,0,0,0,516.5,643.42Z"/><path d="M525.85,645.17c0,.4-.3.85-1.45.85s-1.4-.45-1.4-.85V615c0-.45.35-.8,1.4-.8s1.45.3,1.45.8Z"/><path d="M537.65,614.72l21.05,26.35V615c0-.35.35-.8,1.25-.8s1.25.45,1.25.8v30.3c0,.5-.4.75-1.05.75a1.53,1.53,0,0,1-1.35-.8l-21.45-26.4v26.35c0,.4-.3.85-1.25.85s-1.25-.4-1.25-.85V615c0-.4.4-.85,1.4-.85A1.73,1.73,0,0,1,537.65,614.72Z"/><path d="M572.4,630.77c0,9.05,5.8,13.2,13.35,13.2,5.7,0,9.4-3.6,9.4-5.4v-4.35h-6.3a1.42,1.42,0,0,1,0-2.6h8.25a.81.81,0,0,1,.85.85v6.4c0,3-5.5,7.65-12.35,7.65-8.55,0-16.15-5.45-16.15-15.75,0-12,8.45-17.15,16.45-17.15,6.55,0,10.8,3.8,10.8,8.3,0,2.15-.85,3.3-1.9,3.3-.75,0-1.3-.3-1.3-.9s.45-.85.45-2.1c0-3.55-2.85-6-8.05-6C579,616.22,572.4,619.92,572.4,630.77Z"/><path d="M626.8,643.42a1.3,1.3,0,0,1,.85,1.3,1.23,1.23,0,0,1-.85,1.3H607.05a.81.81,0,0,1-.85-.85V615a.79.79,0,0,1,.85-.85H625.6a1.21,1.21,0,0,1,.85,1.25,1.33,1.33,0,0,1-.85,1.35H609.05v15.35h14a1.33,1.33,0,0,1,.85,1.35,1.23,1.23,0,0,1-.85,1.3h-14v8.65Z"/><path d="M658.4,643.42c.35,0,.5.65.5,1,0,1.1-1.7,1.65-2.8,1.65-5,0-6.8-8-12.9-10.65a25.1,25.1,0,0,1-3.35.2c-1.15,0-1.45-.65-1.45-1.3,0-.95.3-1.1.9-1.1,7.35,0,13.9-2.75,13.9-9.35,0-6.05-4.6-7.1-10.9-7.1h-4.8v28.45c0,.5-.3.85-1.46.85s-1.39-.3-1.39-.85V615a.79.79,0,0,1,.85-.85h6.9c7.5,0,13.75,2.2,13.75,9.55,0,5.7-4.1,9.3-9.4,10.9,4.8,3,6.35,9,10.45,9A6.34,6.34,0,0,0,658.4,643.42Z"/></svg>