<svg id="Layer_1" data-name="Layer 1" xmlns="http://www.w3.org/2000/svg" width="800" height="800" viewBox="0 0 800 800"><defs><style>.cls-1{fill:#7b99aa;isolation:isolate;opacity:0.44;}.cls-2{fill:none;stroke:#3e3e3e;stroke-miterlimit:10;stroke-width:13px;}</style></defs><ellipse id="Ellipse_38" data-name="Ellipse 38" class="cls-1" cx="421.22" cy="375.98" rx="324.78" ry="330.65"/><path class="cls-2" d="M117.88,142.27c-2.43,4.11-55.59,97.61-4.57,186.35,19.57,34.05,47,54.42,64,65L191,541H405.74q7.72-75,15.46-149.92c17-10.6,44.4-31,64-65C518.83,267.51,514,195.3,480.6,139.69,444.87,80.11,377.19,40.82,302.4,40,222.36,39.14,153.16,82.55,117.88,142.27Z"/><path class="cls-2" d="M196,535.56c92.58-94.93,142.86-171.84,170.47-221.1,19.76-35.27,34.88-68.82,20.66-89.14-10.45-14.94-37.12-23.25-59.39-13.56-21.59,9.4-28.29,31-29.26,34.35"/><rect class="cls-2" x="177.28" y="540.98" width="242.17" height="65.01" rx="32.5"/><rect class="cls-2" x="177.28" y="605.99" width="242.17" height="65.01" rx="32.5"/><path class="cls-2" d="M400.28,535.61c-99.13-96.51-146.74-174.26-170.46-221.1-20.41-40.28-29.81-70.83-16.11-89.19,10.18-13.64,34.08-21.85,54.83-13.51,22,8.86,28.51,31.54,29.26,34.35"/></svg>