<svg id="Layer_1" data-name="Layer 1" xmlns="http://www.w3.org/2000/svg" width="800" height="800" viewBox="0 0 800 800"><defs><style>.cls-1{fill:#7b99aa;isolation:isolate;opacity:0.44;}.cls-2{fill:none;stroke:#3e3e3e;stroke-miterlimit:10;stroke-width:13px;}</style></defs><path class="cls-1" d="M64,154.67,511,755Q583.5,386,656,17Z"/><path class="cls-2" d="M353.43,55.47c-18.14-.16-105.13-1-166.4,65.69-10.73,11.67-39.11,45.47-48.18,96.34-9.13,51.26,6,93.72,17.52,122.62C213,482,330.43,664.61,351.38,697c21.82-32.93,140.69-213.47,197.06-354.71C560.24,312.72,575,270.5,566,219.67c-8.7-48.7-35.16-82-48.17-96.34C456.88,56.43,370.75,55.63,353.43,55.47Z"/><circle class="cls-2" cx="351.38" cy="259.08" r="96.34"/></svg>