<svg id="Layer_1" data-name="Layer 1" xmlns="http://www.w3.org/2000/svg" width="800" height="800" viewBox="0 0 800 800"><defs><style>.cls-1{fill:none;stroke:#7b99aa;stroke-linecap:round;stroke-linejoin:round;stroke-width:14px;}.cls-2{fill:#7b99aa;isolation:isolate;opacity:0.44;}</style></defs><g id="Group_2" data-name="Group 2"><path id="Path_3" data-name="Path 3" class="cls-1" d="M468.51,141.69l76.35,3.2a34.58,34.58,0,0,1,33.11,36L563.62,526.72a34.59,34.59,0,0,1-35.88,32.77L245,547.72"/><rect id="Rectangle_45" data-name="Rectangle 45" class="cls-1" x="130.01" y="121.27" width="363.15" height="415.03" rx="15.29" transform="translate(-42.92 46.81) rotate(-8.04)"/><path id="Path_4" data-name="Path 4" class="cls-1" d="M394.07,244.58a66.07,66.07,0,0,0-92.51,13.06,66.05,66.05,0,0,0-92.5,13.06c-22,29.22-8.3,74.1,16.08,101.33s79.55,58.28,97.09,67.7a8.64,8.64,0,0,0,10-1.38c13.91-14,58.61-58.8,74.43-92.26S423.21,266.54,394.07,244.58Z"/></g><rect class="cls-2" x="172.18" y="111.29" width="497.41" height="497.41" transform="translate(-132.45 383.77) rotate(-43)"/></svg>