<svg id="Layer_1" data-name="Layer 1" xmlns="http://www.w3.org/2000/svg" width="800" height="800" viewBox="0 0 800 800"><defs><style>.cls-1{fill:none;stroke:#7b99aa;stroke-linecap:round;stroke-linejoin:round;stroke-width:14px;}.cls-2{fill:#7b99aa;isolation:isolate;opacity:0.44;}</style></defs><g id="Group_2" data-name="Group 2"><path id="Path_3" data-name="Path 3" class="cls-1" d="M432.61,171.56l45.33,1.9a20.53,20.53,0,0,1,19.66,21.36l-8.52,205.35a20.52,20.52,0,0,1-21.3,19.46l-167.88-7"/><rect id="Rectangle_45" data-name="Rectangle 45" class="cls-1" x="231.63" y="159.44" width="215.62" height="246.43" rx="9.08" transform="matrix(0.99, -0.14, 0.14, 0.99, -36.2, 50.25)"/><path id="Path_4" data-name="Path 4" class="cls-1" d="M388.41,232.66a39.21,39.21,0,0,0-54.92,7.75,39.23,39.23,0,0,0-54.93,7.75c-13,17.36-4.93,44,9.55,60.17s47.23,34.6,57.65,40.2a5.12,5.12,0,0,0,5.95-.82c8.26-8.32,34.8-34.92,44.2-54.78S405.71,245.7,388.41,232.66Z"/></g><rect class="cls-2" x="253.33" y="152.95" width="270.72" height="270.72" transform="translate(-92.21 342.55) rotate(-43)"/><path d="M102,574.06a1.68,1.68,0,0,1-1.48-1.8,1.66,1.66,0,0,1,1.48-1.75h9.23V562.7s0-1.48,1.94-1.48,1.94,1.48,1.94,1.48v7.81h9.23a1.66,1.66,0,0,1,1.48,1.75,1.68,1.68,0,0,1-1.48,1.8h-9.23v9.5s0,1.48-1.94,1.48-1.94-1.48-1.94-1.48v-9.5Z"/><path d="M155.94,587.94a33.28,33.28,0,0,1,4.59-.32c4.58,0,13,1.29,15.88,1.29,3.61,0,4-1.61,5-1.61.84,0,1,.77,1,1.55,0,1.22-1.94,3.42-6.26,3.42-3.29,0-11.49-1.36-15.62-1.36-5.1,0-8.53,1.36-9.43,1.36s-1.36-.39-1.36-1.16c0-.58.07-1,.91-2.13,7.87-11.43,26.21-15.63,26.21-30.28,0-6.26-4.91-8.59-11.17-8.59-6.52,0-10.78,3.75-10.78,9.17,0,3.68,1.36,2.78,1.36,4.2,0,.9-.84,1.29-2.14,1.29S151,563,151,559.15c0-7,6.52-12.46,14.65-12.46,8.46,0,15,4.13,15,12.27C180.73,572.64,164.85,578.78,155.94,587.94Z"/><path d="M227.15,569.67c0,13.11-7.88,23-19.37,23s-19-9.82-19-22.92c0-12.91,7.61-23,19.17-23S227.15,556.7,227.15,569.67Zm-34.54.07c0,11.1,5.94,19.37,15.17,19.37s15.49-8.33,15.49-19.44-6-19.43-15.36-19.43S192.61,558.63,192.61,569.74Z"/><path d="M257,582.91l-3.55,7.75c-.51,1.16-1,1.61-2.26,1.61a1.41,1.41,0,0,1-1.55-1.29,1.7,1.7,0,0,1,.2-.84l17.88-38.28c.32-.65.71-1.42,1.68-1.42s1.29.77,1.61,1.48l18.14,38.22a1.7,1.7,0,0,1,.2.84,1.4,1.4,0,0,1-1.55,1.29,2,2,0,0,1-1.94-1.23l-3.81-8.13Zm1.62-3.42h21.82l-11-23.37ZM264,542.17a5.54,5.54,0,0,0,5.68,5.36,5.66,5.66,0,0,0,5.61-5.36,5.66,5.66,0,0,0-11.29,0Zm3.29,0a2.52,2.52,0,0,1,2.39-2.39,2.46,2.46,0,0,1,2.32,2.39,2.6,2.6,0,0,1-2.32,2.59A2.47,2.47,0,0,1,267.3,542.17Z"/><path d="M328.24,588.91c.45,0,.64.84.64,1.23,0,1.42-2.19,2.13-3.61,2.13-6.39,0-8.78-10.39-16.66-13.75a33,33,0,0,1-4.32.26c-1.49,0-1.87-.84-1.87-1.68,0-1.23.38-1.42,1.16-1.42,9.49,0,17.94-3.55,17.94-12.07,0-7.82-5.93-9.17-14.07-9.17h-6.2v36.73c0,.65-.38,1.1-1.87,1.1s-1.81-.39-1.81-1.1V552.24a1,1,0,0,1,1.1-1.09h8.91c9.68,0,17.75,2.84,17.75,12.33,0,7.36-5.29,12-12.13,14.07,6.19,3.81,8.2,11.56,13.49,11.56A8,8,0,0,0,328.24,588.91Z"/><path d="M350.19,589.62c7.36,0,12.26-3.35,12.26-8.33,0-11-25.69-6.52-25.69-19.62,0-6.65,5.81-11.23,14.46-11.23,7.16,0,12.07,3.61,12.07,7.87,0,2.58-2.13,4.33-3.29,4.33-1,0-1.29-.45-1.29-.91,0-.77,1-1,1-3.22,0-2.78-3.23-4.91-8.46-4.91-5.49,0-10.85,2.39-10.85,7.42,0,10.79,25.7,6.27,25.7,19.76,0,6.58-5.55,12.14-15.76,12.14-9,0-15-3.1-15-8.91,0-3.68,2.39-5.3,3.42-5.3a1.17,1.17,0,0,1,1.23,1.1c0,.77-1.17,1.81-1.17,3.55C338.82,587.3,343.15,589.62,350.19,589.62Z"/><path d="M420.42,588.91a1.69,1.69,0,0,1,1.1,1.68,1.6,1.6,0,0,1-1.1,1.68h-25.5a1.06,1.06,0,0,1-1.1-1.1V552.24a1,1,0,0,1,1.1-1.09h23.95a1.55,1.55,0,0,1,1.1,1.61,1.71,1.71,0,0,1-1.1,1.74H397.5v19.82h18a1.73,1.73,0,0,1,1.1,1.75,1.58,1.58,0,0,1-1.1,1.67h-18v11.17Z"/><path d="M461.22,588.91c.45,0,.64.84.64,1.23,0,1.42-2.19,2.13-3.61,2.13-6.39,0-8.78-10.39-16.66-13.75a33,33,0,0,1-4.32.26c-1.49,0-1.87-.84-1.87-1.68,0-1.23.38-1.42,1.16-1.42,9.49,0,17.95-3.55,17.95-12.07,0-7.82-5.94-9.17-14.08-9.17h-6.2v36.73c0,.65-.38,1.1-1.87,1.1s-1.81-.39-1.81-1.1V552.24a1,1,0,0,1,1.1-1.09h8.91c9.68,0,17.75,2.84,17.75,12.33,0,7.36-5.29,12-12.13,14.07,6.19,3.81,8.2,11.56,13.49,11.56A8,8,0,0,0,461.22,588.91Z"/><path d="M473.29,591.17c0,.52-.39,1.1-1.87,1.1s-1.81-.58-1.81-1.1V552.24a1,1,0,0,1,1.1-1.09h24a1.55,1.55,0,0,1,1.1,1.61,1.6,1.6,0,0,1-1.1,1.68H473.29V575h17a1.83,1.83,0,0,1,0,3.36h-17Z"/><path d="M506.34,582.91l-3.55,7.75c-.52,1.16-1,1.61-2.26,1.61A1.41,1.41,0,0,1,499,591a1.7,1.7,0,0,1,.2-.84l17.88-38.28c.32-.65.71-1.42,1.68-1.42s1.29.77,1.61,1.48l18.14,38.22a1.7,1.7,0,0,1,.2.84,1.41,1.41,0,0,1-1.55,1.29A2,2,0,0,1,535.2,591l-3.81-8.13Zm1.62-3.42h21.82l-11-23.37Z"/><path d="M577.74,588.91c.45,0,.65.84.65,1.23,0,1.42-2.2,2.13-3.62,2.13-6.39,0-8.78-10.39-16.66-13.75a33,33,0,0,1-4.32.26c-1.49,0-1.87-.84-1.87-1.68,0-1.23.38-1.42,1.16-1.42,9.49,0,17.95-3.55,17.95-12.07,0-7.82-5.94-9.17-14.08-9.17h-6.2v36.73c0,.65-.38,1.1-1.87,1.1s-1.81-.39-1.81-1.1V552.24a1,1,0,0,1,1.1-1.09h8.91c9.68,0,17.75,2.84,17.75,12.33,0,7.36-5.29,12-12.13,14.07,6.2,3.81,8.2,11.56,13.49,11.56A8,8,0,0,0,577.74,588.91Z"/><path d="M589.81,591.17c0,.52-.39,1.1-1.87,1.1s-1.81-.58-1.81-1.1v-39c0-.58.45-1,1.81-1s1.87.38,1.87,1Z"/><path d="M605,551.86l27.18,34v-33.7c0-.45.46-1,1.62-1s1.61.58,1.61,1V591.3c0,.65-.51,1-1.35,1a2,2,0,0,1-1.75-1l-27.69-34.09v34c0,.52-.39,1.1-1.62,1.1s-1.61-.52-1.61-1.1V552.24c0-.51.52-1.09,1.81-1.09A2.2,2.2,0,0,1,605,551.86Z"/><path d="M649.91,572.58c0,11.69,7.49,17,17.24,17,7.36,0,12.13-4.65,12.13-7V577h-8.13a1.83,1.83,0,0,1,0-3.35H681.8a1,1,0,0,1,1.1,1.09V583c0,3.87-7.1,9.88-15.95,9.88-11,0-20.85-7-20.85-20.34,0-15.49,10.91-22.14,21.24-22.14,8.46,0,13.94,4.9,13.94,10.71,0,2.78-1.09,4.26-2.45,4.26-1,0-1.68-.38-1.68-1.16s.58-1.1.58-2.71c0-4.58-3.68-7.75-10.39-7.75C658.43,553.79,649.91,558.57,649.91,572.58Z"/><path d="M108.43,668.64c0,.51-.39,1.1-1.87,1.1s-1.81-.59-1.81-1.1v-39c0-.58.45-1,1.81-1s1.87.39,1.87,1Z"/><path d="M123.67,629.32l27.18,34v-33.7c0-.45.45-1,1.61-1s1.61.58,1.61,1v39.13c0,.64-.51,1-1.35,1a2,2,0,0,1-1.75-1l-27.69-34.08v34c0,.51-.39,1.1-1.62,1.1s-1.61-.52-1.61-1.1V629.71c0-.52.52-1.1,1.81-1.1A2.27,2.27,0,0,1,123.67,629.32Z"/><path d="M166.79,669.74a1.06,1.06,0,0,1-1.1-1.1V629.71a1,1,0,0,1,1.1-1.1h10.59c14.07,0,24.46,5.17,24.46,20.08,0,11.43-6,21-23.11,21Zm11.94-3.3c15,0,19.37-7.87,19.37-17.75,0-12.72-8.14-16.79-20.72-16.79h-8v34.54Z"/><path d="M239.09,666.38a1.67,1.67,0,0,1,1.1,1.68,1.6,1.6,0,0,1-1.1,1.68h-25.5a1.06,1.06,0,0,1-1.1-1.1V629.71a1,1,0,0,1,1.1-1.1h23.95a1.56,1.56,0,0,1,1.1,1.62,1.71,1.71,0,0,1-1.1,1.74H216.17v19.82h18a1.71,1.71,0,0,1,1.1,1.74,1.6,1.6,0,0,1-1.1,1.68h-18v11.17Z"/><path d="M252.84,629.32l27.18,34v-33.7c0-.45.45-1,1.61-1s1.61.58,1.61,1v39.13c0,.64-.51,1-1.35,1a2,2,0,0,1-1.74-1l-27.7-34.08v34c0,.51-.39,1.1-1.61,1.1s-1.62-.52-1.62-1.1V629.71c0-.52.52-1.1,1.81-1.1A2.24,2.24,0,0,1,252.84,629.32Z"/><path d="M298.54,668.64c0,.51-.39,1.1-1.87,1.1s-1.81-.59-1.81-1.1V629.71a1,1,0,0,1,1.1-1.1h24a1.56,1.56,0,0,1,1.09,1.62A1.58,1.58,0,0,1,320,631.9H298.54v20.6h17a1.84,1.84,0,0,1,0,3.36h-17Z"/><path d="M327.33,649.27c0-12.65,9.88-21.37,20.47-21.37s20.4,8.72,20.4,21.37-9.3,21.05-20.4,21.05S327.33,661.79,327.33,649.27Zm37.25,0c0-10.91-7.68-18-16.78-18s-16.79,7.1-16.79,18C331,660,338.76,667,347.8,667S364.58,660,364.58,649.27Z"/><path d="M409.51,666.38c.45,0,.65.84.65,1.22,0,1.43-2.2,2.14-3.62,2.14-6.39,0-8.78-10.4-16.65-13.75a33.09,33.09,0,0,1-4.33.25c-1.48,0-1.87-.84-1.87-1.68,0-1.22.39-1.42,1.16-1.42,9.49,0,17.95-3.55,17.95-12.07,0-7.81-5.94-9.17-14.08-9.17h-6.19v36.74c0,.64-.39,1.1-1.88,1.1s-1.8-.39-1.8-1.1V629.71a1,1,0,0,1,1.09-1.1h8.91c9.69,0,17.76,2.84,17.76,12.33,0,7.36-5.3,12-12.14,14.08,6.2,3.81,8.2,11.55,13.49,11.55A8.35,8.35,0,0,0,409.51,666.38Z"/><path d="M461.93,666.38a1.67,1.67,0,0,1,1.1,1.68,1.6,1.6,0,0,1-1.1,1.68h-25.5a1.06,1.06,0,0,1-1.1-1.1v-39c0-.58.45-1,1.81-1s1.87.39,1.87,1v36.74Z"/><path d="M498.66,666.38a1.67,1.67,0,0,1,1.1,1.68,1.6,1.6,0,0,1-1.1,1.68h-25.5a1.06,1.06,0,0,1-1.1-1.1V629.71a1,1,0,0,1,1.1-1.1h23.95a1.56,1.56,0,0,1,1.1,1.62,1.71,1.71,0,0,1-1.1,1.74H475.74v19.82h18a1.71,1.71,0,0,1,1.1,1.74,1.6,1.6,0,0,1-1.1,1.68h-18v11.17Z"/><path d="M509.89,669.74a1.06,1.06,0,0,1-1.1-1.1V629.71a1,1,0,0,1,1.1-1.1h10.59c14.07,0,24.47,5.17,24.47,20.08,0,11.43-6,21-23.12,21Zm11.94-3.3c15,0,19.37-7.87,19.37-17.75,0-12.72-8.13-16.79-20.72-16.79h-8v34.54Z"/><path d="M582.19,666.38a1.67,1.67,0,0,1,1.1,1.68,1.6,1.6,0,0,1-1.1,1.68h-25.5a1.06,1.06,0,0,1-1.1-1.1V629.71a1,1,0,0,1,1.1-1.1h23.95a1.56,1.56,0,0,1,1.1,1.62,1.71,1.71,0,0,1-1.1,1.74H559.27v19.82h18a1.71,1.71,0,0,1,1.09,1.74,1.59,1.59,0,0,1-1.09,1.68h-18v11.17Z"/><path d="M618.92,666.38a1.67,1.67,0,0,1,1.1,1.68,1.6,1.6,0,0,1-1.1,1.68h-25.5a1.06,1.06,0,0,1-1.1-1.1v-39c0-.58.46-1,1.81-1s1.87.39,1.87,1v36.74Z"/><path d="M642.1,667.09c7.36,0,12.26-3.36,12.26-8.33,0-11-25.69-6.52-25.69-19.62,0-6.65,5.81-11.24,14.46-11.24,7.17,0,12.07,3.62,12.07,7.88,0,2.58-2.13,4.32-3.29,4.32-1,0-1.29-.45-1.29-.9,0-.78,1-1,1-3.23,0-2.77-3.23-4.91-8.46-4.91-5.49,0-10.85,2.39-10.85,7.43,0,10.78,25.7,6.26,25.7,19.75,0,6.59-5.55,12.14-15.75,12.14-9,0-15-3.1-15-8.91,0-3.68,2.39-5.29,3.42-5.29a1.17,1.17,0,0,1,1.23,1.1c0,.77-1.17,1.8-1.17,3.55C630.73,664.76,635.06,667.09,642.1,667.09Z"/><path d="M694.9,666.38a1.67,1.67,0,0,1,1.1,1.68,1.6,1.6,0,0,1-1.1,1.68H669.4a1.06,1.06,0,0,1-1.1-1.1V629.71a1,1,0,0,1,1.1-1.1h24a1.56,1.56,0,0,1,1.1,1.62,1.71,1.71,0,0,1-1.1,1.74H672v19.82h18a1.71,1.71,0,0,1,1.09,1.74,1.59,1.59,0,0,1-1.09,1.68H672v11.17Z"/></svg>