<svg id="Layer_1" data-name="Layer 1" xmlns="http://www.w3.org/2000/svg" width="800" height="800" viewBox="0 0 800 800"><defs><style>.cls-1{fill:none;stroke:#7b99aa;stroke-linecap:round;stroke-linejoin:round;stroke-width:14px;}.cls-2{fill:#7b99aa;isolation:isolate;opacity:0.44;}</style></defs><g id="Group_2" data-name="Group 2"><path id="Path_3" data-name="Path 3" class="cls-1" d="M454.23,84.22,514,86.72a27,27,0,0,1,25.89,28.13l-11.22,270.5A27.06,27.06,0,0,1,500.56,411l-221.13-9.2"/><rect id="Rectangle_45" data-name="Rectangle 45" class="cls-1" x="189.49" y="68.25" width="284.02" height="324.6" rx="11.96" transform="translate(-28.99 48.63) rotate(-8.04)"/><path id="Path_4" data-name="Path 4" class="cls-1" d="M396,164.69a51.67,51.67,0,0,0-72.35,10.21,51.66,51.66,0,0,0-72.34,10.22c-17.18,22.85-6.5,57.95,12.57,79.25s62.22,45.58,75.94,52.95a6.76,6.76,0,0,0,7.84-1.08c10.88-11,45.84-46,58.22-72.16S418.8,181.87,396,164.69Z"/></g><rect class="cls-2" x="229.08" y="74.7" width="356.6" height="356.6" transform="translate(-63.1 345.81) rotate(-43)"/><path d="M151.71,571.7a1.32,1.32,0,0,1-1.15-1.41,1.27,1.27,0,0,1,1.15-1.34h7.15v-6.06s0-1.15,1.5-1.15,1.5,1.15,1.5,1.15V569H169a1.27,1.27,0,0,1,1.15,1.34A1.32,1.32,0,0,1,169,571.7h-7.15v7.35s0,1.15-1.5,1.15-1.5-1.15-1.5-1.15V571.7Z"/><path d="M193.45,582.45a25.37,25.37,0,0,1,3.56-.25c3.55,0,10.1,1,12.3,1,2.8,0,3.1-1.25,3.9-1.25.65,0,.75.6.75,1.2,0,1-1.5,2.65-4.85,2.65-2.55,0-8.9-1-12.1-1a35.12,35.12,0,0,0-7.31,1q-1,0-1-.9c0-.45,0-.75.7-1.65,6.1-8.85,20.31-12.11,20.31-23.46,0-4.85-3.8-6.65-8.65-6.65-5,0-8.36,2.9-8.36,7.1,0,2.85,1,2.15,1,3.25,0,.7-.65,1-1.65,1s-2.4-1.4-2.4-4.35c0-5.45,5-9.65,11.36-9.65,6.55,0,11.65,3.2,11.65,9.5C212.66,570.59,200.36,575.35,193.45,582.45Z"/><path d="M248.61,568.29c0,10.16-6.1,17.81-15,17.81s-14.76-7.6-14.76-17.76c0-10,5.9-17.85,14.86-17.85S248.61,558.24,248.61,568.29Zm-26.76.05c0,8.61,4.6,15,11.76,15s12-6.45,12-15.06-4.65-15-11.9-15S221.85,559.74,221.85,568.34Z"/><path d="M271.75,578.55l-2.75,6c-.4.9-.75,1.25-1.75,1.25a1.09,1.09,0,0,1-1.2-1,1.36,1.36,0,0,1,.15-.65l13.85-29.66c.25-.5.55-1.1,1.3-1.1s1,.6,1.25,1.15l14.06,29.61a1.36,1.36,0,0,1,.15.65,1.09,1.09,0,0,1-1.2,1,1.56,1.56,0,0,1-1.51-.95l-3-6.3ZM273,575.9h16.9l-8.5-18.11ZM277.15,547a4.29,4.29,0,0,0,4.4,4.15A4.38,4.38,0,0,0,285.9,547a4.39,4.39,0,0,0-8.75,0Zm2.55,0a2,2,0,0,1,1.85-1.85,1.91,1.91,0,0,1,1.8,1.85,2,2,0,0,1-1.8,2A1.91,1.91,0,0,1,279.7,547Z"/><path d="M326.9,583.2c.35,0,.5.65.5.95,0,1.1-1.7,1.65-2.8,1.65-5,0-6.8-8-12.9-10.65a26.89,26.89,0,0,1-3.35.2c-1.15,0-1.45-.65-1.45-1.31,0-.95.3-1.09.9-1.09,7.35,0,13.9-2.75,13.9-9.36,0-6.05-4.6-7.1-10.9-7.1H306V585c0,.5-.3.85-1.45.85s-1.4-.3-1.4-.85V554.79a.79.79,0,0,1,.85-.85h6.9c7.5,0,13.75,2.2,13.75,9.55,0,5.71-4.1,9.3-9.4,10.91,4.8,3,6.35,9,10.45,9A6.34,6.34,0,0,0,326.9,583.2Z"/><path d="M343.9,583.75c5.7,0,9.5-2.6,9.5-6.46,0-8.5-19.9-5-19.9-15.2,0-5.15,4.5-8.7,11.2-8.7,5.55,0,9.35,2.8,9.35,6.1,0,2-1.65,3.35-2.55,3.35s-1-.35-1-.7c0-.6.75-.8.75-2.5,0-2.15-2.5-3.8-6.55-3.8-4.25,0-8.4,1.85-8.4,5.75,0,8.36,19.9,4.85,19.9,15.31,0,5.1-4.3,9.4-12.2,9.4-6.95,0-11.6-2.4-11.6-6.9,0-2.86,1.85-4.11,2.65-4.11a.91.91,0,0,1,.95.86c0,.6-.9,1.39-.9,2.75C335.1,582,338.45,583.75,343.9,583.75Z"/><path d="M398.3,583.2a1.3,1.3,0,0,1,.85,1.3,1.23,1.23,0,0,1-.85,1.3H378.55a.81.81,0,0,1-.85-.85V554.79a.79.79,0,0,1,.85-.85H397.1a1.21,1.21,0,0,1,.85,1.25,1.33,1.33,0,0,1-.85,1.35H380.55V571.9H394.5a1.33,1.33,0,0,1,.85,1.35,1.23,1.23,0,0,1-.85,1.29H380.55v8.66Z"/><path d="M429.9,583.2c.35,0,.5.65.5.95,0,1.1-1.7,1.65-2.8,1.65-5,0-6.8-8-12.9-10.65a26.89,26.89,0,0,1-3.35.2c-1.15,0-1.45-.65-1.45-1.31,0-.95.3-1.09.9-1.09,7.35,0,13.9-2.75,13.9-9.36,0-6.05-4.6-7.1-10.9-7.1H409V585c0,.5-.3.85-1.45.85s-1.4-.3-1.4-.85V554.79a.79.79,0,0,1,.85-.85h6.9c7.5,0,13.75,2.2,13.75,9.55,0,5.71-4.1,9.3-9.4,10.91,4.8,3,6.35,9,10.45,9A6.34,6.34,0,0,0,429.9,583.2Z"/><path d="M439.25,585c0,.4-.3.85-1.45.85s-1.4-.45-1.4-.85V554.79a.79.79,0,0,1,.85-.85h18.6a1.21,1.21,0,0,1,.85,1.25,1.23,1.23,0,0,1-.85,1.3h-16.6v16h13.2a1.23,1.23,0,0,1,.85,1.3,1.22,1.22,0,0,1-.85,1.29h-13.2Z"/><path d="M464.85,578.55l-2.75,6c-.4.9-.75,1.25-1.75,1.25a1.09,1.09,0,0,1-1.2-1,1.36,1.36,0,0,1,.15-.65l13.85-29.66c.25-.5.55-1.1,1.3-1.1s1,.6,1.25,1.15l14.05,29.61a1.36,1.36,0,0,1,.15.65,1.09,1.09,0,0,1-1.2,1,1.54,1.54,0,0,1-1.5-.95l-2.95-6.3Zm1.25-2.65H483l-8.5-18.11Z"/><path d="M520.15,583.2c.35,0,.5.65.5.95,0,1.1-1.7,1.65-2.8,1.65-5,0-6.8-8-12.9-10.65a26.89,26.89,0,0,1-3.35.2c-1.15,0-1.45-.65-1.45-1.31,0-.95.3-1.09.9-1.09,7.35,0,13.9-2.75,13.9-9.36,0-6.05-4.6-7.1-10.9-7.1h-4.8V585c0,.5-.3.85-1.45.85s-1.4-.3-1.4-.85V554.79a.79.79,0,0,1,.85-.85h6.9c7.5,0,13.75,2.2,13.75,9.55,0,5.71-4.1,9.3-9.4,10.91,4.8,3,6.35,9,10.45,9A6.34,6.34,0,0,0,520.15,583.2Z"/><path d="M529.5,585c0,.4-.3.85-1.45.85s-1.4-.45-1.4-.85V554.74c0-.45.35-.8,1.4-.8s1.45.3,1.45.8Z"/><path d="M541.3,554.49l21.05,26.36V554.74c0-.35.35-.8,1.25-.8s1.25.45,1.25.8v30.31c0,.5-.4.75-1.05.75a1.53,1.53,0,0,1-1.35-.8L541,558.59V585c0,.4-.3.85-1.25.85s-1.25-.4-1.25-.85V554.79c0-.4.4-.85,1.4-.85A1.73,1.73,0,0,1,541.3,554.49Z"/><path d="M576.05,570.54c0,9.06,5.8,13.21,13.35,13.21,5.7,0,9.4-3.6,9.4-5.4V574h-6.3a1.43,1.43,0,0,1,0-2.61h8.25a.82.82,0,0,1,.85.86v6.4c0,3-5.5,7.65-12.35,7.65-8.55,0-16.15-5.45-16.15-15.76,0-12,8.45-17.15,16.45-17.15,6.55,0,10.8,3.8,10.8,8.3,0,2.15-.85,3.3-1.9,3.3-.75,0-1.3-.3-1.3-.9s.45-.85.45-2.1c0-3.55-2.85-6-8.05-6C582.65,556,576.05,559.69,576.05,570.54Z"/><path d="M156.66,645c0,.4-.3.85-1.45.85s-1.4-.45-1.4-.85V614.74c0-.45.35-.8,1.4-.8s1.45.3,1.45.8Z"/><path d="M168.46,614.49l21,26.36V614.74c0-.35.35-.8,1.25-.8s1.25.45,1.25.8v30.31c0,.5-.4.75-1,.75a1.53,1.53,0,0,1-1.35-.8l-21.45-26.41V645c0,.4-.3.85-1.25.85s-1.25-.4-1.25-.85V614.79c0-.4.4-.85,1.4-.85A1.73,1.73,0,0,1,168.46,614.49Z"/><path d="M201.85,645.8A.81.81,0,0,1,201,645V614.79a.79.79,0,0,1,.85-.85h8.21c10.9,0,18.95,4,18.95,15.56,0,8.85-4.65,16.3-17.9,16.3Zm9.26-2.55c11.6,0,15-6.1,15-13.75,0-9.86-6.3-13-16.05-13h-6.21v26.76Z"/><path d="M257.86,643.2a1.3,1.3,0,0,1,.85,1.3,1.23,1.23,0,0,1-.85,1.3H238.1a.81.81,0,0,1-.85-.85V614.79a.79.79,0,0,1,.85-.85h18.56a1.21,1.21,0,0,1,.85,1.25,1.33,1.33,0,0,1-.85,1.35H240.1V631.9h14a1.33,1.33,0,0,1,.85,1.35,1.23,1.23,0,0,1-.85,1.29h-14v8.66Z"/><path d="M268.5,614.49l21.06,26.36V614.74c0-.35.35-.8,1.25-.8s1.25.45,1.25.8v30.31c0,.5-.4.75-1.05.75a1.53,1.53,0,0,1-1.35-.8L268.2,618.59V645c0,.4-.3.85-1.25.85s-1.25-.4-1.25-.85V614.79c0-.4.4-.85,1.4-.85A1.73,1.73,0,0,1,268.5,614.49Z"/><path d="M303.9,645c0,.4-.3.85-1.45.85s-1.4-.45-1.4-.85V614.79a.79.79,0,0,1,.85-.85h18.6a1.21,1.21,0,0,1,.85,1.25,1.23,1.23,0,0,1-.85,1.3H303.9v16h13.2a1.23,1.23,0,0,1,.85,1.3,1.22,1.22,0,0,1-.85,1.29H303.9Z"/><path d="M326.2,630a16.15,16.15,0,0,1,15.85-16.56c8.2,0,15.8,6.75,15.8,16.56s-7.2,16.3-15.8,16.3S326.2,639.65,326.2,630Zm28.85,0c0-8.46-5.95-14-13-14s-13,5.5-13,14c0,8.3,6,13.7,13,13.7S355.05,638.25,355.05,630Z"/><path d="M389.85,643.2c.35,0,.5.65.5.95,0,1.1-1.7,1.65-2.8,1.65-4.95,0-6.8-8-12.9-10.65a26.89,26.89,0,0,1-3.35.2c-1.15,0-1.45-.65-1.45-1.31,0-.95.3-1.09.9-1.09,7.35,0,13.9-2.75,13.9-9.36,0-6.05-4.6-7.1-10.9-7.1H369V645c0,.5-.3.85-1.45.85s-1.4-.3-1.4-.85V614.79a.79.79,0,0,1,.85-.85h6.9c7.5,0,13.75,2.2,13.75,9.55,0,5.71-4.1,9.3-9.4,10.91,4.8,3,6.35,9,10.45,9A6.34,6.34,0,0,0,389.85,643.2Z"/><path d="M430.45,643.2a1.3,1.3,0,0,1,.85,1.3,1.23,1.23,0,0,1-.85,1.3H410.7a.81.81,0,0,1-.85-.85V614.74c0-.45.35-.8,1.4-.8s1.45.3,1.45.8V643.2Z"/><path d="M458.9,643.2a1.3,1.3,0,0,1,.85,1.3,1.23,1.23,0,0,1-.85,1.3H439.15a.81.81,0,0,1-.85-.85V614.79a.79.79,0,0,1,.85-.85H457.7a1.21,1.21,0,0,1,.85,1.25,1.33,1.33,0,0,1-.85,1.35H441.15V631.9h14a1.33,1.33,0,0,1,.85,1.35,1.23,1.23,0,0,1-.85,1.29h-14v8.66Z"/><path d="M467.6,645.8a.81.81,0,0,1-.85-.85V614.79a.79.79,0,0,1,.85-.85h8.2c10.9,0,18.95,4,18.95,15.56,0,8.85-4.65,16.3-17.9,16.3Zm9.25-2.55c11.6,0,15-6.1,15-13.75,0-9.86-6.3-13-16.05-13h-6.2v26.76Z"/><path d="M523.6,643.2a1.3,1.3,0,0,1,.85,1.3,1.23,1.23,0,0,1-.85,1.3H503.85A.81.81,0,0,1,503,645V614.79a.79.79,0,0,1,.85-.85H522.4a1.21,1.21,0,0,1,.85,1.25,1.33,1.33,0,0,1-.85,1.35H505.85V631.9H519.8a1.33,1.33,0,0,1,.85,1.35,1.23,1.23,0,0,1-.85,1.29H505.85v8.66Z"/><path d="M552.05,643.2a1.3,1.3,0,0,1,.85,1.3,1.23,1.23,0,0,1-.85,1.3H532.3a.81.81,0,0,1-.85-.85V614.74c0-.45.35-.8,1.4-.8s1.45.3,1.45.8V643.2Z"/><path d="M570,643.75c5.7,0,9.5-2.6,9.5-6.46,0-8.5-19.9-5-19.9-15.2,0-5.15,4.5-8.7,11.2-8.7,5.55,0,9.35,2.8,9.35,6.1,0,2-1.65,3.35-2.55,3.35s-1-.35-1-.7c0-.6.75-.8.75-2.5,0-2.15-2.5-3.8-6.55-3.8-4.25,0-8.4,1.85-8.4,5.75,0,8.36,19.9,4.85,19.9,15.31,0,5.1-4.3,9.4-12.2,9.4-7,0-11.6-2.4-11.6-6.9,0-2.86,1.85-4.11,2.65-4.11a.91.91,0,0,1,1,.86c0,.6-.9,1.39-.9,2.75C561.2,642,564.55,643.75,570,643.75Z"/><path d="M610.9,643.2a1.3,1.3,0,0,1,.85,1.3,1.23,1.23,0,0,1-.85,1.3H591.15a.81.81,0,0,1-.85-.85V614.79a.79.79,0,0,1,.85-.85H609.7a1.21,1.21,0,0,1,.85,1.25,1.33,1.33,0,0,1-.85,1.35H593.15V631.9h14a1.33,1.33,0,0,1,.85,1.35,1.23,1.23,0,0,1-.85,1.29h-14v8.66Z"/></svg>