<svg id="Layer_1" data-name="Layer 1" xmlns="http://www.w3.org/2000/svg" width="800" height="800" viewBox="0 0 800 800"><defs><style>.cls-1{fill:#7b99aa;isolation:isolate;opacity:0.44;}.cls-2{fill:none;stroke:#000;stroke-width:14px;}</style></defs><ellipse id="Ellipse_38" data-name="Ellipse 38" class="cls-1" cx="401.23" cy="420.95" rx="316.75" ry="322.47"/><path class="cls-2" d="M204,196.52c.76,22.72-15.9,40.89-42.4,40.89-23.47,0-40.14-18.17-40.14-40.89,0-23.48,17.42-41.65,41.65-41.65C188.14,154.87,204,173,204,196.52ZM129.83,666V299.5h66.64V666Z"/><path class="cls-2" d="M307,398.7c0-37.86-.75-68.91-3-99.2h59.06l3.79,60.58h1.51c18.17-34.83,60.58-68.91,121.16-68.91,50.73,0,129.48,30.29,129.48,156V666H552.36V454.74c0-59.07-22-108.29-84.8-108.29-43.92,0-78,31.05-89.36,68.15-3,8.33-4.54,19.69-4.54,31V666H307Z"/></svg>