<svg id="Layer_1" data-name="Layer 1" xmlns="http://www.w3.org/2000/svg" width="800" height="800" viewBox="0 0 800 800"><defs><style>.cls-1{fill:#7b99aa;isolation:isolate;opacity:0.44;}.cls-2{fill:none;stroke:#7c9bac;stroke-linecap:round;stroke-linejoin:round;stroke-width:14px;}</style></defs><ellipse id="Ellipse_38" data-name="Ellipse 38" class="cls-1" cx="376.36" cy="398.3" rx="301.64" ry="307.09"/><g id="Group_24" data-name="Group 24"><path id="Path_21" data-name="Path 21" class="cls-2" d="M534.57,192l87.76,55.26"/><path id="Path_22" data-name="Path 22" class="cls-2" d="M284.83,103.29,339.24,69l58.4,36.8"/><path id="Path_23" data-name="Path 23" class="cls-2" d="M56.16,247.24l91.32-57.46"/><path id="Path_24" data-name="Path 24" class="cls-2" d="M512,294.31c25.37-51.48,30.09-118.16-9.22-157.27a115.35,115.35,0,0,0-162.62,0,115.35,115.35,0,0,0-162.62,0c-38.78,38.81-34.7,104.85-10.49,155.48"/><path id="Path_25" data-name="Path 25" class="cls-2" d="M580.39,551.29H98.1a41.94,41.94,0,0,1-41.94-41.94V255.1a10.48,10.48,0,0,1,15.83-9L334.11,380.29a10.49,10.49,0,0,0,10.48,0L606.71,246.08a10.48,10.48,0,0,1,15.83,9V509.35a41.94,41.94,0,0,1-41.94,41.94Z"/></g></svg>