<svg id="Layer_1" data-name="Layer 1" xmlns="http://www.w3.org/2000/svg" width="1230" height="1000" viewBox="0 0 1230 1000"><defs><style>.cls-1{fill:#7b99aa;isolation:isolate;opacity:0.44;}.cls-2,.cls-3,.cls-4{fill:none;}.cls-2{stroke:#7c9bac;stroke-linecap:round;stroke-linejoin:round;stroke-width:14px;}.cls-3,.cls-4{stroke:#3e3e3e;stroke-width:4px;}.cls-3{stroke-miterlimit:4;}</style></defs><ellipse id="Ellipse_38" data-name="Ellipse 38" class="cls-1" cx="609.25" cy="339.19" rx="285.9" ry="291.07"/><g id="Group_24" data-name="Group 24"><path id="Path_21" data-name="Path 21" class="cls-2" d="M759.21,143.64,842.38,196"/><path id="Path_22" data-name="Path 22" class="cls-2" d="M522.49,59.56l51.58-32.49L629.42,62"/><path id="Path_23" data-name="Path 23" class="cls-2" d="M305.75,196l86.56-54.46"/><path id="Path_24" data-name="Path 24" class="cls-2" d="M737.84,240.62c24-48.79,28.52-112-8.74-149.06a109.33,109.33,0,0,0-154.14,0,109.32,109.32,0,0,0-154.13,0c-36.77,36.78-32.9,99.38-9.95,147.37"/><path id="Path_25" data-name="Path 25" class="cls-2" d="M802.63,484.2H345.5a39.75,39.75,0,0,1-39.75-39.75v-241a9.94,9.94,0,0,1,15-8.55L569.2,322.11a9.9,9.9,0,0,0,9.93,0l248.45-127.2a9.93,9.93,0,0,1,15,8.55v241a39.75,39.75,0,0,1-39.75,39.75Z"/></g><path d="M195.9,753.88a1.85,1.85,0,0,1,1.63,2,1.82,1.82,0,0,1-1.63,1.91H163.42a1.34,1.34,0,0,1-1.41-1.42V706.12a1.34,1.34,0,0,1,1.41-1.42h30.43a1.82,1.82,0,0,1,1.63,1.91,2,2,0,0,1-1.63,2.06H166.18v26.25h23.49a1.82,1.82,0,0,1,1.63,1.91,1.85,1.85,0,0,1-1.63,2H166.18v15.07Z"/><path d="M241.75,754.09c.49,0,.71.92.71,1.34,0,1.56-2.41,2.34-4,2.34-7,0-9.62-11.39-18.25-15.07a35.89,35.89,0,0,1-4.74.28c-1.63,0-2.05-.92-2.05-1.84,0-1.34.42-1.55,1.27-1.55,10.4,0,19.67-3.9,19.67-13.24,0-8.56-6.51-10-15.42-10h-6.8v40.26c0,.7-.42,1.2-2,1.2s-2-.43-2-1.2V713.9a1.11,1.11,0,0,1,1.2-1.2h9.77c10.61,0,19.46,3.11,19.46,13.51,0,8.07-5.81,13.16-13.31,15.43,6.8,4.17,9,12.66,14.79,12.66A9.08,9.08,0,0,0,241.75,754.09Z"/><path d="M271.26,757.77a1.16,1.16,0,0,1-1.21-1.2V713.9a1.12,1.12,0,0,1,1.21-1.2h11.6c15.42,0,26.82,5.66,26.82,22,0,12.53-6.58,23.07-25.33,23.07Zm13.09-3.61c16.41,0,21.22-8.63,21.22-19.46,0-13.94-8.91-18.39-22.71-18.39h-8.77v37.85Z"/><path d="M355.88,713.83c0-.64.28-1.13,1.84-1.13s1.84.63,1.84,1.13v29.36c0,8-7.43,15.22-19.18,15.22-12.1,0-19-7.22-19-15.22V713.83c0-.57.5-1.13,2-1.13,1.63,0,2.05.49,2.05,1.13v29.22c0,6.37,5,11.75,15,11.75,9.84,0,15.5-5.38,15.5-11.75Z"/><path d="M396.35,756.14s0,1.63-2.12,1.63-2.13-1.63-2.13-1.63V706.33s0-1.63,2.13-1.63,2.12,1.63,2.12,1.63Z"/><path d="M441.63,716.31v40.26c0,.63-.49,1.2-2.05,1.2s-2-.57-2-1.2V716.31H423.94a1.75,1.75,0,0,1-1.2-1.84,1.7,1.7,0,0,1,1.2-1.77h31.28a1.7,1.7,0,0,1,1.2,1.77,1.75,1.75,0,0,1-1.2,1.84Z"/><path d="M465.12,714l18,38.21,18-38.42a1.85,1.85,0,0,1,1.84-1.13c1.13,0,1.77.56,1.77,1.34a1.85,1.85,0,0,1-.22.92l-20.09,42.81c-.21.42-.64.64-1.42.64s-1.13-.22-1.34-.64L461.52,715a1.69,1.69,0,0,1-.22-1c0-.56.5-1.27,1.84-1.27A1.84,1.84,0,0,1,465.12,714Z"/><path d="M517.84,756.57c0,.56-.43,1.2-2.05,1.2s-2-.64-2-1.2V713.83c0-.64.5-1.13,2-1.13s2.05.42,2.05,1.13Z"/><path d="M530.79,714l18,38.21,18-38.42a1.85,1.85,0,0,1,1.84-1.13c1.13,0,1.77.56,1.77,1.34a1.92,1.92,0,0,1-.21.92L550,757.77c-.21.42-.64.64-1.41.64s-1.14-.22-1.35-.64L527.18,715a1.75,1.75,0,0,1-.21-1c0-.56.49-1.27,1.83-1.27A1.86,1.86,0,0,1,530.79,714Z"/><path d="M608.62,754.09a1.83,1.83,0,0,1,1.2,1.84,1.74,1.74,0,0,1-1.2,1.84h-28a1.15,1.15,0,0,1-1.2-1.2V713.83c0-.64.49-1.13,2-1.13s2,.42,2,1.13v40.26Z"/><path d="M666.35,754.09a1.83,1.83,0,0,1,1.21,1.84,1.74,1.74,0,0,1-1.21,1.84H638.41a1.16,1.16,0,0,1-1.21-1.2V713.9a1.12,1.12,0,0,1,1.21-1.2h26.25a1.7,1.7,0,0,1,1.2,1.77,1.89,1.89,0,0,1-1.2,1.91H641.24V738.1H661a1.87,1.87,0,0,1,1.2,1.91,1.74,1.74,0,0,1-1.2,1.84H641.24v12.24Z"/><path d="M706.61,754.09a1.83,1.83,0,0,1,1.21,1.84,1.74,1.74,0,0,1-1.21,1.84h-28a1.16,1.16,0,0,1-1.2-1.2V713.83c0-.64.5-1.13,2-1.13s2,.42,2,1.13v40.26Z"/><path d="M746.87,754.09a1.83,1.83,0,0,1,1.2,1.84,1.74,1.74,0,0,1-1.2,1.84h-28a1.16,1.16,0,0,1-1.2-1.2V713.83c0-.64.5-1.13,2-1.13s2,.42,2,1.13v40.26Z"/><path d="M787.13,754.09a1.83,1.83,0,0,1,1.2,1.84,1.74,1.74,0,0,1-1.2,1.84h-28a1.16,1.16,0,0,1-1.2-1.2V713.9a1.11,1.11,0,0,1,1.2-1.2h26.25a1.71,1.71,0,0,1,1.21,1.77,1.89,1.89,0,0,1-1.21,1.91H762V738.1h19.74A1.87,1.87,0,0,1,783,740a1.74,1.74,0,0,1-1.21,1.84H762v12.24Z"/><path d="M831.85,754.09c.49,0,.71.92.71,1.34,0,1.56-2.41,2.34-4,2.34-7,0-9.62-11.39-18.25-15.07a35.89,35.89,0,0,1-4.74.28c-1.63,0-2.05-.92-2.05-1.84,0-1.34.42-1.55,1.27-1.55,10.4,0,19.67-3.9,19.67-13.24,0-8.56-6.51-10-15.42-10h-6.8v40.26c0,.7-.42,1.2-2,1.2s-2-.43-2-1.2V713.9a1.11,1.11,0,0,1,1.2-1.2h9.77c10.61,0,19.45,3.11,19.45,13.51,0,8.07-5.8,13.16-13.3,15.43,6.8,4.17,9,12.66,14.79,12.66A9.22,9.22,0,0,0,831.85,754.09Z"/><path d="M860.15,713.83c0-.57.5-1.2,2-1.2s2,.63,2,1.2v23.63h29.44V713.83c0-.57.49-1.2,2-1.2s2,.63,2,1.2v42.74c0,.56-.42,1.2-2,1.2s-2-.64-2-1.2V741.14H864.18v15.43c0,.56-.42,1.2-2,1.2s-2-.64-2-1.2Z"/><path d="M914.92,747.51,911,756c-.56,1.27-1.06,1.77-2.47,1.77a1.55,1.55,0,0,1-1.7-1.42,2,2,0,0,1,.21-.92l19.6-41.95c.35-.71.78-1.56,1.84-1.56s1.42.85,1.77,1.63l19.88,41.88a2,2,0,0,1,.21.92,1.54,1.54,0,0,1-1.69,1.42,2.2,2.2,0,0,1-2.13-1.35l-4.17-8.91Zm1.76-3.75H940.6l-12-25.61Z"/><path d="M993.17,754.09c.5,0,.71.92.71,1.34,0,1.56-2.41,2.34-4,2.34-7,0-9.63-11.39-18.26-15.07a35.89,35.89,0,0,1-4.74.28c-1.63,0-2-.92-2-1.84,0-1.34.42-1.55,1.27-1.55,10.4,0,19.67-3.9,19.67-13.24,0-8.56-6.51-10-15.42-10H963.6v40.26c0,.7-.43,1.2-2.06,1.2s-2-.43-2-1.2V713.9a1.11,1.11,0,0,1,1.2-1.2h9.77c10.61,0,19.46,3.11,19.46,13.51,0,8.07-5.81,13.16-13.31,15.43,6.8,4.17,9,12.66,14.79,12.66A8.93,8.93,0,0,0,993.17,754.09Z"/><path d="M132.22,839.49c9.27,0,16.06-4.38,16.06-11.11,0-7.57-7.71-9.19-15.71-11.81-8.41-2.76-17-4.53-17-14.29,0-7.79,6.23-13.38,17.76-13.38,10.19,0,15.36,5,15.36,10.55,0,3.32-1.91,5.37-3.75,5.37-.78,0-1.49-.35-1.49-1.27,0-1.13,1.42-2,1.42-4,0-3.61-3.9-6.72-11.54-6.72-8.42,0-13.87,2.83-13.87,8.56,0,6.58,4.67,8.2,14.65,11.25,8.77,2.69,18.18,5.09,18.18,15.14,0,9.48-8.27,15.64-19.88,15.64-11,0-18.82-4-18.82-12.95,0-4.18,2-5.88,3.75-5.88,1.06,0,1.63.43,1.63,1.14,0,.92-1.49,1.48-1.49,4.74C117.43,836.31,123.24,839.49,132.22,839.49Z"/><path d="M169,841.55c0,.56-.42,1.2-2,1.2s-2-.64-2-1.2V798.81a1.11,1.11,0,0,1,1.2-1.2h8.21c13.16,0,22.22,3.68,22.22,14.64,0,11.82-11.39,17.27-22.93,17.27-1.62,0-2.05-.85-2.05-1.77,0-1.13.43-1.84,2-1.84,9.34,0,19-3.54,19-13.8,0-8.49-7.43-10.82-18.19-10.82H169Z"/><path d="M240.62,793.5c1.55,0,2.26.78,2.26,1.63a2.86,2.86,0,0,1-.35,1.27l-2.12,4A23.44,23.44,0,0,1,251,820.25c0,13.72-10.19,23.06-22.36,23.06A23.12,23.12,0,0,1,218.4,841c-1.27,2.26-2.05,3.68-2.05,3.68a1.62,1.62,0,0,1-1.63.85c-1.48,0-2.19-.78-2.19-1.7a2.06,2.06,0,0,1,.14-.85c.07-.21,1-1.91,2.19-4.17-5.3-4-8.7-10.55-8.7-18.54,0-13.87,10.83-23.42,22.43-23.42a21,21,0,0,1,8.14,1.63l2.19-4A1.63,1.63,0,0,1,240.62,793.5Zm-23.85,41.89c5-9.27,13.3-24.69,18.19-33.75a19.1,19.1,0,0,0-6.37-1.13c-10,0-18.4,7.78-18.4,19.74C210.19,826.76,212.74,832,216.77,835.39ZM247,820.25c0-7.5-3.33-13.37-8.28-16.7l-18.54,34.1a18.62,18.62,0,0,0,8.42,2C238.42,839.64,247,832,247,820.25Z"/><path d="M296.23,839c.5,0,.71.92.71,1.34,0,1.56-2.41,2.34-4,2.34-7,0-9.63-11.39-18.26-15.07a35.79,35.79,0,0,1-4.74.28c-1.63,0-2.05-.92-2.05-1.84,0-1.34.42-1.56,1.27-1.56,10.4,0,19.67-3.89,19.67-13.23,0-8.56-6.51-10-15.42-10h-6.79v40.26c0,.71-.43,1.21-2.06,1.21s-2-.43-2-1.21V798.81a1.12,1.12,0,0,1,1.21-1.2h9.76c10.61,0,19.46,3.11,19.46,13.51,0,8.07-5.8,13.16-13.3,15.43,6.79,4.17,9,12.66,14.78,12.66A8.93,8.93,0,0,0,296.23,839Z"/><path d="M308.54,821.1c0,12.8,8.21,18.68,18.89,18.68,8.07,0,13.31-5.1,13.31-7.65V826h-8.92a2,2,0,0,1,0-3.68H343.5a1.16,1.16,0,0,1,1.2,1.2v9.06c0,4.24-7.78,10.83-17.48,10.83-12.1,0-22.85-7.72-22.85-22.29,0-17,12-24.27,23.28-24.27,9.27,0,15.28,5.38,15.28,11.74,0,3-1.2,4.67-2.69,4.67-1.06,0-1.84-.42-1.84-1.27s.64-1.2.64-3c0-5-4-8.49-11.39-8.49C317.88,800.51,308.54,805.74,308.54,821.1Z"/><path d="M371.23,839.78c8.07,0,13.45-3.68,13.45-9.13,0-12-28.16-7.15-28.16-21.51,0-7.29,6.36-12.31,15.84-12.31,7.86,0,13.24,4,13.24,8.63,0,2.83-2.34,4.74-3.61,4.74-1.06,0-1.42-.49-1.42-1,0-.85,1.06-1.13,1.06-3.54,0-3-3.53-5.37-9.27-5.37-6,0-11.88,2.61-11.88,8.13,0,11.82,28.16,6.87,28.16,21.65,0,7.22-6.09,13.31-17.27,13.31-9.83,0-16.41-3.4-16.41-9.77,0-4,2.62-5.8,3.75-5.8a1.26,1.26,0,0,1,1.34,1.2c0,.85-1.27,2-1.27,3.89C358.78,837.23,363.52,839.78,371.23,839.78Z"/><path d="M422.74,841l-19.1-34.67v35.16c0,.71-.28,1.21-1.84,1.21s-1.84-.5-1.84-1.21V798.81c0-.78.85-1.2,1.77-1.2a2.18,2.18,0,0,1,2.12.92l20.73,37.85,21.8-37.92a2,2,0,0,1,1.76-.85c.85,0,1.63.35,1.63,1.06v42.8c0,.78-.49,1.21-2,1.21s-2.05-.36-2.05-1.21V806.8L425.79,841a1.67,1.67,0,0,1-3.05,0Z"/><path d="M467,832.42l-3.9,8.49c-.56,1.27-1.06,1.77-2.47,1.77a1.55,1.55,0,0,1-1.7-1.42,2,2,0,0,1,.21-.92l19.6-42c.36-.7.78-1.55,1.84-1.55s1.42.85,1.77,1.63l19.88,41.88a2,2,0,0,1,.21.92,1.54,1.54,0,0,1-1.69,1.42,2.2,2.2,0,0,1-2.13-1.35l-4.17-8.91Zm1.76-3.75h23.92l-12-25.62Zm5.88-40.9a6.07,6.07,0,0,0,6.22,5.87,6.2,6.2,0,0,0,6.16-5.87A6.09,6.09,0,0,0,480.9,782C477.58,782,474.68,784.59,474.68,787.77Zm3.61,0a2.76,2.76,0,0,1,2.61-2.62,2.7,2.7,0,0,1,2.55,2.62,2.84,2.84,0,0,1-2.55,2.83A2.7,2.7,0,0,1,478.29,787.77Z"/><path d="M540.62,839a1.83,1.83,0,0,1,1.2,1.84,1.75,1.75,0,0,1-1.2,1.84h-28a1.16,1.16,0,0,1-1.2-1.21V798.74c0-.64.5-1.13,2-1.13s2,.42,2,1.13V839Z"/><path d="M548.76,849.05a1.53,1.53,0,0,1-1.63-1.49c0-1.27,2.41-2.41,2.41-4.32,0-1.06-2.06-2.19-2.06-4.17,0-1.56,1.28-2.48,2.91-2.48a3.45,3.45,0,0,1,3.6,3.75C554,844.3,550.1,849.05,548.76,849.05Z"/><path d="M585.27,819.54l21.51-21.37a1.82,1.82,0,0,1,1.27-.56,2,2,0,0,1,2.05,1.84,2,2,0,0,1-.56,1.2l-17.76,17.48c8.06,5.3,17.76,20.66,22.43,20.66a8.59,8.59,0,0,0,1.91-.22c.92,0,1.27.85,1.27,1.7,0,1.35-1.49,2.41-3.68,2.41-6.65,0-18-17.69-24.76-21.72l-3.68,3.6v16.91c0,.57-.43,1.21-2.06,1.21s-2-.64-2-1.21V798.74c0-.64.5-1.13,2-1.13s2.06.42,2.06,1.13Z"/><path d="M629.7,832.42l-3.89,8.49c-.57,1.27-1.06,1.77-2.48,1.77a1.55,1.55,0,0,1-1.7-1.42,1.9,1.9,0,0,1,.22-.92l19.6-42c.35-.7.77-1.55,1.84-1.55s1.41.85,1.76,1.63l19.89,41.88a2,2,0,0,1,.21.92,1.55,1.55,0,0,1-1.7,1.42,2.18,2.18,0,0,1-2.12-1.35l-4.18-8.91Zm1.77-3.75h23.92l-12-25.62Z"/><path d="M678.31,798.38l29.79,37.29V798.74c0-.5.49-1.13,1.77-1.13s1.77.63,1.77,1.13v42.88c0,.7-.57,1.06-1.49,1.06a2.17,2.17,0,0,1-1.91-1.13l-30.35-37.36v37.28c0,.57-.43,1.21-1.77,1.21s-1.77-.57-1.77-1.21V798.81c0-.57.56-1.2,2-1.2A2.46,2.46,0,0,1,678.31,798.38Z"/><path d="M744.68,842.68a1.15,1.15,0,0,1-1.2-1.21V798.81a1.11,1.11,0,0,1,1.2-1.2h11.6c15.43,0,26.82,5.66,26.82,22,0,12.52-6.58,23.07-25.33,23.07Zm13.09-3.61c16.41,0,21.22-8.63,21.22-19.46,0-13.94-8.91-18.4-22.71-18.4h-8.77v37.86Z"/><path d="M829.3,798.74c0-.64.28-1.13,1.84-1.13s1.84.63,1.84,1.13V828.1c0,8-7.43,15.21-19.17,15.21-12.1,0-19-7.21-19-15.21V798.74c0-.57.5-1.13,2-1.13s2.06.49,2.06,1.13V828c0,6.37,5,11.75,15,11.75,9.83,0,15.49-5.38,15.49-11.75Z"/><path d="M867.16,832.42l-3.9,8.49c-.56,1.27-1.06,1.77-2.47,1.77a1.55,1.55,0,0,1-1.7-1.42,2,2,0,0,1,.21-.92l19.6-42c.36-.7.78-1.55,1.84-1.55s1.42.85,1.77,1.63l19.88,41.88a2,2,0,0,1,.21.92,1.54,1.54,0,0,1-1.69,1.42,2.2,2.2,0,0,1-2.13-1.35l-4.17-8.91Zm1.76-3.75h23.92l-12-25.62Z"/><path d="M941,839a1.83,1.83,0,0,1,1.21,1.84,1.76,1.76,0,0,1-1.21,1.84H913a1.16,1.16,0,0,1-1.21-1.21V798.74c0-.64.5-1.13,2-1.13s2.06.42,2.06,1.13V839Z"/><path d="M958.78,801.21v40.26c0,.64-.49,1.21-2,1.21s-2-.57-2-1.21V801.21H941.1a1.74,1.74,0,0,1-1.21-1.83,1.71,1.71,0,0,1,1.21-1.77h31.27a1.7,1.7,0,0,1,1.2,1.77,1.74,1.74,0,0,1-1.2,1.83Z"/><path d="M986.1,841.47c0,.57-.43,1.21-2.06,1.21s-2-.64-2-1.21V798.74c0-.64.5-1.13,2-1.13s2.06.42,2.06,1.13Z"/><path d="M1000,842.68a1.16,1.16,0,0,1-1.2-1.21V798.81a1.11,1.11,0,0,1,1.2-1.2h11.61c15.42,0,26.81,5.66,26.81,22,0,12.52-6.58,23.07-25.33,23.07Zm13.09-3.61c16.42,0,21.23-8.63,21.23-19.46,0-13.94-8.91-18.4-22.71-18.4h-8.78v37.86Z"/><path d="M348.52,924.4c9.27,0,16.06-4.39,16.06-11.11,0-7.57-7.71-9.2-15.71-11.81-8.42-2.76-17.05-4.53-17.05-14.3,0-7.78,6.23-13.37,17.76-13.37,10.19,0,15.35,5,15.35,10.54,0,3.33-1.91,5.38-3.75,5.38-.77,0-1.48-.35-1.48-1.27,0-1.13,1.41-2,1.41-4,0-3.6-3.89-6.72-11.53-6.72-8.42,0-13.87,2.83-13.87,8.56,0,6.58,4.67,8.21,14.65,11.25,8.77,2.69,18.18,5.1,18.18,15.15,0,9.48-8.28,15.63-19.88,15.63-11,0-18.82-4-18.82-12.95,0-4.17,2.05-5.87,3.75-5.87,1.06,0,1.63.43,1.63,1.13,0,.92-1.49,1.49-1.49,4.74C333.73,921.22,339.53,924.4,348.52,924.4Z"/><path d="M385.31,904.45l21.51-21.37a1.84,1.84,0,0,1,1.28-.57,2,2,0,0,1,2,1.84,2,2,0,0,1-.57,1.21L391.82,903c8.07,5.31,17.76,20.66,22.43,20.66a8.86,8.86,0,0,0,1.91-.21c.92,0,1.28.85,1.28,1.7,0,1.34-1.49,2.4-3.68,2.4-6.66,0-18.05-17.68-24.77-21.72l-3.68,3.61v16.91c0,.57-.42,1.2-2.05,1.2s-2-.63-2-1.2V883.65c0-.64.49-1.14,2-1.14s2.05.43,2.05,1.14Z"/><path d="M458.83,923.91c.49,0,.7.92.7,1.34,0,1.56-2.4,2.33-4,2.33-7,0-9.62-11.39-18.25-15.07a34.37,34.37,0,0,1-4.74.29c-1.63,0-2.06-.92-2.06-1.84,0-1.35.43-1.56,1.28-1.56,10.4,0,19.67-3.89,19.67-13.23,0-8.56-6.51-10-15.43-10h-6.79v40.26c0,.71-.42,1.2-2.05,1.2s-2-.42-2-1.2V883.72a1.12,1.12,0,0,1,1.2-1.21h9.76c10.62,0,19.46,3.12,19.46,13.52,0,8.06-5.8,13.16-13.3,15.42,6.79,4.18,9,12.67,14.79,12.67A9.22,9.22,0,0,0,458.83,923.91Z"/><path d="M472.06,926.38c0,.57-.43,1.2-2.05,1.2s-2-.63-2-1.2V883.65c0-.64.49-1.14,2-1.14s2.05.43,2.05,1.14Z"/><path d="M485,883.86l18,38.21,18-38.42a1.86,1.86,0,0,1,1.84-1.14c1.13,0,1.77.57,1.77,1.35a2,2,0,0,1-.21.92l-20.1,42.8c-.21.43-.63.64-1.41.64s-1.14-.21-1.35-.64l-20.09-42.8a1.75,1.75,0,0,1-.21-1c0-.57.49-1.28,1.84-1.28A1.86,1.86,0,0,1,485,883.86Z"/><path d="M562.84,923.91a1.83,1.83,0,0,1,1.2,1.84,1.74,1.74,0,0,1-1.2,1.83h-28a1.14,1.14,0,0,1-1.2-1.2V883.72a1.12,1.12,0,0,1,1.2-1.21h26.25a1.71,1.71,0,0,1,1.2,1.77,1.87,1.87,0,0,1-1.2,1.91H537.72v21.73h19.74a1.87,1.87,0,0,1,1.2,1.91,1.75,1.75,0,0,1-1.2,1.84H537.72v12.24Z"/><path d="M605.79,886.12v40.26c0,.64-.5,1.2-2.06,1.2s-2-.56-2-1.2V886.12H588.1a1.74,1.74,0,0,1-1.21-1.84,1.72,1.72,0,0,1,1.21-1.77h31.27a1.71,1.71,0,0,1,1.2,1.77,1.74,1.74,0,0,1-1.2,1.84Z"/><path d="M633.1,926.38c0,.57-.43,1.2-2.05,1.2s-2-.63-2-1.2V883.65c0-.64.49-1.14,2-1.14s2.05.43,2.05,1.14Z"/><path d="M675,923.91a1.83,1.83,0,0,1,1.2,1.84,1.74,1.74,0,0,1-1.2,1.83H647a1.15,1.15,0,0,1-1.21-1.2V883.65c0-.64.5-1.14,2-1.14s2,.43,2,1.14v40.26Z"/><path d="M726.35,925.89l-19.1-34.67v35.16c0,.71-.28,1.2-1.84,1.2s-1.84-.49-1.84-1.2V883.72c0-.78.85-1.21,1.77-1.21a2.2,2.2,0,0,1,2.12.92l20.73,37.86L750,883.36a2.06,2.06,0,0,1,1.76-.85c.85,0,1.63.36,1.63,1.07v42.8c0,.78-.49,1.2-2,1.2s-2-.35-2-1.2V891.71l-20,34.18a1.67,1.67,0,0,1-3,0Z"/><path d="M770.15,926.38c0,.57-.42,1.2-2,1.2s-2-.63-2-1.2V883.65c0-.64.49-1.14,2-1.14s2,.43,2,1.14Z"/><path d="M786,906c0,12.81,8.21,18.68,18.89,18.68,8.07,0,13.3-5.09,13.3-7.64v-6.15h-8.91a2,2,0,0,1,0-3.68H821a1.15,1.15,0,0,1,1.21,1.2v9.06c0,4.24-7.79,10.82-17.48,10.82-12.1,0-22.85-7.71-22.85-22.29,0-17,11.95-24.26,23.27-24.26,9.27,0,15.29,5.37,15.29,11.74,0,3-1.21,4.67-2.69,4.67-1.06,0-1.84-.42-1.84-1.27s.64-1.21.64-3c0-5-4-8.49-11.4-8.49C795.34,885.42,786,890.65,786,906Z"/><path id="Path_32" data-name="Path 32" class="cls-3" d="M1072.91,737.58c16.33-14.63,43.8-43.47,52.75-83,9.16-40.51-4.49-85.51-13.87-99.68-35-52.87-102.64-34.42-90.62-7.92,10.23,22.61,47.7,42.32,66.95-3,4.18-9.82,23.24-81.44-8.42-132.45C1041.54,350.1,950,307.75,950,307.75"/><line id="Line_46" data-name="Line 46" class="cls-4" x1="950.06" y1="349.54" x2="949.09" y2="306.9"/><line id="Line_47" data-name="Line 47" class="cls-4" x1="986.46" y1="299.22" x2="949.09" y2="306.9"/></svg>