<svg id="Layer_1" data-name="Layer 1" xmlns="http://www.w3.org/2000/svg" width="800" height="800" viewBox="0 0 800 800"><defs><style>.cls-1{fill:none;stroke:#000;stroke-miterlimit:10;stroke-width:13px;}.cls-2{fill:#7b99aa;isolation:isolate;opacity:0.44;}</style></defs><circle class="cls-1" cx="211.75" cy="212.86" r="67.82"/><path class="cls-1" d="M76.1,390.9c2.91-14.64,11-43.31,35.8-62.65,22.95-17.9,48.11-17.9,98.43-17.9s75.49,0,98.44,17.9c24.82,19.34,32.89,48,35.8,62.65Z"/><circle class="cls-1" cx="590.18" cy="346.34" r="67.82"/><path class="cls-1" d="M454.53,524.38c2.91-14.64,11-43.31,35.79-62.65,23-17.9,48.12-17.9,98.44-17.9s75.49,0,98.44,17.9c24.82,19.34,32.89,48,35.8,62.65Z"/><rect class="cls-2" x="144.64" y="108.6" width="497.41" height="497.41" transform="translate(-138.01 364.26) rotate(-43)"/></svg>