<svg id="Layer_1" data-name="Layer 1" xmlns="http://www.w3.org/2000/svg" width="800" height="800" viewBox="0 0 800 800"><defs><style>.cls-1{fill:none;stroke:#7b99aa;stroke-linecap:round;stroke-linejoin:round;stroke-width:14px;}.cls-2{fill:#7b99aa;isolation:isolate;opacity:0.44;}</style></defs><g id="Group_7" data-name="Group 7"><path id="Path_6" data-name="Path 6" class="cls-1" d="M350.06,29.72l94.29,1.6-1.61,94.27"/><path id="Path_7" data-name="Path 7" class="cls-1" d="M444.35,31.32l-71.91,69.51a116.66,116.66,0,0,0-2.8,165h0a116.69,116.69,0,0,1-2.8,165h0l-71.91,69.51"/></g><rect class="cls-2" x="177.52" y="123.57" width="423.61" height="257.79" transform="translate(-41.83 423.95) rotate(-54.65)"/><path d="M164.85,560.28c0-7.5-5.8-9.35-14.3-9.35h-5.5v33.6s0,1.15-1.5,1.15-1.5-1.15-1.5-1.15V549.18a.94.94,0,0,1,1-1h7.5c10.2,0,17.3,3.1,17.3,12.2,0,10.35-9.35,14.35-18.9,14.35-1.35,0-1.75-.5-1.75-1.3s.4-1.35,1.7-1.35C156.75,572.08,164.85,569.33,164.85,560.28Z"/><path d="M196.45,583.08a1.3,1.3,0,0,1,.85,1.3,1.23,1.23,0,0,1-.85,1.3H176.7a.81.81,0,0,1-.85-.85V554.68a.79.79,0,0,1,.85-.85h18.55a1.21,1.21,0,0,1,.85,1.25,1.33,1.33,0,0,1-.85,1.35H178.7v15.35h14a1.33,1.33,0,0,1,.85,1.35,1.23,1.23,0,0,1-.85,1.3h-14v8.65Z"/><path d="M228.05,583.08c.35,0,.5.65.5.95,0,1.1-1.7,1.65-2.8,1.65-4.95,0-6.8-8-12.9-10.65a25.1,25.1,0,0,1-3.35.2c-1.15,0-1.45-.65-1.45-1.3,0-.95.3-1.1.9-1.1,7.35,0,13.9-2.75,13.9-9.35,0-6.05-4.6-7.1-10.9-7.1h-4.8v28.45c0,.5-.3.85-1.45.85s-1.4-.3-1.4-.85V554.68a.79.79,0,0,1,.85-.85h6.9c7.5,0,13.75,2.2,13.75,9.55,0,5.7-4.1,9.3-9.4,10.9,4.8,3,6.35,9,10.45,9A6.34,6.34,0,0,0,228.05,583.08Z"/><path d="M245.05,583.63c5.7,0,9.5-2.6,9.5-6.45,0-8.5-19.9-5-19.9-15.2,0-5.15,4.5-8.7,11.2-8.7,5.55,0,9.35,2.8,9.35,6.1,0,2-1.65,3.35-2.55,3.35-.75,0-1-.35-1-.7,0-.6.75-.8.75-2.5,0-2.15-2.5-3.8-6.55-3.8-4.25,0-8.4,1.85-8.4,5.75,0,8.35,19.9,4.85,19.9,15.3,0,5.1-4.3,9.4-12.2,9.4-7,0-11.6-2.4-11.6-6.9,0-2.85,1.85-4.1,2.65-4.1a.9.9,0,0,1,1,.85c0,.6-.9,1.4-.9,2.75C236.25,581.83,239.6,583.63,245.05,583.63Z"/><path d="M264.6,569.83a16.14,16.14,0,0,1,15.85-16.55c8.2,0,15.8,6.75,15.8,16.55s-7.2,16.3-15.8,16.3S264.6,579.53,264.6,569.83Zm28.85,0c0-8.45-5.95-14-13-14s-13,5.5-13,14c0,8.3,6,13.7,13,13.7S293.45,578.13,293.45,569.83Z"/><path d="M307.3,554.38l21.05,26.35v-26.1c0-.35.35-.8,1.25-.8s1.25.45,1.25.8v30.3c0,.5-.4.75-1.05.75a1.53,1.53,0,0,1-1.35-.8L307,558.48v26.35c0,.4-.3.85-1.25.85s-1.25-.4-1.25-.85V554.68c0-.4.4-.85,1.4-.85A1.73,1.73,0,0,1,307.3,554.38Z"/><path d="M360.45,583.08a1.3,1.3,0,0,1,.85,1.3,1.23,1.23,0,0,1-.85,1.3H340.7a.81.81,0,0,1-.85-.85v-30.2c0-.45.35-.8,1.4-.8s1.45.3,1.45.8v28.45Z"/><path d="M371.15,584.83c0,.4-.3.85-1.45.85s-1.4-.45-1.4-.85v-30.2c0-.45.35-.8,1.4-.8s1.45.3,1.45.8Z"/><path d="M382.35,570.43c0,9.05,5.8,13.2,13.35,13.2,5.7,0,9.4-3.6,9.4-5.4v-4.35h-6.3a1.42,1.42,0,0,1,0-2.6h8.25a.81.81,0,0,1,.85.85v6.4c0,3-5.5,7.65-12.35,7.65-8.55,0-16.15-5.45-16.15-15.75,0-12,8.45-17.15,16.45-17.15,6.55,0,10.8,3.8,10.8,8.3,0,2.15-.85,3.3-1.9,3.3-.75,0-1.3-.3-1.3-.9s.45-.85.45-2.1c0-3.55-2.85-6-8-6C389,555.88,382.35,559.58,382.35,570.43Z"/><path d="M450.25,583.08a1.3,1.3,0,0,1,.85,1.3,1.23,1.23,0,0,1-.85,1.3H430.5a.81.81,0,0,1-.85-.85V554.68a.79.79,0,0,1,.85-.85h18.55a1.21,1.21,0,0,1,.85,1.25,1.33,1.33,0,0,1-.85,1.35H432.5v15.35h13.95a1.33,1.33,0,0,1,.85,1.35,1.23,1.23,0,0,1-.85,1.3H432.5v8.65Z"/><path d="M481.85,583.08c.35,0,.5.65.5.95,0,1.1-1.7,1.65-2.8,1.65-4.95,0-6.8-8-12.9-10.65a25.1,25.1,0,0,1-3.35.2c-1.15,0-1.45-.65-1.45-1.3,0-.95.3-1.1.9-1.1,7.35,0,13.9-2.75,13.9-9.35,0-6.05-4.6-7.1-10.9-7.1H461v28.45c0,.5-.3.85-1.45.85s-1.4-.3-1.4-.85V554.68a.79.79,0,0,1,.85-.85h6.9c7.5,0,13.75,2.2,13.75,9.55,0,5.7-4.1,9.3-9.4,10.9,4.8,3,6.35,9,10.45,9A6.34,6.34,0,0,0,481.85,583.08Z"/><path d="M491.2,584.83c0,.4-.3.85-1.45.85s-1.4-.45-1.4-.85V554.68a.79.79,0,0,1,.85-.85h18.6a1.21,1.21,0,0,1,.85,1.25,1.23,1.23,0,0,1-.85,1.3H491.2v16h13.2a1.42,1.42,0,0,1,0,2.6H491.2Z"/><path d="M516.8,578.43l-2.75,6c-.4.9-.75,1.25-1.75,1.25a1.09,1.09,0,0,1-1.2-1,1.36,1.36,0,0,1,.15-.65l13.85-29.65c.25-.5.55-1.1,1.3-1.1s1,.6,1.25,1.15L541.7,584a1.36,1.36,0,0,1,.15.65,1.09,1.09,0,0,1-1.2,1,1.54,1.54,0,0,1-1.5-.95l-2.95-6.3Zm1.25-2.65H535l-8.5-18.1Z"/><path d="M572.1,583.08c.35,0,.5.65.5.95,0,1.1-1.7,1.65-2.8,1.65-4.95,0-6.8-8-12.9-10.65a25.1,25.1,0,0,1-3.35.2c-1.15,0-1.45-.65-1.45-1.3,0-.95.3-1.1.9-1.1,7.35,0,13.9-2.75,13.9-9.35,0-6.05-4.6-7.1-10.9-7.1h-4.8v28.45c0,.5-.3.85-1.45.85s-1.4-.3-1.4-.85V554.68a.79.79,0,0,1,.85-.85h6.9c7.5,0,13.75,2.2,13.75,9.55,0,5.7-4.1,9.3-9.4,10.9,4.8,3,6.35,9,10.45,9A6.34,6.34,0,0,0,572.1,583.08Z"/><path d="M581.45,584.83c0,.4-.3.85-1.45.85s-1.4-.45-1.4-.85v-30.2c0-.45.35-.8,1.4-.8s1.45.3,1.45.8Z"/><path d="M593.25,554.38l21,26.35v-26.1c0-.35.35-.8,1.25-.8s1.25.45,1.25.8v30.3c0,.5-.4.75-1,.75a1.53,1.53,0,0,1-1.35-.8L593,558.48v26.35c0,.4-.3.85-1.25.85s-1.25-.4-1.25-.85V554.68c0-.4.4-.85,1.4-.85A1.73,1.73,0,0,1,593.25,554.38Z"/><path d="M628,570.43c0,9.05,5.8,13.2,13.35,13.2,5.7,0,9.4-3.6,9.4-5.4v-4.35h-6.3a1.42,1.42,0,0,1,0-2.6h8.25a.81.81,0,0,1,.85.85v6.4c0,3-5.5,7.65-12.35,7.65-8.55,0-16.15-5.45-16.15-15.75,0-12,8.45-17.15,16.45-17.15,6.55,0,10.8,3.8,10.8,8.3,0,2.15-.85,3.3-1.9,3.3-.75,0-1.3-.3-1.3-.9s.45-.85.45-2.1c0-3.55-2.85-6-8-6C634.6,555.88,628,559.58,628,570.43Z"/><path d="M167.5,644.48,154,620v24.85c0,.5-.2.85-1.3.85s-1.3-.35-1.3-.85V614.68c0-.55.6-.85,1.25-.85a1.55,1.55,0,0,1,1.5.65l14.65,26.75,15.4-26.8a1.45,1.45,0,0,1,1.25-.6c.6,0,1.15.25,1.15.75v30.25c0,.55-.35.85-1.4.85s-1.45-.25-1.45-.85v-24.5l-14.1,24.15a1.18,1.18,0,0,1-2.15,0Z"/><path d="M216.2,643.08a1.3,1.3,0,0,1,.85,1.3,1.23,1.23,0,0,1-.85,1.3H196.45a.81.81,0,0,1-.85-.85V614.68a.79.79,0,0,1,.85-.85H215a1.21,1.21,0,0,1,.85,1.25,1.33,1.33,0,0,1-.85,1.35H198.45v15.35h14a1.33,1.33,0,0,1,.85,1.35,1.23,1.23,0,0,1-.85,1.3h-14v8.65Z"/><path d="M224.9,645.68a.81.81,0,0,1-.85-.85V614.68a.79.79,0,0,1,.85-.85h8.2c10.9,0,19,4,19,15.55,0,8.85-4.65,16.3-17.9,16.3Zm9.25-2.55c11.6,0,15-6.1,15-13.75,0-9.85-6.3-13-16.05-13h-6.2v26.75Z"/><path d="M284.3,643.63c5.7,0,9.5-2.6,9.5-6.45,0-8.5-19.9-5-19.9-15.2,0-5.15,4.5-8.7,11.2-8.7,5.55,0,9.35,2.8,9.35,6.1,0,2-1.65,3.35-2.55,3.35-.75,0-1-.35-1-.7,0-.6.75-.8.75-2.5,0-2.15-2.5-3.8-6.55-3.8-4.25,0-8.4,1.85-8.4,5.75,0,8.35,19.9,4.85,19.9,15.3,0,5.1-4.3,9.4-12.2,9.4-6.95,0-11.6-2.4-11.6-6.9,0-2.85,1.85-4.1,2.65-4.1a.9.9,0,0,1,.95.85c0,.6-.9,1.4-.9,2.75C275.5,641.83,278.85,643.63,284.3,643.63Z"/><path d="M325.2,643.08a1.3,1.3,0,0,1,.85,1.3,1.23,1.23,0,0,1-.85,1.3H305.45a.81.81,0,0,1-.85-.85V614.68a.79.79,0,0,1,.85-.85H324a1.21,1.21,0,0,1,.85,1.25,1.33,1.33,0,0,1-.85,1.35H307.45v15.35H321.4a1.33,1.33,0,0,1,.85,1.35,1.23,1.23,0,0,1-.85,1.3H307.45v8.65Z"/><path d="M353.65,643.08a1.3,1.3,0,0,1,.85,1.3,1.23,1.23,0,0,1-.85,1.3H333.9a.81.81,0,0,1-.85-.85v-30.2c0-.45.35-.8,1.4-.8s1.45.3,1.45.8v28.45Z"/><path d="M356.9,614.78l12.7,27,12.7-27.15a1.32,1.32,0,0,1,1.3-.8c.8,0,1.25.4,1.25.95a1.36,1.36,0,0,1-.15.65l-14.2,30.25c-.15.3-.45.45-1,.45s-.8-.15-.95-.45l-14.2-30.25a1.24,1.24,0,0,1-.15-.7c0-.4.35-.9,1.3-.9A1.31,1.31,0,0,1,356.9,614.78Z"/><path d="M415.7,614.63c0-.45.2-.8,1.3-.8s1.3.45,1.3.8v20.75c0,5.65-5.25,10.75-13.55,10.75-8.55,0-13.45-5.1-13.45-10.75V614.63c0-.4.35-.8,1.4-.8s1.45.35,1.45.8v20.65c0,4.5,3.5,8.3,10.6,8.3,6.95,0,10.95-3.8,10.95-8.3Z"/><path d="M428.15,645.68a.81.81,0,0,1-.85-.85V614.68a.79.79,0,0,1,.85-.85h8.2c10.9,0,18.95,4,18.95,15.55,0,8.85-4.65,16.3-17.9,16.3Zm9.25-2.55c11.6,0,15-6.1,15-13.75,0-9.85-6.3-13-16-13h-6.2v26.75Z"/><path d="M463,614.78l12.7,27,12.7-27.15a1.32,1.32,0,0,1,1.3-.8c.8,0,1.25.4,1.25.95a1.36,1.36,0,0,1-.15.65l-14.2,30.25c-.15.3-.45.45-1,.45s-.8-.15-1-.45l-14.2-30.25a1.24,1.24,0,0,1-.15-.7c0-.4.35-.9,1.3-.9A1.31,1.31,0,0,1,463,614.78Z"/><path d="M500.25,644.83c0,.4-.3.85-1.45.85s-1.4-.45-1.4-.85v-30.2c0-.45.35-.8,1.4-.8s1.45.3,1.45.8Z"/><path d="M512.1,629.33l15.2-15.1a1.29,1.29,0,0,1,.9-.4,1.38,1.38,0,0,1,1.45,1.3,1.42,1.42,0,0,1-.4.85L516.7,628.33c5.7,3.75,12.55,14.6,15.85,14.6a6.19,6.19,0,0,0,1.35-.15c.65,0,.9.6.9,1.2,0,.95-1,1.7-2.6,1.7-4.7,0-12.75-12.5-17.5-15.35l-2.6,2.55v12c0,.4-.3.85-1.45.85s-1.4-.45-1.4-.85v-30.2c0-.45.35-.8,1.4-.8s1.45.3,1.45.8Z"/><path d="M560.9,643.08a1.3,1.3,0,0,1,.85,1.3,1.23,1.23,0,0,1-.85,1.3H541.15a.81.81,0,0,1-.85-.85v-30.2c0-.45.35-.8,1.4-.8s1.45.3,1.45.8v28.45Z"/><path d="M571.6,644.83c0,.4-.3.85-1.45.85s-1.4-.45-1.4-.85v-30.2c0-.45.35-.8,1.4-.8s1.45.3,1.45.8Z"/><path d="M583.4,614.38l21.05,26.35v-26.1c0-.35.35-.8,1.25-.8s1.25.45,1.25.8v30.3c0,.5-.4.75-1.05.75a1.53,1.53,0,0,1-1.35-.8l-21.45-26.4v26.35c0,.4-.3.85-1.25.85s-1.25-.4-1.25-.85V614.68c0-.4.4-.85,1.4-.85A1.73,1.73,0,0,1,583.4,614.38Z"/><path d="M618.15,630.43c0,9.05,5.8,13.2,13.35,13.2,5.7,0,9.4-3.6,9.4-5.4v-4.35h-6.3a1.42,1.42,0,0,1,0-2.6h8.25a.81.81,0,0,1,.85.85v6.4c0,3-5.5,7.65-12.35,7.65-8.55,0-16.15-5.45-16.15-15.75,0-12,8.45-17.15,16.45-17.15,6.55,0,10.8,3.8,10.8,8.3,0,2.15-.85,3.3-1.9,3.3-.75,0-1.3-.3-1.3-.9s.45-.85.45-2.1c0-3.55-2.85-6-8.05-6C624.75,615.88,618.15,619.58,618.15,630.43Z"/></svg>