<svg id="Layer_1" data-name="Layer 1" xmlns="http://www.w3.org/2000/svg" width="800" height="800" viewBox="0 0 800 800"><defs><style>.cls-1{fill:none;stroke:#7b99aa;stroke-linecap:round;stroke-linejoin:round;stroke-width:14px;}.cls-2{fill:#7b99aa;isolation:isolate;opacity:0.44;}</style></defs><g id="Group_7" data-name="Group 7"><path id="Path_6" data-name="Path 6" class="cls-1" d="M366.1,132.8,433.88,134l-1.15,67.77"/><path id="Path_7" data-name="Path 7" class="cls-1" d="M433.88,134l-51.7,50a83.89,83.89,0,0,0-2,118.61h0a83.88,83.88,0,0,1-2,118.61h0l-51.7,50"/></g><rect class="cls-2" x="242.06" y="200.27" width="304.53" height="185.32" transform="matrix(0.58, -0.82, 0.82, 0.58, -72.74, 445.09)"/><path d="M100.89,548.58c0-9-7-11.22-17.16-11.22h-6.6v40.31s0,1.38-1.8,1.38-1.8-1.38-1.8-1.38V535.26a1.13,1.13,0,0,1,1.2-1.2h9c12.24,0,20.76,3.72,20.76,14.64,0,12.42-11.22,17.22-22.68,17.22-1.62,0-2.1-.6-2.1-1.56,0-1.15.48-1.62,2-1.62C91.17,562.74,100.89,559.44,100.89,548.58Z"/><path d="M138.81,575.93a1.56,1.56,0,0,1,1,1.57,1.48,1.48,0,0,1-1,1.55h-23.7a1,1,0,0,1-1-1V541.86a1,1,0,0,1,1-1h22.26a1.45,1.45,0,0,1,1,1.5,1.59,1.59,0,0,1-1,1.62H117.51v18.42h16.74a1.59,1.59,0,0,1,1,1.62,1.48,1.48,0,0,1-1,1.56H117.51v10.37Z"/><path d="M176.73,575.93c.42,0,.6.78.6,1.15,0,1.31-2,2-3.36,2-5.94,0-8.16-9.65-15.48-12.77a30.12,30.12,0,0,1-4,.24c-1.38,0-1.74-.78-1.74-1.56,0-1.14.36-1.32,1.08-1.32,8.82,0,16.68-3.3,16.68-11.22,0-7.26-5.52-8.52-13.08-8.52h-5.76V578c0,.59-.36,1-1.74,1s-1.68-.36-1.68-1V541.86a1,1,0,0,1,1-1h8.28c9,0,16.5,2.64,16.5,11.46,0,6.84-4.92,11.16-11.28,13.08,5.76,3.54,7.62,10.74,12.54,10.74A7.24,7.24,0,0,0,176.73,575.93Z"/><path d="M197.13,576.59c6.84,0,11.4-3.12,11.4-7.73,0-10.2-23.88-6.07-23.88-18.24,0-6.18,5.4-10.44,13.44-10.44,6.66,0,11.22,3.36,11.22,7.32,0,2.4-2,4-3.06,4-.9,0-1.2-.42-1.2-.84,0-.72.9-1,.9-3,0-2.58-3-4.56-7.86-4.56-5.1,0-10.08,2.22-10.08,6.9,0,10,23.88,5.82,23.88,18.36,0,6.12-5.16,11.27-14.64,11.27-8.34,0-13.92-2.88-13.92-8.27,0-3.42,2.22-4.92,3.18-4.92a1.08,1.08,0,0,1,1.14,1c0,.72-1.08,1.68-1.08,3.3C186.57,574.43,190.59,576.59,197.13,576.59Z"/><path d="M220.59,560c0-11.76,9.18-19.86,19-19.86s18.95,8.1,18.95,19.86-8.64,19.55-18.95,19.55S220.59,571.67,220.59,560Zm34.61,0c0-10.14-7.14-16.74-15.59-16.74S224,549.9,224,560c0,10,7.2,16.43,15.6,16.43S255.2,570,255.2,560Z"/><path d="M271.83,541.5l25.25,31.62V541.8c0-.42.42-1,1.5-1s1.5.54,1.5,1v36.35c0,.6-.48.9-1.26.9a1.84,1.84,0,0,1-1.62-1l-25.73-31.67V578c0,.47-.36,1-1.5,1s-1.5-.48-1.5-1V541.86c0-.48.48-1,1.68-1A2.08,2.08,0,0,1,271.83,541.5Z"/><path d="M335.6,575.93a1.56,1.56,0,0,1,1,1.57,1.48,1.48,0,0,1-1,1.55H311.9a1,1,0,0,1-1-1V541.8c0-.54.42-1,1.68-1s1.74.36,1.74,1v34.13Z"/><path d="M348.44,578c0,.47-.36,1-1.74,1s-1.68-.54-1.68-1V541.8c0-.54.42-1,1.68-1s1.74.36,1.74,1Z"/><path d="M361.88,560.76c0,10.86,7,15.83,16,15.83,6.84,0,11.28-4.31,11.28-6.47V564.9h-7.56a1.7,1.7,0,0,1,0-3.12h9.9a1,1,0,0,1,1,1v7.68c0,3.61-6.6,9.18-14.82,9.18-10.26,0-19.38-6.53-19.38-18.89,0-14.4,10.14-20.58,19.74-20.58,7.86,0,13,4.56,13,10,0,2.58-1,4-2.28,4-.9,0-1.56-.36-1.56-1.08s.54-1,.54-2.52c0-4.26-3.42-7.2-9.66-7.2C369.8,543.3,361.88,547.74,361.88,560.76Z"/><path d="M443.36,575.93a1.56,1.56,0,0,1,1,1.57,1.48,1.48,0,0,1-1,1.55h-23.7a1,1,0,0,1-1-1V541.86a1,1,0,0,1,1-1h22.26a1.45,1.45,0,0,1,1,1.5,1.59,1.59,0,0,1-1,1.62H422.06v18.42H438.8a1.59,1.59,0,0,1,1,1.62,1.48,1.48,0,0,1-1,1.56H422.06v10.37Z"/><path d="M481.28,575.93c.42,0,.6.78.6,1.15,0,1.31-2,2-3.36,2-5.94,0-8.16-9.65-15.48-12.77a30.12,30.12,0,0,1-4,.24c-1.38,0-1.74-.78-1.74-1.56,0-1.14.36-1.32,1.08-1.32,8.82,0,16.68-3.3,16.68-11.22,0-7.26-5.52-8.52-13.08-8.52H456.2V578c0,.59-.36,1-1.74,1s-1.68-.36-1.68-1V541.86a1,1,0,0,1,1-1h8.28c9,0,16.5,2.64,16.5,11.46,0,6.84-4.92,11.16-11.28,13.08,5.76,3.54,7.62,10.74,12.54,10.74A7.24,7.24,0,0,0,481.28,575.93Z"/><path d="M492.5,578c0,.47-.36,1-1.74,1s-1.68-.54-1.68-1V541.86a1,1,0,0,1,1-1h22.32a1.45,1.45,0,0,1,1,1.5,1.48,1.48,0,0,1-1,1.56H492.5V563h15.84a1.7,1.7,0,0,1,0,3.12H492.5Z"/><path d="M523.22,570.36l-3.3,7.19c-.48,1.08-.9,1.5-2.1,1.5a1.31,1.31,0,0,1-1.44-1.2,1.61,1.61,0,0,1,.18-.77l16.62-35.58c.3-.6.66-1.32,1.56-1.32s1.2.72,1.5,1.38l16.86,35.52a1.61,1.61,0,0,1,.18.77,1.31,1.31,0,0,1-1.44,1.2,1.86,1.86,0,0,1-1.8-1.13l-3.54-7.56Zm1.5-3.19H545l-10.2-21.71Z"/><path d="M589.58,575.93c.42,0,.6.78.6,1.15,0,1.31-2,2-3.36,2-5.94,0-8.16-9.65-15.48-12.77a30.12,30.12,0,0,1-4,.24c-1.38,0-1.74-.78-1.74-1.56,0-1.14.36-1.32,1.08-1.32,8.82,0,16.68-3.3,16.68-11.22,0-7.26-5.52-8.52-13.08-8.52H564.5V578c0,.59-.36,1-1.74,1s-1.68-.36-1.68-1V541.86a1,1,0,0,1,1-1h8.28c9,0,16.5,2.64,16.5,11.46,0,6.84-4.92,11.16-11.28,13.08,5.76,3.54,7.62,10.74,12.54,10.74A7.24,7.24,0,0,0,589.58,575.93Z"/><path d="M600.8,578c0,.47-.36,1-1.74,1s-1.68-.54-1.68-1V541.8c0-.54.42-1,1.68-1s1.74.36,1.74,1Z"/><path d="M615,541.5l25.26,31.62V541.8c0-.42.42-1,1.5-1s1.5.54,1.5,1v36.35c0,.6-.48.9-1.26.9a1.84,1.84,0,0,1-1.62-1L614.6,546.42V578c0,.47-.36,1-1.5,1s-1.5-.48-1.5-1V541.86c0-.48.48-1,1.68-1A2.08,2.08,0,0,1,615,541.5Z"/><path d="M656.66,560.76c0,10.86,7,15.83,16,15.83,6.84,0,11.28-4.31,11.28-6.47V564.9H676.4a1.7,1.7,0,0,1,0-3.12h9.9a1,1,0,0,1,1,1v7.68c0,3.61-6.6,9.18-14.82,9.18-10.26,0-19.38-6.53-19.38-18.89,0-14.4,10.14-20.58,19.74-20.58,7.86,0,13,4.56,13,10,0,2.58-1,4-2.28,4-.9,0-1.56-.36-1.56-1.08s.54-1,.54-2.52c0-4.26-3.42-7.2-9.66-7.2C664.58,543.3,656.66,547.74,656.66,560.76Z"/><path d="M104.07,649.62l-16.2-29.4V650c0,.59-.24,1-1.56,1s-1.56-.42-1.56-1V613.86c0-.66.72-1,1.5-1a1.86,1.86,0,0,1,1.8.78l17.58,32.09,18.48-32.15a1.74,1.74,0,0,1,1.5-.72c.72,0,1.38.3,1.38.9V650c0,.65-.42,1-1.68,1s-1.74-.3-1.74-1v-29.4l-16.92,29a1.46,1.46,0,0,1-1.26.84A1.44,1.44,0,0,1,104.07,649.62Z"/><path d="M162.51,647.93a1.56,1.56,0,0,1,1,1.57,1.48,1.48,0,0,1-1,1.55h-23.7a1,1,0,0,1-1-1V613.86a1,1,0,0,1,1-1h22.26a1.45,1.45,0,0,1,1,1.5,1.59,1.59,0,0,1-1,1.62H141.21v18.42H158a1.59,1.59,0,0,1,1,1.62,1.48,1.48,0,0,1-1,1.56H141.21v10.37Z"/><path d="M173,651.05a1,1,0,0,1-1-1V613.86a1,1,0,0,1,1-1h9.84c13.08,0,22.73,4.8,22.73,18.66,0,10.62-5.57,19.55-21.47,19.55Zm11.1-3c13.92,0,18-7.33,18-16.5,0-11.82-7.55-15.6-19.25-15.6h-7.44V648Z"/><path d="M244.22,648.59c6.84,0,11.4-3.12,11.4-7.73,0-10.2-23.87-6.07-23.87-18.24,0-6.18,5.4-10.44,13.43-10.44,6.66,0,11.22,3.36,11.22,7.32,0,2.4-2,4-3.06,4-.9,0-1.2-.42-1.2-.84,0-.72.9-1,.9-3,0-2.58-3-4.56-7.86-4.56-5.1,0-10.08,2.22-10.08,6.9,0,10,23.88,5.82,23.88,18.36,0,6.12-5.16,11.27-14.64,11.27-8.34,0-13.91-2.88-13.91-8.27,0-3.42,2.22-4.92,3.17-4.92a1.08,1.08,0,0,1,1.15,1c0,.72-1.08,1.68-1.08,3.3C233.67,646.43,237.69,648.59,244.22,648.59Z"/><path d="M293.3,647.93a1.56,1.56,0,0,1,1,1.57,1.48,1.48,0,0,1-1,1.55H269.6a1,1,0,0,1-1-1V613.86a.94.94,0,0,1,1-1h22.26a1.45,1.45,0,0,1,1,1.5,1.59,1.59,0,0,1-1,1.62H272v18.42h16.74a1.59,1.59,0,0,1,1,1.62,1.48,1.48,0,0,1-1,1.56H272v10.37Z"/><path d="M327.44,647.93a1.56,1.56,0,0,1,1,1.57,1.48,1.48,0,0,1-1,1.55h-23.7a1,1,0,0,1-1-1V613.8c0-.54.42-1,1.68-1s1.74.36,1.74,1v34.13Z"/><path d="M331.34,614l15.24,32.4,15.24-32.58a1.58,1.58,0,0,1,1.56-1c1,0,1.5.48,1.5,1.14a1.63,1.63,0,0,1-.18.78l-17,36.29c-.18.37-.54.54-1.2.54s-1-.17-1.14-.54l-17-36.29a1.48,1.48,0,0,1-.18-.84c0-.48.42-1.08,1.56-1.08A1.57,1.57,0,0,1,331.34,614Z"/><path d="M401.9,613.8c0-.54.24-1,1.56-1s1.56.54,1.56,1v24.9c0,6.77-6.3,12.89-16.26,12.89-10.26,0-16.14-6.12-16.14-12.89V613.8c0-.48.42-1,1.68-1s1.74.42,1.74,1v24.78c0,5.39,4.2,10,12.72,10,8.34,0,13.14-4.57,13.14-10Z"/><path d="M416.84,651.05a1,1,0,0,1-1-1V613.86a1,1,0,0,1,1-1h9.84c13.08,0,22.74,4.8,22.74,18.66,0,10.62-5.58,19.55-21.48,19.55Zm11.1-3c13.92,0,18-7.33,18-16.5,0-11.82-7.56-15.6-19.26-15.6h-7.44V648Z"/><path d="M458.66,614l15.24,32.4,15.24-32.58a1.58,1.58,0,0,1,1.56-1c1,0,1.5.48,1.5,1.14a1.63,1.63,0,0,1-.18.78l-17,36.29c-.18.37-.54.54-1.2.54s-1-.17-1.14-.54l-17-36.29a1.48,1.48,0,0,1-.18-.84c0-.48.42-1.08,1.56-1.08A1.57,1.57,0,0,1,458.66,614Z"/><path d="M503.36,650c0,.47-.36,1-1.74,1s-1.68-.54-1.68-1V613.8c0-.54.42-1,1.68-1s1.74.36,1.74,1Z"/><path d="M517.58,631.44l18.24-18.12a1.55,1.55,0,0,1,1.08-.48,1.66,1.66,0,0,1,1.74,1.56,1.7,1.7,0,0,1-.48,1L523.1,630.24c6.84,4.5,15.06,17.51,19,17.51a7.84,7.84,0,0,0,1.62-.17c.78,0,1.08.71,1.08,1.43,0,1.14-1.26,2-3.12,2-5.64,0-15.3-15-21-18.41l-3.12,3.06V650c0,.47-.36,1-1.74,1s-1.68-.54-1.68-1V613.8c0-.54.42-1,1.68-1s1.74.36,1.74,1Z"/><path d="M576.14,647.93a1.56,1.56,0,0,1,1,1.57,1.48,1.48,0,0,1-1,1.55h-23.7a1,1,0,0,1-1-1V613.8c0-.54.42-1,1.68-1s1.74.36,1.74,1v34.13Z"/><path d="M589,650c0,.47-.36,1-1.74,1s-1.68-.54-1.68-1V613.8c0-.54.42-1,1.68-1s1.74.36,1.74,1Z"/><path d="M603.14,613.5l25.26,31.62V613.8c0-.42.42-1,1.5-1s1.5.54,1.5,1v36.35c0,.6-.48.9-1.26.9a1.84,1.84,0,0,1-1.62-1l-25.74-31.67V650c0,.47-.36,1-1.5,1s-1.5-.48-1.5-1V613.86c0-.48.48-1,1.68-1A2.08,2.08,0,0,1,603.14,613.5Z"/><path d="M644.84,632.76c0,10.86,7,15.83,16,15.83,6.84,0,11.28-4.31,11.28-6.47V636.9h-7.56a1.7,1.7,0,0,1,0-3.12h9.9a1,1,0,0,1,1,1v7.68c0,3.61-6.6,9.18-14.82,9.18-10.26,0-19.38-6.53-19.38-18.89,0-14.4,10.14-20.58,19.74-20.58,7.86,0,13,4.56,13,10,0,2.58-1,4-2.28,4-.9,0-1.56-.36-1.56-1.08s.54-1,.54-2.52c0-4.26-3.42-7.2-9.66-7.2C652.76,615.3,644.84,619.74,644.84,632.76Z"/></svg>