<svg id="Layer_1" data-name="Layer 1" xmlns="http://www.w3.org/2000/svg" width="800" height="800" viewBox="0 0 800 800"><defs><style>.cls-1,.cls-3{opacity:0.44;}.cls-2,.cls-3{fill:#7b99aa;}.cls-4{fill:none;stroke:#7b99aa;stroke-miterlimit:10;stroke-width:14px;}.cls-5{fill:#3e3e3e;}</style></defs><g class="cls-1"><path class="cls-2" d="M800.36,351c0-43.5-41.94-80.16-99.17-91.42-9.79-42.7-53.84-74.91-106.71-74.91a127.39,127.39,0,0,0-22,1.89c0-.63,0-1.26,0-1.89,0-68.84-65.81-124.65-147-124.65-58.64,0-109.26,29.12-132.85,71.24A146.56,146.56,0,0,0,238.59,121c-72.4,0-131.09,51.38-131.09,114.76,0,27.55,11.09,52.83,29.57,72.61C91,327.09,59.36,365.7,59.36,410.3c0,62.9,62.93,113.9,140.55,113.9a173.42,173.42,0,0,0,21.3-1.3c15.38,33.69,77.36,58.89,151.49,58.89,80.16,0,146.12-29.47,154.3-67.28a211,211,0,0,0,64,9.69c79.47,0,144.5-41.79,149.67-94.65C776.71,412.45,800.36,383.65,800.36,351ZM489.29,301.11c-1.33-.86-2.68-1.71-4.05-2.52l3-1.18C488.57,298.65,488.92,299.89,489.29,301.11Z"/><path class="cls-2" d="M190,603.84s0-.08,0-.12c0-12.11-12.71-21.93-28.37-21.93s-28.18,9.68-28.36,21.66c-8.72,3.74-14.62,10.92-14.62,19.18,0,12.1,12.7,21.92,28.36,21.92a35,35,0,0,0,14.19-2.94,34.88,34.88,0,0,0,14.18,2.94c15.67,0,28.37-9.82,28.37-21.92C203.78,614.65,198.26,607.67,190,603.84Z"/></g><ellipse class="cls-3" cx="64.36" cy="712.5" rx="25" ry="16.5"/><path class="cls-4" d="M766.86,354c0-44.32-42.73-81.68-101-93.15-10-43.5-54.86-76.33-108.73-76.33a130.06,130.06,0,0,0-22.36,1.93c0-.64,0-1.28,0-1.93,0-70.14-67.06-127-149.78-127-59.75,0-111.32,29.67-135.36,72.59a149.24,149.24,0,0,0-55.14-10.4c-73.77,0-133.57,52.35-133.57,116.93,0,28.06,11.3,53.82,30.13,74C44.1,329.64,11.86,369,11.86,414.42c0,64.09,64.12,116.05,143.21,116.05a176,176,0,0,0,21.7-1.33c15.67,34.33,78.82,60,154.35,60,81.68,0,148.89-30,157.22-68.55a214.85,214.85,0,0,0,65.25,9.87c81,0,147.23-42.58,152.49-96.44C742.77,416.61,766.86,387.26,766.86,354Z"/><path class="cls-4" d="M156,603.61v-.12c0-12.34-12.94-22.34-28.9-22.34S98.38,591,98.2,603.22c-8.89,3.81-14.9,11.13-14.9,19.54,0,12.33,12.94,22.33,28.9,22.33a35.46,35.46,0,0,0,14.45-3,35.53,35.53,0,0,0,14.45,3c16,0,28.91-10,28.91-22.33C170,614.63,164.39,607.52,156,603.61Z"/><ellipse class="cls-4" cx="53.36" cy="705.5" rx="25" ry="16.5"/><path class="cls-5" d="M261.83,191.18,284.74,168a1.68,1.68,0,0,1,1.33-.63c1.26,0,1.77.63,1.77,1.52a2.88,2.88,0,0,1-.82,1.7l-18.73,18.48c8.47,5.32,17.9,22.34,24.1,22.34a11.64,11.64,0,0,0,2-.19,1.11,1.11,0,0,1,1.14,1.2c0,1.33-1.39,2.41-3.67,2.41-8.48,0-18.48-19.56-26.07-23.23l-4,3.93v17.84s0,1.46-1.9,1.46-1.9-1.46-1.9-1.46V168.84s0-1.45,1.9-1.45,1.9,1.45,1.9,1.45Z"/><path class="cls-5" d="M329.22,211.56a1.63,1.63,0,0,1,1.08,1.64,1.57,1.57,0,0,1-1.08,1.65h-25a1,1,0,0,1-1.08-1.08V175.55c0-.57.44-1,1.77-1s1.84.38,1.84,1v36Z"/><path class="cls-5" d="M342.76,213.77c0,.51-.38,1.08-1.84,1.08s-1.77-.57-1.77-1.08V175.55c0-.57.45-1,1.77-1s1.84.38,1.84,1Z"/><path class="cls-5" d="M357.76,194.15,377,175a1.63,1.63,0,0,1,1.14-.5,1.76,1.76,0,0,1,1.84,1.64,1.8,1.8,0,0,1-.51,1.08l-15.88,15.63c7.21,4.74,15.88,18.48,20.06,18.48a7.69,7.69,0,0,0,1.7-.19c.83,0,1.14.75,1.14,1.51,0,1.21-1.33,2.16-3.29,2.16-5.95,0-16.13-15.82-22.14-19.43l-3.29,3.23v15.12c0,.51-.38,1.08-1.84,1.08s-1.77-.57-1.77-1.08V175.55c0-.57.44-1,1.77-1s1.84.38,1.84,1Z"/><path class="cls-5" d="M414.13,213.83c0,.51-.38,1.08-1.83,1.08s-1.77-.57-1.77-1.08V175.61a1,1,0,0,1,1.07-1.07h7.34c11.77,0,19.87,3.29,19.87,13.1,0,10.56-10.19,15.44-20.5,15.44-1.46,0-1.84-.76-1.84-1.59,0-1,.38-1.64,1.78-1.64,8.35,0,16.95-3.17,16.95-12.34,0-7.59-6.64-9.68-16.26-9.68h-4.81Z"/><path class="cls-5" d="M449.57,205.67l-3.48,7.59c-.51,1.14-.95,1.59-2.22,1.59a1.39,1.39,0,0,1-1.52-1.27,1.68,1.68,0,0,1,.19-.82l17.53-37.53c.32-.63.7-1.39,1.65-1.39s1.26.76,1.58,1.46l17.78,37.46a1.68,1.68,0,0,1,.19.82,1.38,1.38,0,0,1-1.52,1.27,2,2,0,0,1-1.9-1.21l-3.73-8Zm1.58-3.35h21.39l-10.76-22.91Zm5.25-36.58A5.43,5.43,0,0,0,462,171a5.54,5.54,0,0,0,5.5-5.25,5.55,5.55,0,0,0-11.07,0Zm3.23,0A2.47,2.47,0,0,1,462,163.4a2.42,2.42,0,0,1,2.28,2.34,2.55,2.55,0,0,1-2.28,2.53A2.42,2.42,0,0,1,459.63,165.74Z"/><path class="cls-5" d="M197.92,288.18c7.22,0,12-3.29,12-8.16,0-10.76-25.19-6.39-25.19-19.24,0-6.52,5.7-11,14.18-11,7,0,11.83,3.55,11.83,7.72,0,2.53-2.09,4.24-3.23,4.24-.95,0-1.26-.44-1.26-.88,0-.76.95-1,.95-3.17,0-2.72-3.17-4.81-8.29-4.81-5.38,0-10.63,2.34-10.63,7.28,0,10.57,25.18,6.14,25.18,19.36,0,6.46-5.44,11.9-15.44,11.9-8.8,0-14.68-3-14.68-8.73,0-3.61,2.34-5.19,3.35-5.19a1.14,1.14,0,0,1,1.21,1.07c0,.76-1.14,1.78-1.14,3.48C186.79,285.9,191,288.18,197.92,288.18Z"/><path class="cls-5" d="M227.22,289.7c0,.51-.38,1.08-1.84,1.08s-1.77-.57-1.77-1.08V251.48c0-.57.45-1,1.77-1s1.84.38,1.84,1Z"/><path class="cls-5" d="M239.69,290.78a1,1,0,0,1-1.08-1.08V251.54a1,1,0,0,1,1.08-1.07h10.37c13.8,0,24,5.06,24,19.68,0,11.2-5.89,20.63-22.66,20.63Zm11.7-3.23c14.68,0,19-7.72,19-17.4,0-12.47-8-16.45-20.31-16.45h-7.84v33.85Z"/><path class="cls-5" d="M310.55,287.49a1.63,1.63,0,0,1,1.08,1.64,1.57,1.57,0,0,1-1.08,1.65h-25a1,1,0,0,1-1.08-1.08V251.54a1,1,0,0,1,1.08-1.07H309a1.52,1.52,0,0,1,1.07,1.58,1.68,1.68,0,0,1-1.07,1.71h-21v19.42h17.66a1.68,1.68,0,0,1,1.07,1.71,1.56,1.56,0,0,1-1.07,1.65H288.09v10.95Z"/><path class="cls-5" d="M350.54,287.49c.45,0,.64.82.64,1.2,0,1.39-2.15,2.09-3.55,2.09-6.26,0-8.6-10.19-16.32-13.48a31.74,31.74,0,0,1-4.24.25c-1.46,0-1.84-.82-1.84-1.64,0-1.21.38-1.4,1.14-1.4,9.3,0,17.59-3.48,17.59-11.83,0-7.66-5.82-9-13.79-9h-6.08v36c0,.63-.38,1.08-1.83,1.08s-1.77-.38-1.77-1.08V251.54a1,1,0,0,1,1.07-1.07h8.73c9.5,0,17.41,2.78,17.41,12.08,0,7.22-5.19,11.77-11.9,13.8,6.07,3.73,8,11.33,13.23,11.33A8,8,0,0,0,350.54,287.49Z"/><path class="cls-5" d="M362.31,251.16,389,284.51v-33c0-.44.44-1,1.58-1s1.59.57,1.59,1v38.35c0,.63-.51.95-1.33.95a1.94,1.94,0,0,1-1.71-1l-27.15-33.41V289.7c0,.51-.38,1.08-1.58,1.08s-1.58-.51-1.58-1.08V251.54c0-.5.5-1.07,1.77-1.07A2.19,2.19,0,0,1,362.31,251.16Z"/><path class="cls-5" d="M429.57,287.49a1.63,1.63,0,0,1,1.08,1.64,1.57,1.57,0,0,1-1.08,1.65h-25a1,1,0,0,1-1.08-1.08V251.54a1,1,0,0,1,1.08-1.07h23.48a1.52,1.52,0,0,1,1.07,1.58,1.68,1.68,0,0,1-1.07,1.71H407.11v19.42h17.65a1.69,1.69,0,0,1,1.08,1.71,1.56,1.56,0,0,1-1.08,1.65H407.11v10.95Z"/><path class="cls-5" d="M460.2,289.7c0,.51-.38,1.08-1.84,1.08s-1.77-.57-1.77-1.08V251.54a1,1,0,0,1,1.08-1.07h23.54a1.52,1.52,0,0,1,1.07,1.58,1.57,1.57,0,0,1-1.07,1.65h-21v20.18h16.7a1.79,1.79,0,0,1,0,3.29H460.2Z"/><path class="cls-5" d="M488.42,270.72c0-12.41,9.68-21,20.06-21s20,8.54,20,21-9.11,20.63-20,20.63S488.42,283,488.42,270.72Zm36.51,0c0-10.7-7.53-17.66-16.45-17.66S492,260,492,270.72c0,10.5,7.6,17.34,16.46,17.34S524.93,281.22,524.93,270.72Z"/><path class="cls-5" d="M569,287.49c.44,0,.63.82.63,1.2,0,1.39-2.15,2.09-3.54,2.09-6.27,0-8.61-10.19-16.33-13.48a31.74,31.74,0,0,1-4.24.25c-1.45,0-1.83-.82-1.83-1.64,0-1.21.38-1.4,1.14-1.4,9.3,0,17.59-3.48,17.59-11.83,0-7.66-5.82-9-13.8-9h-6.07v36c0,.63-.38,1.08-1.84,1.08s-1.77-.38-1.77-1.08V251.54a1,1,0,0,1,1.08-1.07h8.73c9.49,0,17.4,2.78,17.4,12.08,0,7.22-5.19,11.77-11.9,13.8,6.08,3.73,8,11.33,13.23,11.33A8.13,8.13,0,0,0,569,287.49Z"/><path class="cls-5" d="M151,357.53l-3.48,7.6c-.5,1.13-.94,1.58-2.21,1.58a1.38,1.38,0,0,1-1.52-1.27,1.73,1.73,0,0,1,.19-.82l17.53-37.52c.32-.64.7-1.4,1.64-1.4s1.27.76,1.59,1.46l17.78,37.46a1.73,1.73,0,0,1,.19.82,1.39,1.39,0,0,1-1.52,1.27,2,2,0,0,1-1.9-1.2l-3.73-8Zm1.59-3.35H174l-10.75-22.91Z"/><path class="cls-5" d="M199.92,329.63v36c0,.57-.45,1.08-1.84,1.08s-1.77-.51-1.77-1.08v-36H184.1A1.57,1.57,0,0,1,183,328a1.52,1.52,0,0,1,1.08-1.58h28a1.52,1.52,0,0,1,1.07,1.58,1.57,1.57,0,0,1-1.07,1.65Z"/><path class="cls-5" d="M258.45,345.51a9.4,9.4,0,0,1,8.22,9.3c0,6.84-4.55,11.9-13.35,11.9H237.19a1,1,0,0,1-1.08-1.08V327.48a1,1,0,0,1,1.08-1.08H249c9.43,0,15.06,2.53,15.06,10.25C264.08,341.46,262.12,344,258.45,345.51Zm-18.73-.57H252c6.46,0,8.23-3.73,8.23-8.42,0-5.56-3.67-6.89-11.2-6.89h-9.3Zm13.79,3.16H239.72v15.38h12.72c7.78,0,10.44-3.29,10.44-8.42C262.88,350.57,259.78,348.1,253.51,348.1Z"/><path class="cls-5" d="M302.23,363.42a1.63,1.63,0,0,1,1.08,1.64,1.56,1.56,0,0,1-1.08,1.65h-25a1,1,0,0,1-1.08-1.08V327.41c0-.57.45-1,1.78-1s1.83.38,1.83,1v36Z"/><path class="cls-5" d="M316.22,357.53l-3.48,7.6c-.51,1.13-.95,1.58-2.22,1.58a1.39,1.39,0,0,1-1.52-1.27,1.73,1.73,0,0,1,.19-.82l17.53-37.52c.32-.64.7-1.4,1.65-1.4s1.26.76,1.58,1.46l17.78,37.46a1.73,1.73,0,0,1,.19.82,1.38,1.38,0,0,1-1.52,1.27,2,2,0,0,1-1.9-1.2l-3.73-8Zm1.58-3.35h21.39l-10.76-22.91Z"/><path class="cls-5" d="M357.22,366.71a1,1,0,0,1-1.08-1.08V327.48a1,1,0,0,1,1.08-1.08H367.6c13.79,0,24,5.06,24,19.68,0,11.2-5.89,20.63-22.65,20.63Zm11.71-3.23c14.68,0,19-7.72,19-17.4,0-12.47-8-16.45-20.31-16.45h-7.85v33.85Z"/><path class="cls-5" d="M432.07,363.42c.45,0,.64.82.64,1.2,0,1.39-2.15,2.09-3.55,2.09-6.26,0-8.6-10.19-16.32-13.48a31.74,31.74,0,0,1-4.24.25c-1.46,0-1.84-.82-1.84-1.64,0-1.2.38-1.39,1.14-1.39,9.3,0,17.59-3.49,17.59-11.84,0-7.65-5.82-9-13.79-9h-6.08v36c0,.63-.38,1.08-1.83,1.08s-1.77-.38-1.77-1.08V327.48a1,1,0,0,1,1.07-1.08h8.74c9.49,0,17.4,2.78,17.4,12.09,0,7.21-5.19,11.77-11.9,13.79,6.08,3.73,8,11.33,13.23,11.33A7.82,7.82,0,0,0,432.07,363.42Z"/><path class="cls-5" d="M466.37,363.42a1.63,1.63,0,0,1,1.08,1.64,1.56,1.56,0,0,1-1.08,1.65h-25a1,1,0,0,1-1.07-1.08V327.48a1,1,0,0,1,1.07-1.08h23.48a1.52,1.52,0,0,1,1.08,1.58,1.69,1.69,0,0,1-1.08,1.71H443.91v19.43h17.65a1.67,1.67,0,0,1,1.08,1.71,1.56,1.56,0,0,1-1.08,1.64H443.91v10.95Z"/><path class="cls-5" d="M473.64,372.4a1.37,1.37,0,0,1-1.45-1.33c0-1.13,2.15-2.15,2.15-3.86,0-.95-1.83-2-1.83-3.73a2.3,2.3,0,0,1,2.59-2.21,3.09,3.09,0,0,1,3.23,3.35C478.33,368.16,474.85,372.4,473.64,372.4Z"/><path class="cls-5" d="M501.74,346.65c0-12.4,9.68-20.95,20.06-20.95s20,8.55,20,20.95-9.11,20.63-20,20.63S501.74,358.92,501.74,346.65Zm36.51,0c0-10.69-7.53-17.66-16.45-17.66s-16.46,7-16.46,17.66c0,10.5,7.6,17.34,16.46,17.34S538.25,357.15,538.25,346.65Z"/><path class="cls-5" d="M555,347.41c0,11.45,7.34,16.7,16.89,16.7,7.21,0,11.9-4.55,11.9-6.83v-5.51h-8a1.55,1.55,0,0,1-1.07-1.64,1.57,1.57,0,0,1,1.07-1.65h10.44a1,1,0,0,1,1.08,1.08v8.1c0,3.8-7,9.68-15.63,9.68-10.82,0-20.44-6.9-20.44-19.93,0-15.19,10.7-21.71,20.82-21.71,8.29,0,13.67,4.81,13.67,10.51,0,2.72-1.08,4.17-2.41,4.17-1,0-1.64-.38-1.64-1.13s.57-1.08.57-2.66c0-4.5-3.61-7.6-10.19-7.6C563.37,329,555,333.68,555,347.41Z"/><path class="cls-5" d="M145.12,421.44a9.41,9.41,0,0,1,8.23,9.3c0,6.84-4.56,11.9-13.35,11.9H123.86a1,1,0,0,1-1.08-1.08V403.41a1,1,0,0,1,1.08-1.08h11.83c9.43,0,15.06,2.53,15.06,10.25C150.75,417.39,148.79,419.92,145.12,421.44Zm-18.73-.57h12.28c6.45,0,8.22-3.73,8.22-8.41,0-5.57-3.67-6.9-11.2-6.9h-9.3Zm13.8,3.17h-13.8v15.37h12.72c7.78,0,10.44-3.29,10.44-8.41C149.55,426.5,146.45,424,140.19,424Z"/><path class="cls-5" d="M188.91,439.35A1.64,1.64,0,0,1,190,441a1.56,1.56,0,0,1-1.07,1.65h-25a1,1,0,0,1-1.07-1.08V403.34c0-.57.44-1,1.77-1s1.83.38,1.83,1v36Z"/><path class="cls-5" d="M202.45,441.56c0,.51-.38,1.08-1.84,1.08s-1.77-.57-1.77-1.08V403.34c0-.57.44-1,1.77-1s1.84.38,1.84,1Z"/><path class="cls-5" d="M214,403.53,230.1,437.7l16.07-34.36a1.66,1.66,0,0,1,1.65-1c1,0,1.58.51,1.58,1.2a1.75,1.75,0,0,1-.19.83l-18,38.28c-.19.38-.57.57-1.27.57s-1-.19-1.2-.57l-18-38.28a1.6,1.6,0,0,1-.19-.89c0-.51.44-1.14,1.64-1.14A1.67,1.67,0,0,1,214,403.53Z"/><path class="cls-5" d="M276.23,441.56c0,.51-.38,1.08-1.84,1.08s-1.77-.57-1.77-1.08V403.34c0-.57.44-1,1.77-1s1.84.38,1.84,1Z"/><path class="cls-5" d="M291.16,403l26.64,33.34v-33c0-.44.44-1,1.58-1s1.58.57,1.58,1v38.35c0,.63-.5.95-1.33.95a1.92,1.92,0,0,1-1.7-1l-27.15-33.42v33.35c0,.51-.38,1.08-1.58,1.08s-1.59-.51-1.59-1.08V403.41c0-.51.51-1.08,1.78-1.08A2.17,2.17,0,0,1,291.16,403Z"/><path class="cls-5" d="M345.64,440c7.21,0,12-3.29,12-8.16,0-10.76-25.18-6.39-25.18-19.24,0-6.51,5.69-11,14.17-11,7,0,11.83,3.55,11.83,7.72,0,2.54-2.08,4.24-3.22,4.24-.95,0-1.27-.44-1.27-.88,0-.76.95-1,.95-3.17,0-2.72-3.16-4.8-8.29-4.8-5.38,0-10.63,2.34-10.63,7.27,0,10.57,25.18,6.14,25.18,19.37,0,6.45-5.44,11.89-15.44,11.89-8.79,0-14.68-3-14.68-8.73,0-3.61,2.35-5.19,3.36-5.19a1.14,1.14,0,0,1,1.2,1.08c0,.76-1.14,1.77-1.14,3.48C334.5,437.77,338.74,440,345.64,440Z"/><path class="cls-5" d="M374.93,441.63c0,.5-.38,1.07-1.83,1.07s-1.77-.57-1.77-1.07V403.41a1,1,0,0,1,1.07-1.08h7.34c11.77,0,19.87,3.29,19.87,13.1,0,10.57-10.18,15.44-20.5,15.44-1.45,0-1.83-.76-1.83-1.58,0-1,.38-1.65,1.77-1.65,8.35,0,17-3.16,17-12.34,0-7.59-6.65-9.68-16.27-9.68h-4.81Z"/><path class="cls-5" d="M412.71,441.56c0,.51-.38,1.08-1.84,1.08s-1.77-.57-1.77-1.08V403.34c0-.57.45-1,1.77-1s1.84.38,1.84,1Z"/><path class="cls-5" d="M454.16,439.35c.44,0,.63.82.63,1.2,0,1.39-2.15,2.09-3.55,2.09-6.26,0-8.6-10.19-16.32-13.48a31.74,31.74,0,0,1-4.24.25c-1.46,0-1.84-.82-1.84-1.64,0-1.2.38-1.39,1.14-1.39,9.31,0,17.59-3.48,17.59-11.84,0-7.65-5.82-9-13.79-9h-6.07v36c0,.64-.38,1.08-1.84,1.08s-1.77-.38-1.77-1.08V403.41a1,1,0,0,1,1.07-1.08h8.74c9.49,0,17.4,2.78,17.4,12.09,0,7.21-5.19,11.77-11.9,13.79,6.08,3.73,8,11.33,13.23,11.33A8.13,8.13,0,0,0,454.16,439.35Z"/><path class="cls-5" d="M488.45,439.35a1.65,1.65,0,0,1,1.08,1.64,1.56,1.56,0,0,1-1.08,1.65h-25a1,1,0,0,1-1.08-1.08V403.41a1,1,0,0,1,1.08-1.08h23.47a1.52,1.52,0,0,1,1.08,1.58,1.69,1.69,0,0,1-1.08,1.71H466v19.43h17.65a1.67,1.67,0,0,1,1.08,1.71,1.56,1.56,0,0,1-1.08,1.64H466v11Z"/><path class="cls-5" d="M528.44,439.35c.44,0,.63.82.63,1.2,0,1.39-2.15,2.09-3.54,2.09-6.27,0-8.61-10.19-16.33-13.48a31.64,31.64,0,0,1-4.24.25c-1.45,0-1.83-.82-1.83-1.64,0-1.2.38-1.39,1.14-1.39,9.3,0,17.59-3.48,17.59-11.84,0-7.65-5.82-9-13.8-9H502v36c0,.64-.38,1.08-1.83,1.08s-1.78-.38-1.78-1.08V403.41a1,1,0,0,1,1.08-1.08h8.73c9.49,0,17.4,2.78,17.4,12.09,0,7.21-5.19,11.77-11.89,13.79,6.07,3.73,8,11.33,13.22,11.33A8,8,0,0,0,528.44,439.35Z"/><path class="cls-5" d="M562.74,439.35a1.64,1.64,0,0,1,1.07,1.64,1.56,1.56,0,0,1-1.07,1.65h-25a1,1,0,0,1-1.08-1.08V403.41a1,1,0,0,1,1.08-1.08h23.48a1.52,1.52,0,0,1,1.07,1.58,1.68,1.68,0,0,1-1.07,1.71h-21v19.43h17.66a1.67,1.67,0,0,1,1.07,1.71,1.55,1.55,0,0,1-1.07,1.64H540.27v11Z"/><path class="cls-5" d="M585.77,405.56v36c0,.57-.45,1.08-1.84,1.08s-1.77-.51-1.77-1.08v-36H570a1.57,1.57,0,0,1-1.08-1.65,1.52,1.52,0,0,1,1.08-1.58h28a1.52,1.52,0,0,1,1.07,1.58,1.57,1.57,0,0,1-1.07,1.65Z"/></svg>