<svg id="Layer_1" data-name="Layer 1" xmlns="http://www.w3.org/2000/svg" width="800" height="800" viewBox="0 0 800 800"><defs><style>.cls-1{fill:#7b99aa;isolation:isolate;opacity:0.44;}.cls-2{fill:none;stroke:#7b99aa;stroke-linecap:round;stroke-linejoin:round;stroke-width:14px;}</style></defs><ellipse id="Ellipse_38" data-name="Ellipse 38" class="cls-1" cx="421.25" cy="407.32" rx="316.75" ry="322.47"/><polyline class="cls-2" points="236.39 350.7 299.65 419.31 418.82 301.42"/><path class="cls-2" d="M95.24,246.91l81-69.46a32.6,32.6,0,0,0,6.27-7.23l35.24-55.38a32.51,32.51,0,0,1,32.77-14.61l77.56,17.63h14.12l80.6-13.1a32.5,32.5,0,0,1,28.54,13.95l49.4,71.36a32.62,32.62,0,0,0,9.28,8.93l55.06,35A32.52,32.52,0,0,1,580,264.92l-9.64,90.21a32.26,32.26,0,0,0,.56,10.37l14.31,65.73a32.5,32.5,0,0,1-9.8,30.88l-68.67,62.95a32.23,32.23,0,0,0-4,4.46L453,595.84a32.49,32.49,0,0,1-31.56,12.53l-87.56-15.18a32.59,32.59,0,0,0-12.41.25l-65.6,14.15a32.53,32.53,0,0,1-32-11.2l-48-58.69a32.42,32.42,0,0,0-6.66-6.15L99.29,483.21a32.51,32.51,0,0,1-13.17-34l14.72-63.79a32.51,32.51,0,0,0,.33-13q-8.39-47.58-16.79-95.17A32.49,32.49,0,0,1,95.24,246.91Z"/></svg>